<svg width="1363" height="301" viewBox="0 0 1363 301" fill="none" xmlns="http://www.w3.org/2000/svg">
<rect width="1363" height="301" rx="15" fill="#F0F0F0"/>
<path d="M0 15C0 6.71573 6.71573 0 15 0H37V301H15C6.71573 301 0 294.284 0 286V15Z" fill="#7862FF"/>
<path d="M110.584 130.733H100.862V123.456H110.584C111.909 123.456 112.983 123.232 113.807 122.784C114.63 122.337 115.23 121.719 115.606 120.931C116 120.125 116.197 119.221 116.197 118.219C116.197 117.145 116 116.151 115.606 115.238C115.23 114.325 114.63 113.591 113.807 113.036C112.983 112.463 111.909 112.176 110.584 112.176H104.407V144H94.981V104.898H110.584C113.717 104.898 116.412 105.471 118.667 106.617C120.941 107.763 122.687 109.339 123.904 111.344C125.122 113.331 125.73 115.605 125.73 118.165C125.73 120.689 125.122 122.892 123.904 124.771C122.687 126.651 120.941 128.119 118.667 129.176C116.412 130.214 113.717 130.733 110.584 130.733ZM145.147 136.695V124.718C145.147 123.894 145.031 123.187 144.798 122.596C144.565 122.005 144.198 121.549 143.697 121.227C143.195 120.886 142.524 120.716 141.683 120.716C141.002 120.716 140.42 120.833 139.937 121.065C139.454 121.298 139.087 121.647 138.836 122.113C138.585 122.578 138.46 123.169 138.46 123.885H129.41C129.41 122.542 129.705 121.298 130.296 120.152C130.905 118.989 131.764 117.977 132.874 117.118C134.002 116.258 135.345 115.596 136.902 115.13C138.478 114.647 140.232 114.405 142.166 114.405C144.476 114.405 146.535 114.79 148.343 115.56C150.169 116.33 151.61 117.485 152.667 119.024C153.723 120.546 154.251 122.462 154.251 124.771V136.668C154.251 138.566 154.358 140.007 154.573 140.992C154.788 141.959 155.092 142.809 155.486 143.543V144H146.409C145.979 143.105 145.657 142.013 145.442 140.724C145.245 139.417 145.147 138.074 145.147 136.695ZM146.248 126.249L146.302 131.083H142.3C141.459 131.083 140.743 131.199 140.152 131.432C139.579 131.664 139.113 131.987 138.755 132.398C138.415 132.792 138.165 133.24 138.003 133.741C137.86 134.243 137.789 134.771 137.789 135.326C137.789 135.863 137.914 136.346 138.165 136.776C138.433 137.188 138.791 137.51 139.239 137.743C139.686 137.975 140.188 138.092 140.743 138.092C141.745 138.092 142.596 137.904 143.294 137.528C144.01 137.134 144.556 136.66 144.932 136.104C145.308 135.549 145.496 135.03 145.496 134.547L147.483 138.253C147.125 138.969 146.714 139.694 146.248 140.428C145.8 141.162 145.236 141.843 144.556 142.469C143.894 143.078 143.079 143.579 142.112 143.973C141.146 144.349 139.973 144.537 138.594 144.537C136.804 144.537 135.157 144.17 133.653 143.436C132.167 142.702 130.976 141.681 130.081 140.375C129.186 139.05 128.738 137.528 128.738 135.809C128.738 134.305 129.007 132.962 129.544 131.781C130.099 130.599 130.931 129.597 132.042 128.773C133.152 127.949 134.566 127.323 136.285 126.893C138.003 126.463 140.027 126.249 142.354 126.249H146.248ZM168.404 122.14V144H159.354V114.942H167.813L168.404 122.14ZM176.998 114.728L176.836 123.133C176.478 123.097 175.995 123.053 175.386 122.999C174.778 122.945 174.267 122.918 173.855 122.918C172.799 122.918 171.886 123.044 171.116 123.294C170.364 123.527 169.738 123.885 169.236 124.369C168.753 124.834 168.395 125.425 168.162 126.141C167.947 126.857 167.849 127.69 167.867 128.639L166.229 127.564C166.229 125.613 166.417 123.84 166.792 122.247C167.186 120.636 167.741 119.248 168.458 118.084C169.174 116.903 170.042 115.999 171.062 115.372C172.083 114.728 173.229 114.405 174.5 114.405C174.948 114.405 175.386 114.432 175.816 114.486C176.264 114.54 176.657 114.62 176.998 114.728ZM189.244 102.723V144H180.193V102.723H189.244ZM207.828 114.942L195.206 129.74L188.599 136.346L184.651 130.599L190.157 123.429L196.978 114.942H207.828ZM198.133 144L190.372 130.76L197.059 126.007L208.499 144H198.133ZM219.751 114.942V144H210.674V114.942H219.751ZM210.137 107.45C210.137 106.161 210.603 105.104 211.534 104.281C212.465 103.457 213.673 103.045 215.159 103.045C216.645 103.045 217.854 103.457 218.785 104.281C219.716 105.104 220.181 106.161 220.181 107.45C220.181 108.739 219.716 109.795 218.785 110.619C217.854 111.442 216.645 111.854 215.159 111.854C213.673 111.854 212.465 111.442 211.534 110.619C210.603 109.795 210.137 108.739 210.137 107.45ZM234.227 121.146V144H225.176V114.942H233.663L234.227 121.146ZM233.152 128.478L231.031 128.531C231.031 126.311 231.299 124.333 231.836 122.596C232.374 120.842 233.134 119.356 234.119 118.138C235.104 116.921 236.277 115.999 237.637 115.372C239.016 114.728 240.547 114.405 242.229 114.405C243.572 114.405 244.799 114.602 245.909 114.996C247.037 115.39 248.003 116.026 248.809 116.903C249.633 117.78 250.259 118.944 250.689 120.394C251.137 121.826 251.36 123.599 251.36 125.711V144H242.256V125.685C242.256 124.521 242.095 123.635 241.773 123.026C241.451 122.399 240.985 121.97 240.376 121.737C239.768 121.504 239.025 121.388 238.147 121.388C237.216 121.388 236.429 121.567 235.784 121.925C235.14 122.283 234.62 122.784 234.227 123.429C233.851 124.055 233.573 124.798 233.394 125.658C233.233 126.517 233.152 127.457 233.152 128.478ZM274.644 114.942H282.862V142.872C282.862 145.558 282.244 147.831 281.009 149.693C279.773 151.573 278.046 152.997 275.826 153.963C273.624 154.948 271.045 155.44 268.091 155.44C266.784 155.44 265.451 155.27 264.09 154.93C262.729 154.608 261.458 154.125 260.276 153.48C259.095 152.835 258.101 152.039 257.295 151.09L261.082 145.772C261.816 146.596 262.738 147.294 263.848 147.867C264.958 148.458 266.265 148.753 267.769 148.753C269.076 148.753 270.168 148.521 271.045 148.055C271.941 147.59 272.621 146.909 273.086 146.014C273.552 145.137 273.785 144.072 273.785 142.818V121.817L274.644 114.942ZM255.335 129.82V129.256C255.335 127.054 255.604 125.049 256.141 123.241C256.696 121.415 257.483 119.848 258.504 118.541C259.542 117.216 260.796 116.196 262.264 115.479C263.732 114.763 265.388 114.405 267.232 114.405C269.219 114.405 270.848 114.79 272.12 115.56C273.409 116.312 274.438 117.368 275.208 118.729C275.996 120.09 276.604 121.683 277.034 123.509C277.482 125.318 277.858 127.269 278.162 129.364V130.035C277.858 132.005 277.437 133.867 276.9 135.621C276.381 137.358 275.7 138.897 274.859 140.24C274.017 141.583 272.961 142.639 271.69 143.409C270.437 144.161 268.933 144.537 267.178 144.537C265.352 144.537 263.705 144.17 262.237 143.436C260.787 142.702 259.542 141.673 258.504 140.348C257.483 139.023 256.696 137.465 256.141 135.675C255.604 133.884 255.335 131.933 255.335 129.82ZM264.385 129.256V129.82C264.385 130.912 264.484 131.924 264.681 132.855C264.896 133.786 265.218 134.61 265.647 135.326C266.077 136.024 266.605 136.57 267.232 136.964C267.876 137.358 268.628 137.555 269.488 137.555C270.795 137.555 271.851 137.277 272.657 136.722C273.462 136.167 274.044 135.379 274.402 134.359C274.76 133.338 274.913 132.139 274.859 130.76V128.639C274.895 127.457 274.814 126.419 274.617 125.523C274.42 124.61 274.107 123.849 273.677 123.241C273.265 122.632 272.71 122.175 272.012 121.871C271.332 121.549 270.508 121.388 269.542 121.388C268.7 121.388 267.957 121.585 267.312 121.979C266.668 122.372 266.131 122.927 265.701 123.644C265.271 124.342 264.94 125.174 264.708 126.141C264.493 127.09 264.385 128.128 264.385 129.256ZM311.624 104.898V144H302.198V104.898H311.624ZM326.824 121.173V128.424H308.938V121.173H326.824ZM328.355 104.898V112.176H308.938V104.898H328.355ZM341.407 114.942V144H332.33V114.942H341.407ZM331.792 107.45C331.792 106.161 332.258 105.104 333.189 104.281C334.12 103.457 335.328 103.045 336.814 103.045C338.3 103.045 339.509 103.457 340.44 104.281C341.371 105.104 341.836 106.161 341.836 107.45C341.836 108.739 341.371 109.795 340.44 110.619C339.509 111.442 338.3 111.854 336.814 111.854C335.328 111.854 334.12 111.442 333.189 110.619C332.258 109.795 331.792 108.739 331.792 107.45ZM355.882 121.146V144H346.832V114.942H355.318L355.882 121.146ZM354.808 128.478L352.686 128.531C352.686 126.311 352.955 124.333 353.492 122.596C354.029 120.842 354.79 119.356 355.774 118.138C356.759 116.921 357.932 115.999 359.292 115.372C360.671 114.728 362.202 114.405 363.885 114.405C365.228 114.405 366.454 114.602 367.564 114.996C368.692 115.39 369.659 116.026 370.464 116.903C371.288 117.78 371.915 118.944 372.344 120.394C372.792 121.826 373.016 123.599 373.016 125.711V144H363.912V125.685C363.912 124.521 363.75 123.635 363.428 123.026C363.106 122.399 362.64 121.97 362.032 121.737C361.423 121.504 360.68 121.388 359.803 121.388C358.872 121.388 358.084 121.567 357.439 121.925C356.795 122.283 356.276 122.784 355.882 123.429C355.506 124.055 355.228 124.798 355.049 125.658C354.888 126.517 354.808 127.457 354.808 128.478ZM394.742 137.34V102.75H403.846V144H395.682L394.742 137.34ZM376.91 129.82V129.256C376.91 127.054 377.151 125.049 377.635 123.241C378.118 121.415 378.834 119.848 379.783 118.541C380.732 117.216 381.914 116.196 383.328 115.479C384.743 114.763 386.372 114.405 388.216 114.405C389.863 114.405 391.304 114.79 392.54 115.56C393.775 116.312 394.831 117.368 395.708 118.729C396.586 120.09 397.302 121.683 397.857 123.509C398.412 125.318 398.833 127.269 399.119 129.364V130.035C398.833 132.005 398.412 133.867 397.857 135.621C397.302 137.358 396.586 138.897 395.708 140.24C394.831 141.583 393.766 142.639 392.513 143.409C391.277 144.161 389.827 144.537 388.162 144.537C386.318 144.537 384.689 144.17 383.274 143.436C381.878 142.702 380.705 141.673 379.756 140.348C378.825 139.023 378.118 137.465 377.635 135.675C377.151 133.884 376.91 131.933 376.91 129.82ZM385.96 129.256V129.82C385.96 130.912 386.032 131.924 386.175 132.855C386.318 133.786 386.56 134.61 386.9 135.326C387.258 136.024 387.723 136.57 388.296 136.964C388.887 137.358 389.612 137.555 390.472 137.555C391.635 137.555 392.593 137.277 393.345 136.722C394.115 136.167 394.679 135.379 395.037 134.359C395.413 133.338 395.574 132.139 395.521 130.76V128.639C395.556 127.457 395.476 126.419 395.279 125.523C395.082 124.61 394.769 123.849 394.339 123.241C393.927 122.632 393.399 122.175 392.754 121.871C392.128 121.549 391.385 121.388 390.525 121.388C389.684 121.388 388.968 121.585 388.377 121.979C387.804 122.372 387.339 122.927 386.98 123.644C386.622 124.342 386.363 125.174 386.202 126.141C386.041 127.09 385.96 128.128 385.96 129.256ZM423.047 144.537C420.684 144.537 418.571 144.17 416.709 143.436C414.847 142.684 413.272 141.655 411.983 140.348C410.712 139.041 409.736 137.537 409.056 135.836C408.393 134.135 408.062 132.336 408.062 130.438V129.417C408.062 127.287 408.357 125.318 408.948 123.509C409.539 121.683 410.416 120.09 411.58 118.729C412.744 117.368 414.203 116.312 415.958 115.56C417.712 114.79 419.753 114.405 422.081 114.405C424.139 114.405 425.984 114.736 427.613 115.399C429.242 116.061 430.621 117.01 431.749 118.246C432.894 119.481 433.763 120.976 434.354 122.73C434.962 124.485 435.267 126.454 435.267 128.639V132.318H411.526V126.651H426.431V125.953C426.449 124.986 426.279 124.163 425.921 123.482C425.581 122.802 425.079 122.283 424.417 121.925C423.755 121.567 422.949 121.388 422 121.388C421.015 121.388 420.201 121.603 419.556 122.032C418.93 122.462 418.437 123.053 418.079 123.805C417.739 124.539 417.497 125.389 417.354 126.356C417.211 127.323 417.139 128.343 417.139 129.417V130.438C417.139 131.512 417.282 132.488 417.569 133.365C417.873 134.243 418.303 134.994 418.858 135.621C419.431 136.23 420.111 136.704 420.899 137.044C421.705 137.385 422.618 137.555 423.638 137.555C424.874 137.555 426.091 137.322 427.291 136.856C428.49 136.391 429.52 135.621 430.379 134.547L434.488 139.435C433.897 140.276 433.056 141.091 431.963 141.878C430.889 142.666 429.6 143.311 428.096 143.812C426.592 144.295 424.909 144.537 423.047 144.537ZM448.077 122.14V144H439.026V114.942H447.486L448.077 122.14ZM456.67 114.728L456.509 123.133C456.151 123.097 455.668 123.053 455.059 122.999C454.45 122.945 453.94 122.918 453.528 122.918C452.472 122.918 451.559 123.044 450.789 123.294C450.037 123.527 449.41 123.885 448.909 124.369C448.426 124.834 448.068 125.425 447.835 126.141C447.62 126.857 447.522 127.69 447.54 128.639L445.901 127.564C445.901 125.613 446.089 123.84 446.465 122.247C446.859 120.636 447.414 119.248 448.13 118.084C448.847 116.903 449.715 115.999 450.735 115.372C451.756 114.728 452.902 114.405 454.173 114.405C454.62 114.405 455.059 114.432 455.489 114.486C455.936 114.54 456.33 114.62 456.67 114.728Z" fill="black"/>
<path d="M110.816 65.2515V69.2505H97.8276V65.2515H110.816ZM99.3486 55.1172V80H94.2217V55.1172H99.3486ZM114.473 55.1172V80H109.363V55.1172H114.473ZM128.606 75.8301V67.5928C128.606 67.0003 128.51 66.4933 128.316 66.0718C128.122 65.6388 127.82 65.3027 127.41 65.0635C127.011 64.8242 126.493 64.7046 125.855 64.7046C125.308 64.7046 124.835 64.8014 124.437 64.9951C124.038 65.1774 123.73 65.4451 123.514 65.7983C123.297 66.1401 123.189 66.5446 123.189 67.0117H118.267C118.267 66.2256 118.449 65.4793 118.814 64.7729C119.179 64.0666 119.708 63.4456 120.403 62.9102C121.098 62.3633 121.924 61.936 122.881 61.6284C123.85 61.3208 124.932 61.167 126.128 61.167C127.564 61.167 128.84 61.4062 129.957 61.8848C131.073 62.3633 131.95 63.0811 132.588 64.0381C133.238 64.9951 133.562 66.1914 133.562 67.627V75.5396C133.562 76.5535 133.625 77.3853 133.75 78.0347C133.876 78.6727 134.058 79.231 134.297 79.7095V80H129.324C129.085 79.4987 128.903 78.8721 128.777 78.1201C128.663 77.3568 128.606 76.5934 128.606 75.8301ZM129.256 68.7378L129.29 71.5234H126.539C125.889 71.5234 125.325 71.5975 124.847 71.7456C124.368 71.8937 123.975 72.1045 123.667 72.3779C123.36 72.64 123.132 72.9476 122.984 73.3008C122.847 73.654 122.779 74.0413 122.779 74.4629C122.779 74.8844 122.876 75.2661 123.069 75.6079C123.263 75.9383 123.542 76.2004 123.907 76.394C124.271 76.5763 124.699 76.6675 125.188 76.6675C125.929 76.6675 126.573 76.5194 127.12 76.2231C127.667 75.9269 128.088 75.5623 128.384 75.1294C128.692 74.6965 128.851 74.2863 128.863 73.8989L130.162 75.9839C129.979 76.451 129.729 76.9352 129.41 77.4365C129.102 77.9378 128.709 78.4106 128.23 78.855C127.752 79.2879 127.177 79.6468 126.504 79.9316C125.832 80.2051 125.035 80.3418 124.112 80.3418C122.938 80.3418 121.873 80.1082 120.916 79.6411C119.97 79.1626 119.218 78.5075 118.66 77.6758C118.113 76.8327 117.84 75.8757 117.84 74.8047C117.84 73.8363 118.022 72.9761 118.387 72.2241C118.751 71.4722 119.287 70.8398 119.993 70.3271C120.711 69.8031 121.605 69.41 122.676 69.1479C123.747 68.8745 124.989 68.7378 126.402 68.7378H129.256ZM142.278 65.3369V80H137.339V61.5088H141.971L142.278 65.3369ZM141.595 70.105H140.228C140.228 68.8175 140.381 67.6326 140.689 66.5503C141.008 65.4565 141.469 64.5109 142.073 63.7134C142.688 62.9045 143.446 62.2778 144.346 61.8335C145.246 61.3892 146.289 61.167 147.474 61.167C148.294 61.167 149.046 61.2923 149.729 61.543C150.413 61.7822 151 62.1639 151.49 62.688C151.991 63.2007 152.378 63.8729 152.652 64.7046C152.925 65.5249 153.062 66.5104 153.062 67.6611V80H148.14V68.208C148.14 67.3649 148.026 66.7155 147.798 66.2598C147.57 65.804 147.246 65.485 146.824 65.3027C146.414 65.1204 145.918 65.0293 145.337 65.0293C144.699 65.0293 144.141 65.1603 143.663 65.4224C143.195 65.6844 142.808 66.049 142.5 66.5161C142.193 66.9718 141.965 67.5073 141.817 68.1226C141.669 68.7378 141.595 69.3986 141.595 70.105ZM152.601 69.541L150.84 69.7632C150.84 68.5555 150.988 67.4333 151.285 66.3965C151.592 65.3597 152.042 64.4482 152.635 63.6621C153.239 62.876 153.985 62.2664 154.874 61.8335C155.762 61.3892 156.788 61.167 157.95 61.167C158.838 61.167 159.647 61.298 160.376 61.5601C161.106 61.8107 161.727 62.2152 162.239 62.7734C162.763 63.3203 163.162 64.0381 163.436 64.9268C163.72 65.8154 163.863 66.9035 163.863 68.1909V80H158.924V68.1909C158.924 67.3364 158.81 66.687 158.582 66.2427C158.366 65.7869 158.047 65.4736 157.625 65.3027C157.215 65.1204 156.725 65.0293 156.155 65.0293C155.563 65.0293 155.044 65.1489 154.6 65.3882C154.156 65.616 153.785 65.9351 153.489 66.3452C153.193 66.7554 152.971 67.2339 152.823 67.7808C152.675 68.3162 152.601 68.903 152.601 69.541ZM182.388 76.1548V80H168.34V76.1548H182.388ZM182.115 64.3457L170.323 80H167.024V77.0776L178.765 61.5088H182.115V64.3457ZM180.372 61.5088V65.3711H167.298V61.5088H180.372ZM193.719 80.3418C192.283 80.3418 190.996 80.1139 189.856 79.6582C188.717 79.1911 187.749 78.5474 186.951 77.7271C186.165 76.9067 185.561 75.9554 185.14 74.873C184.718 73.7793 184.507 72.6172 184.507 71.3867V70.7031C184.507 69.3018 184.707 68.02 185.105 66.8579C185.504 65.6958 186.074 64.6875 186.814 63.833C187.566 62.9785 188.478 62.3234 189.549 61.8677C190.62 61.4006 191.827 61.167 193.172 61.167C194.482 61.167 195.644 61.3835 196.658 61.8164C197.672 62.2493 198.521 62.8646 199.205 63.6621C199.9 64.4596 200.424 65.4167 200.777 66.5332C201.13 67.6383 201.307 68.8688 201.307 70.2246V72.2754H186.609V68.9941H196.47V68.6182C196.47 67.9346 196.345 67.325 196.094 66.7896C195.855 66.2427 195.49 65.8097 195 65.4907C194.511 65.1717 193.884 65.0122 193.121 65.0122C192.471 65.0122 191.913 65.1546 191.446 65.4395C190.979 65.7243 190.597 66.123 190.301 66.6357C190.016 67.1484 189.799 67.7523 189.651 68.4473C189.515 69.1309 189.446 69.8828 189.446 70.7031V71.3867C189.446 72.1273 189.549 72.8109 189.754 73.4375C189.97 74.0641 190.272 74.6053 190.66 75.061C191.058 75.5168 191.537 75.87 192.095 76.1206C192.665 76.3713 193.309 76.4966 194.026 76.4966C194.915 76.4966 195.741 76.3257 196.504 75.9839C197.279 75.6307 197.946 75.1009 198.504 74.3945L200.896 76.9922C200.509 77.5505 199.979 78.0859 199.307 78.5986C198.646 79.1113 197.849 79.5329 196.915 79.8633C195.98 80.1823 194.915 80.3418 193.719 80.3418ZM223.25 59.3726L216.482 80H211.031L220.276 55.1172H223.746L223.25 59.3726ZM228.873 80L222.088 59.3726L221.541 55.1172H225.044L234.341 80H228.873ZM228.565 70.7373V74.7534H215.423V70.7373H228.565ZM240.716 65.3369V80H235.777V61.5088H240.408L240.716 65.3369ZM240.032 70.105H238.665C238.665 68.8175 238.819 67.6326 239.126 66.5503C239.445 65.4565 239.907 64.5109 240.511 63.7134C241.126 62.9045 241.884 62.2778 242.784 61.8335C243.684 61.3892 244.726 61.167 245.911 61.167C246.731 61.167 247.483 61.2923 248.167 61.543C248.851 61.7822 249.437 62.1639 249.927 62.688C250.429 63.2007 250.816 63.8729 251.089 64.7046C251.363 65.5249 251.5 66.5104 251.5 67.6611V80H246.578V68.208C246.578 67.3649 246.464 66.7155 246.236 66.2598C246.008 65.804 245.683 65.485 245.262 65.3027C244.852 65.1204 244.356 65.0293 243.775 65.0293C243.137 65.0293 242.579 65.1603 242.1 65.4224C241.633 65.6844 241.246 66.049 240.938 66.5161C240.63 66.9718 240.403 67.5073 240.254 68.1226C240.106 68.7378 240.032 69.3986 240.032 70.105ZM251.038 69.541L249.278 69.7632C249.278 68.5555 249.426 67.4333 249.722 66.3965C250.03 65.3597 250.48 64.4482 251.072 63.6621C251.676 62.876 252.422 62.2664 253.311 61.8335C254.2 61.3892 255.225 61.167 256.387 61.167C257.276 61.167 258.085 61.298 258.814 61.5601C259.543 61.8107 260.164 62.2152 260.677 62.7734C261.201 63.3203 261.6 64.0381 261.873 64.9268C262.158 65.8154 262.3 66.9035 262.3 68.1909V80H257.361V68.1909C257.361 67.3364 257.247 66.687 257.02 66.2427C256.803 65.7869 256.484 65.4736 256.062 65.3027C255.652 65.1204 255.162 65.0293 254.593 65.0293C254 65.0293 253.482 65.1489 253.038 65.3882C252.593 65.616 252.223 65.9351 251.927 66.3452C251.631 66.7554 251.408 67.2339 251.26 67.7808C251.112 68.3162 251.038 68.903 251.038 69.541ZM271.033 65.3369V80H266.094V61.5088H270.726L271.033 65.3369ZM270.35 70.105H268.982C268.982 68.8175 269.136 67.6326 269.444 66.5503C269.763 65.4565 270.224 64.5109 270.828 63.7134C271.443 62.9045 272.201 62.2778 273.101 61.8335C274.001 61.3892 275.044 61.167 276.229 61.167C277.049 61.167 277.801 61.2923 278.484 61.543C279.168 61.7822 279.755 62.1639 280.245 62.688C280.746 63.2007 281.133 63.8729 281.407 64.7046C281.68 65.5249 281.817 66.5104 281.817 67.6611V80H276.895V68.208C276.895 67.3649 276.781 66.7155 276.553 66.2598C276.325 65.804 276.001 65.485 275.579 65.3027C275.169 65.1204 274.673 65.0293 274.092 65.0293C273.454 65.0293 272.896 65.1603 272.417 65.4224C271.95 65.6844 271.563 66.049 271.255 66.5161C270.948 66.9718 270.72 67.5073 270.572 68.1226C270.424 68.7378 270.35 69.3986 270.35 70.105ZM281.355 69.541L279.595 69.7632C279.595 68.5555 279.743 67.4333 280.04 66.3965C280.347 65.3597 280.797 64.4482 281.39 63.6621C281.993 62.876 282.74 62.2664 283.628 61.8335C284.517 61.3892 285.542 61.167 286.705 61.167C287.593 61.167 288.402 61.298 289.131 61.5601C289.861 61.8107 290.481 62.2152 290.994 62.7734C291.518 63.3203 291.917 64.0381 292.19 64.9268C292.475 65.8154 292.618 66.9035 292.618 68.1909V80H287.679V68.1909C287.679 67.3364 287.565 66.687 287.337 66.2427C287.12 65.7869 286.801 65.4736 286.38 65.3027C285.97 65.1204 285.48 65.0293 284.91 65.0293C284.318 65.0293 283.799 65.1489 283.355 65.3882C282.911 65.616 282.54 65.9351 282.244 66.3452C281.948 66.7554 281.726 67.2339 281.578 67.7808C281.43 68.3162 281.355 68.903 281.355 69.541ZM306.409 75.8301V67.5928C306.409 67.0003 306.312 66.4933 306.119 66.0718C305.925 65.6388 305.623 65.3027 305.213 65.0635C304.814 64.8242 304.296 64.7046 303.658 64.7046C303.111 64.7046 302.638 64.8014 302.239 64.9951C301.84 65.1774 301.533 65.4451 301.316 65.7983C301.1 66.1401 300.992 66.5446 300.992 67.0117H296.07C296.07 66.2256 296.252 65.4793 296.617 64.7729C296.981 64.0666 297.511 63.4456 298.206 62.9102C298.901 62.3633 299.727 61.936 300.684 61.6284C301.653 61.3208 302.735 61.167 303.931 61.167C305.367 61.167 306.643 61.4062 307.759 61.8848C308.876 62.3633 309.753 63.0811 310.391 64.0381C311.041 64.9951 311.365 66.1914 311.365 67.627V75.5396C311.365 76.5535 311.428 77.3853 311.553 78.0347C311.679 78.6727 311.861 79.231 312.1 79.7095V80H307.127C306.888 79.4987 306.705 78.8721 306.58 78.1201C306.466 77.3568 306.409 76.5934 306.409 75.8301ZM307.059 68.7378L307.093 71.5234H304.341C303.692 71.5234 303.128 71.5975 302.649 71.7456C302.171 71.8937 301.778 72.1045 301.47 72.3779C301.163 72.64 300.935 72.9476 300.787 73.3008C300.65 73.654 300.582 74.0413 300.582 74.4629C300.582 74.8844 300.678 75.2661 300.872 75.6079C301.066 75.9383 301.345 76.2004 301.709 76.394C302.074 76.5763 302.501 76.6675 302.991 76.6675C303.732 76.6675 304.375 76.5194 304.922 76.2231C305.469 75.9269 305.891 75.5623 306.187 75.1294C306.495 74.6965 306.654 74.2863 306.666 73.8989L307.964 75.9839C307.782 76.451 307.531 76.9352 307.212 77.4365C306.905 77.9378 306.512 78.4106 306.033 78.855C305.555 79.2879 304.979 79.6468 304.307 79.9316C303.635 80.2051 302.837 80.3418 301.915 80.3418C300.741 80.3418 299.676 80.1082 298.719 79.6411C297.773 79.1626 297.021 78.5075 296.463 77.6758C295.916 76.8327 295.643 75.8757 295.643 74.8047C295.643 73.8363 295.825 72.9761 296.189 72.2241C296.554 71.4722 297.09 70.8398 297.796 70.3271C298.514 69.8031 299.408 69.41 300.479 69.1479C301.55 68.8745 302.792 68.7378 304.205 68.7378H307.059ZM320.081 65.542V80H315.159V61.5088H319.791L320.081 65.542ZM325.652 61.3892L325.567 65.9521C325.328 65.918 325.037 65.8895 324.695 65.8667C324.365 65.8325 324.063 65.8154 323.79 65.8154C323.095 65.8154 322.491 65.9066 321.978 66.0889C321.477 66.2598 321.055 66.5161 320.713 66.8579C320.383 67.1997 320.132 67.6156 319.961 68.1055C319.802 68.5954 319.711 69.1536 319.688 69.7803L318.697 69.4727C318.697 68.2764 318.816 67.1769 319.056 66.1743C319.295 65.1603 319.642 64.2773 320.098 63.5254C320.565 62.7734 321.135 62.1924 321.807 61.7822C322.479 61.3721 323.248 61.167 324.114 61.167C324.388 61.167 324.667 61.1898 324.952 61.2354C325.236 61.2695 325.47 61.3208 325.652 61.3892Z" fill="#888888"/>
<rect x="92" y="181" width="1179" height="80" rx="13.3333" fill="#CCCCCC"/>
<rect x="107" y="196.333" width="208" height="49.3333" rx="4.66667" fill="#888888" stroke="#888888" stroke-width="4"/>
<path d="M171.823 213.167H177.792C178.958 213.167 179.972 213.34 180.833 213.687C181.694 214.035 182.358 214.549 182.823 215.229C183.295 215.91 183.531 216.75 183.531 217.75C183.531 218.618 183.396 219.344 183.125 219.927C182.854 220.51 182.476 220.993 181.99 221.375C181.51 221.75 180.951 222.059 180.312 222.302L179.115 222.979H174.104L174.083 220.156H177.792C178.257 220.156 178.642 220.073 178.948 219.906C179.253 219.74 179.483 219.503 179.635 219.198C179.795 218.885 179.875 218.514 179.875 218.083C179.875 217.646 179.795 217.271 179.635 216.958C179.476 216.646 179.24 216.406 178.927 216.24C178.622 216.073 178.243 215.99 177.792 215.99H175.479V228.333H171.823V213.167ZM180.125 228.333L176.771 221.625L180.646 221.604L184.042 228.177V228.333H180.125ZM191.031 228.542C190.115 228.542 189.295 228.399 188.573 228.115C187.851 227.823 187.24 227.424 186.74 226.917C186.247 226.41 185.868 225.826 185.604 225.167C185.347 224.507 185.219 223.809 185.219 223.073V222.677C185.219 221.851 185.333 221.087 185.562 220.385C185.792 219.677 186.132 219.059 186.583 218.531C187.035 218.003 187.601 217.594 188.281 217.302C188.962 217.003 189.753 216.854 190.656 216.854C191.455 216.854 192.17 216.983 192.802 217.24C193.434 217.497 193.969 217.865 194.406 218.344C194.851 218.823 195.187 219.403 195.417 220.083C195.653 220.764 195.771 221.528 195.771 222.375V223.802H186.562V221.604H192.344V221.333C192.351 220.958 192.285 220.639 192.146 220.375C192.014 220.111 191.819 219.91 191.562 219.771C191.306 219.632 190.993 219.562 190.625 219.562C190.243 219.562 189.927 219.646 189.677 219.812C189.434 219.979 189.243 220.208 189.104 220.5C188.972 220.785 188.878 221.115 188.823 221.49C188.767 221.865 188.74 222.26 188.74 222.677V223.073C188.74 223.49 188.795 223.868 188.906 224.208C189.024 224.549 189.191 224.84 189.406 225.083C189.628 225.319 189.892 225.503 190.198 225.635C190.51 225.767 190.865 225.833 191.26 225.833C191.74 225.833 192.212 225.743 192.677 225.562C193.142 225.382 193.542 225.083 193.875 224.667L195.469 226.562C195.24 226.889 194.913 227.205 194.49 227.51C194.073 227.816 193.573 228.066 192.99 228.26C192.406 228.448 191.753 228.542 191.031 228.542ZM203.052 225.5V220.854C203.052 220.535 203.007 220.26 202.917 220.031C202.826 219.802 202.684 219.625 202.49 219.5C202.295 219.368 202.035 219.302 201.708 219.302C201.444 219.302 201.219 219.347 201.031 219.437C200.844 219.528 200.701 219.663 200.604 219.844C200.507 220.024 200.458 220.253 200.458 220.531H196.948C196.948 220.01 197.062 219.528 197.292 219.083C197.528 218.632 197.861 218.24 198.292 217.906C198.729 217.573 199.25 217.316 199.854 217.135C200.465 216.948 201.146 216.854 201.896 216.854C202.792 216.854 203.59 217.003 204.292 217.302C205 217.601 205.559 218.049 205.969 218.646C206.378 219.236 206.583 219.979 206.583 220.875V225.49C206.583 226.226 206.625 226.785 206.708 227.167C206.792 227.542 206.91 227.872 207.062 228.156V228.333H203.542C203.375 227.986 203.25 227.562 203.167 227.062C203.09 226.556 203.052 226.035 203.052 225.5ZM203.479 221.448L203.5 223.323H201.948C201.622 223.323 201.344 223.368 201.115 223.458C200.892 223.549 200.712 223.674 200.573 223.833C200.441 223.986 200.344 224.16 200.281 224.354C200.226 224.549 200.198 224.753 200.198 224.969C200.198 225.177 200.247 225.365 200.344 225.531C200.448 225.691 200.587 225.816 200.76 225.906C200.934 225.997 201.128 226.042 201.344 226.042C201.733 226.042 202.062 225.969 202.333 225.823C202.611 225.67 202.823 225.486 202.969 225.271C203.115 225.056 203.187 224.854 203.187 224.667L203.958 226.104C203.819 226.382 203.66 226.663 203.479 226.948C203.306 227.233 203.087 227.497 202.823 227.74C202.566 227.976 202.25 228.17 201.875 228.323C201.5 228.469 201.045 228.542 200.51 228.542C199.816 228.542 199.177 228.399 198.594 228.115C198.017 227.83 197.556 227.434 197.208 226.927C196.861 226.413 196.687 225.823 196.687 225.156C196.687 224.573 196.792 224.052 197 223.594C197.215 223.135 197.538 222.747 197.969 222.427C198.399 222.108 198.948 221.865 199.615 221.698C200.281 221.531 201.066 221.448 201.969 221.448H203.479ZM213.292 225.833C213.618 225.833 213.896 225.774 214.125 225.656C214.361 225.531 214.538 225.358 214.656 225.135C214.781 224.906 214.84 224.632 214.833 224.312H218.135C218.142 225.16 217.934 225.903 217.51 226.542C217.094 227.174 216.524 227.667 215.802 228.021C215.087 228.368 214.278 228.542 213.375 228.542C212.493 228.542 211.722 228.399 211.062 228.115C210.403 227.823 209.851 227.42 209.406 226.906C208.969 226.385 208.639 225.778 208.417 225.083C208.201 224.389 208.094 223.635 208.094 222.823V222.583C208.094 221.771 208.201 221.017 208.417 220.323C208.639 219.622 208.969 219.014 209.406 218.5C209.851 217.979 210.399 217.576 211.052 217.292C211.712 217 212.479 216.854 213.354 216.854C214.292 216.854 215.118 217.031 215.833 217.385C216.556 217.74 217.122 218.253 217.531 218.927C217.941 219.601 218.142 220.417 218.135 221.375H214.833C214.84 221.035 214.788 220.729 214.677 220.458C214.566 220.187 214.392 219.972 214.156 219.812C213.927 219.646 213.632 219.562 213.271 219.562C212.91 219.562 212.618 219.642 212.396 219.802C212.174 219.962 212.003 220.184 211.885 220.469C211.774 220.747 211.698 221.066 211.656 221.427C211.622 221.788 211.604 222.174 211.604 222.583V222.823C211.604 223.24 211.622 223.632 211.656 224C211.698 224.361 211.778 224.681 211.896 224.958C212.014 225.229 212.184 225.444 212.406 225.604C212.628 225.757 212.924 225.833 213.292 225.833ZM225.573 217.062V219.5H218.781V217.062H225.573ZM220.208 214.26H223.719V224.656C223.719 224.955 223.753 225.187 223.823 225.354C223.892 225.514 224.01 225.628 224.177 225.698C224.351 225.76 224.58 225.792 224.865 225.792C225.066 225.792 225.233 225.788 225.365 225.781C225.497 225.767 225.622 225.75 225.74 225.729V228.24C225.441 228.337 225.128 228.41 224.802 228.458C224.476 228.514 224.128 228.542 223.76 228.542C223.01 228.542 222.368 228.424 221.833 228.187C221.306 227.951 220.903 227.58 220.625 227.073C220.347 226.566 220.208 225.906 220.208 225.094V214.26ZM233.167 223.573V213.167H236.812V223.573C236.812 224.587 236.58 225.465 236.115 226.208C235.656 226.951 235.031 227.528 234.24 227.937C233.455 228.34 232.573 228.542 231.594 228.542C230.58 228.542 229.677 228.372 228.885 228.031C228.101 227.691 227.483 227.167 227.031 226.458C226.587 225.75 226.365 224.847 226.365 223.75H230.031C230.031 224.264 230.09 224.667 230.208 224.958C230.326 225.243 230.5 225.444 230.729 225.562C230.965 225.674 231.253 225.729 231.594 225.729C231.927 225.729 232.208 225.646 232.437 225.479C232.674 225.306 232.854 225.059 232.979 224.74C233.104 224.413 233.167 224.024 233.167 223.573ZM246.948 224.302C246.948 224.066 246.913 223.854 246.844 223.667C246.774 223.472 246.646 223.292 246.458 223.125C246.271 222.958 246 222.792 245.646 222.625C245.299 222.451 244.84 222.271 244.271 222.083C243.604 221.861 242.962 221.611 242.344 221.333C241.726 221.049 241.174 220.719 240.687 220.344C240.201 219.962 239.816 219.517 239.531 219.01C239.247 218.497 239.104 217.899 239.104 217.219C239.104 216.566 239.25 215.979 239.542 215.458C239.833 214.931 240.24 214.483 240.76 214.115C241.288 213.74 241.906 213.455 242.615 213.26C243.323 213.059 244.097 212.958 244.937 212.958C246.049 212.958 247.028 213.153 247.875 213.542C248.729 213.924 249.396 214.469 249.875 215.177C250.361 215.878 250.604 216.708 250.604 217.667H246.969C246.969 217.285 246.889 216.948 246.729 216.656C246.576 216.365 246.344 216.135 246.031 215.969C245.719 215.802 245.326 215.719 244.854 215.719C244.396 215.719 244.01 215.788 243.698 215.927C243.385 216.066 243.149 216.253 242.99 216.49C242.83 216.719 242.75 216.972 242.75 217.25C242.75 217.479 242.812 217.687 242.937 217.875C243.069 218.056 243.253 218.226 243.49 218.385C243.733 218.545 244.024 218.698 244.365 218.844C244.712 218.99 245.101 219.132 245.531 219.271C246.337 219.528 247.052 219.816 247.677 220.135C248.309 220.448 248.84 220.806 249.271 221.208C249.708 221.604 250.038 222.056 250.26 222.562C250.49 223.069 250.604 223.642 250.604 224.281C250.604 224.962 250.472 225.566 250.208 226.094C249.944 226.622 249.566 227.069 249.073 227.437C248.58 227.799 247.99 228.073 247.302 228.26C246.615 228.448 245.847 228.542 245 228.542C244.222 228.542 243.455 228.444 242.698 228.25C241.948 228.049 241.267 227.743 240.656 227.333C240.045 226.917 239.556 226.385 239.187 225.74C238.826 225.087 238.646 224.312 238.646 223.417H242.312C242.312 223.861 242.372 224.236 242.49 224.542C242.608 224.847 242.781 225.094 243.01 225.281C243.24 225.462 243.521 225.594 243.854 225.677C244.187 225.753 244.569 225.792 245 225.792C245.465 225.792 245.84 225.726 246.125 225.594C246.41 225.455 246.618 225.274 246.75 225.052C246.882 224.823 246.948 224.573 246.948 224.302Z" fill="white"/>
<rect x="339" y="196.333" width="208" height="49.3333" rx="4.66667" fill="#888888" stroke="#888888" stroke-width="4"/>
<path d="M382.833 213.167H388.802C389.969 213.167 390.983 213.34 391.844 213.687C392.705 214.035 393.368 214.549 393.833 215.229C394.306 215.91 394.542 216.75 394.542 217.75C394.542 218.618 394.406 219.344 394.135 219.927C393.865 220.51 393.486 220.993 393 221.375C392.521 221.75 391.962 222.059 391.323 222.302L390.125 222.979H385.115L385.094 220.156H388.802C389.267 220.156 389.653 220.073 389.958 219.906C390.264 219.74 390.493 219.503 390.646 219.198C390.806 218.885 390.885 218.514 390.885 218.083C390.885 217.646 390.806 217.271 390.646 216.958C390.486 216.646 390.25 216.406 389.937 216.24C389.632 216.073 389.253 215.99 388.802 215.99H386.49V228.333H382.833V213.167ZM391.135 228.333L387.781 221.625L391.656 221.604L395.052 228.177V228.333H391.135ZM402.042 228.542C401.125 228.542 400.306 228.399 399.583 228.115C398.861 227.823 398.25 227.424 397.75 226.917C397.257 226.41 396.878 225.826 396.615 225.167C396.358 224.507 396.229 223.809 396.229 223.073V222.677C396.229 221.851 396.344 221.087 396.573 220.385C396.802 219.677 397.142 219.059 397.594 218.531C398.045 218.003 398.611 217.594 399.292 217.302C399.972 217.003 400.764 216.854 401.667 216.854C402.465 216.854 403.181 216.983 403.813 217.24C404.444 217.497 404.979 217.865 405.417 218.344C405.861 218.823 406.198 219.403 406.427 220.083C406.663 220.764 406.781 221.528 406.781 222.375V223.802H397.573V221.604H403.354V221.333C403.361 220.958 403.295 220.639 403.156 220.375C403.024 220.111 402.83 219.91 402.573 219.771C402.316 219.632 402.003 219.562 401.635 219.562C401.253 219.562 400.938 219.646 400.688 219.812C400.444 219.979 400.253 220.208 400.115 220.5C399.983 220.785 399.889 221.115 399.833 221.49C399.778 221.865 399.75 222.26 399.75 222.677V223.073C399.75 223.49 399.806 223.868 399.917 224.208C400.035 224.549 400.201 224.84 400.417 225.083C400.639 225.319 400.903 225.503 401.208 225.635C401.521 225.767 401.875 225.833 402.271 225.833C402.75 225.833 403.222 225.743 403.688 225.562C404.153 225.382 404.552 225.083 404.885 224.667L406.479 226.562C406.25 226.889 405.924 227.205 405.5 227.51C405.083 227.816 404.583 228.066 404 228.26C403.417 228.448 402.764 228.542 402.042 228.542ZM414.063 225.5V220.854C414.063 220.535 414.017 220.26 413.927 220.031C413.837 219.802 413.694 219.625 413.5 219.5C413.306 219.368 413.045 219.302 412.719 219.302C412.455 219.302 412.229 219.347 412.042 219.437C411.854 219.528 411.712 219.663 411.615 219.844C411.517 220.024 411.469 220.253 411.469 220.531H407.958C407.958 220.01 408.073 219.528 408.302 219.083C408.538 218.632 408.872 218.24 409.302 217.906C409.74 217.573 410.26 217.316 410.865 217.135C411.476 216.948 412.156 216.854 412.906 216.854C413.802 216.854 414.601 217.003 415.302 217.302C416.01 217.601 416.569 218.049 416.979 218.646C417.389 219.236 417.594 219.979 417.594 220.875V225.49C417.594 226.226 417.635 226.785 417.719 227.167C417.802 227.542 417.92 227.872 418.073 228.156V228.333H414.552C414.385 227.986 414.26 227.562 414.177 227.062C414.101 226.556 414.063 226.035 414.063 225.5ZM414.49 221.448L414.51 223.323H412.958C412.632 223.323 412.354 223.368 412.125 223.458C411.903 223.549 411.722 223.674 411.583 223.833C411.451 223.986 411.354 224.16 411.292 224.354C411.236 224.549 411.208 224.753 411.208 224.969C411.208 225.177 411.257 225.365 411.354 225.531C411.458 225.691 411.597 225.816 411.771 225.906C411.944 225.997 412.139 226.042 412.354 226.042C412.743 226.042 413.073 225.969 413.344 225.823C413.622 225.67 413.833 225.486 413.979 225.271C414.125 225.056 414.198 224.854 414.198 224.667L414.969 226.104C414.83 226.382 414.67 226.663 414.49 226.948C414.316 227.233 414.097 227.497 413.833 227.74C413.576 227.976 413.26 228.17 412.885 228.323C412.51 228.469 412.056 228.542 411.521 228.542C410.826 228.542 410.188 228.399 409.604 228.115C409.028 227.83 408.566 227.434 408.219 226.927C407.872 226.413 407.698 225.823 407.698 225.156C407.698 224.573 407.802 224.052 408.01 223.594C408.226 223.135 408.549 222.747 408.979 222.427C409.41 222.108 409.958 221.865 410.625 221.698C411.292 221.531 412.076 221.448 412.979 221.448H414.49ZM424.302 225.833C424.628 225.833 424.906 225.774 425.135 225.656C425.372 225.531 425.549 225.358 425.667 225.135C425.792 224.906 425.851 224.632 425.844 224.312H429.146C429.153 225.16 428.944 225.903 428.521 226.542C428.104 227.174 427.535 227.667 426.812 228.021C426.097 228.368 425.288 228.542 424.385 228.542C423.503 228.542 422.733 228.399 422.073 228.115C421.413 227.823 420.861 227.42 420.417 226.906C419.979 226.385 419.649 225.778 419.427 225.083C419.212 224.389 419.104 223.635 419.104 222.823V222.583C419.104 221.771 419.212 221.017 419.427 220.323C419.649 219.622 419.979 219.014 420.417 218.5C420.861 217.979 421.41 217.576 422.062 217.292C422.722 217 423.49 216.854 424.365 216.854C425.302 216.854 426.128 217.031 426.844 217.385C427.566 217.74 428.132 218.253 428.542 218.927C428.951 219.601 429.153 220.417 429.146 221.375H425.844C425.851 221.035 425.799 220.729 425.687 220.458C425.576 220.187 425.403 219.972 425.167 219.812C424.937 219.646 424.642 219.562 424.281 219.562C423.92 219.562 423.628 219.642 423.406 219.802C423.184 219.962 423.014 220.184 422.896 220.469C422.785 220.747 422.708 221.066 422.667 221.427C422.632 221.788 422.615 222.174 422.615 222.583V222.823C422.615 223.24 422.632 223.632 422.667 224C422.708 224.361 422.788 224.681 422.906 224.958C423.024 225.229 423.194 225.444 423.417 225.604C423.639 225.757 423.934 225.833 424.302 225.833ZM436.583 217.062V219.5H429.792V217.062H436.583ZM431.219 214.26H434.729V224.656C434.729 224.955 434.764 225.187 434.833 225.354C434.903 225.514 435.021 225.628 435.188 225.698C435.361 225.76 435.59 225.792 435.875 225.792C436.076 225.792 436.243 225.788 436.375 225.781C436.507 225.767 436.632 225.75 436.75 225.729V228.24C436.451 228.337 436.139 228.41 435.813 228.458C435.486 228.514 435.139 228.542 434.771 228.542C434.021 228.542 433.378 228.424 432.844 228.187C432.316 227.951 431.913 227.58 431.635 227.073C431.358 226.566 431.219 225.906 431.219 225.094V214.26ZM456.125 213.167V228.333H452.479L447.115 218.896V228.333H443.458V213.167H447.115L452.479 222.604V213.167H456.125ZM464.125 225.5V220.854C464.125 220.535 464.08 220.26 463.99 220.031C463.899 219.802 463.757 219.625 463.563 219.5C463.368 219.368 463.108 219.302 462.781 219.302C462.517 219.302 462.292 219.347 462.104 219.437C461.917 219.528 461.774 219.663 461.677 219.844C461.58 220.024 461.531 220.253 461.531 220.531H458.021C458.021 220.01 458.135 219.528 458.365 219.083C458.601 218.632 458.934 218.24 459.365 217.906C459.802 217.573 460.323 217.316 460.927 217.135C461.538 216.948 462.219 216.854 462.969 216.854C463.865 216.854 464.663 217.003 465.365 217.302C466.073 217.601 466.632 218.049 467.042 218.646C467.451 219.236 467.656 219.979 467.656 220.875V225.49C467.656 226.226 467.698 226.785 467.781 227.167C467.865 227.542 467.983 227.872 468.135 228.156V228.333H464.615C464.448 227.986 464.323 227.562 464.24 227.062C464.163 226.556 464.125 226.035 464.125 225.5ZM464.552 221.448L464.573 223.323H463.021C462.694 223.323 462.417 223.368 462.188 223.458C461.965 223.549 461.785 223.674 461.646 223.833C461.514 223.986 461.417 224.16 461.354 224.354C461.299 224.549 461.271 224.753 461.271 224.969C461.271 225.177 461.319 225.365 461.417 225.531C461.521 225.691 461.66 225.816 461.833 225.906C462.007 225.997 462.201 226.042 462.417 226.042C462.806 226.042 463.135 225.969 463.406 225.823C463.684 225.67 463.896 225.486 464.042 225.271C464.188 225.056 464.26 224.854 464.26 224.667L465.031 226.104C464.892 226.382 464.733 226.663 464.552 226.948C464.378 227.233 464.16 227.497 463.896 227.74C463.639 227.976 463.323 228.17 462.948 228.323C462.573 228.469 462.118 228.542 461.583 228.542C460.889 228.542 460.25 228.399 459.667 228.115C459.09 227.83 458.628 227.434 458.281 226.927C457.934 226.413 457.76 225.823 457.76 225.156C457.76 224.573 457.865 224.052 458.073 223.594C458.288 223.135 458.611 222.747 459.042 222.427C459.472 222.108 460.021 221.865 460.688 221.698C461.354 221.531 462.139 221.448 463.042 221.448H464.552ZM475.542 217.062V219.5H468.75V217.062H475.542ZM470.177 214.26H473.687V224.656C473.687 224.955 473.722 225.187 473.792 225.354C473.861 225.514 473.979 225.628 474.146 225.698C474.319 225.76 474.549 225.792 474.833 225.792C475.035 225.792 475.201 225.788 475.333 225.781C475.465 225.767 475.59 225.75 475.708 225.729V228.24C475.41 228.337 475.097 228.41 474.771 228.458C474.444 228.514 474.097 228.542 473.729 228.542C472.979 228.542 472.337 228.424 471.802 228.187C471.274 227.951 470.872 227.58 470.594 227.073C470.316 226.566 470.177 225.906 470.177 225.094V214.26ZM480.646 217.062V228.333H477.125V217.062H480.646ZM476.917 214.156C476.917 213.656 477.097 213.247 477.458 212.927C477.819 212.608 478.288 212.448 478.865 212.448C479.441 212.448 479.91 212.608 480.271 212.927C480.632 213.247 480.813 213.656 480.813 214.156C480.813 214.656 480.632 215.066 480.271 215.385C479.91 215.705 479.441 215.865 478.865 215.865C478.288 215.865 477.819 215.705 477.458 215.385C477.097 215.066 476.917 214.656 476.917 214.156ZM486.875 225.927L489.094 217.062H492.792L489.104 228.333H486.917L486.875 225.927ZM485.563 217.062L487.75 225.927L487.729 228.333H485.531L481.854 217.062H485.563ZM499.146 228.542C498.229 228.542 497.41 228.399 496.688 228.115C495.965 227.823 495.354 227.424 494.854 226.917C494.361 226.41 493.983 225.826 493.719 225.167C493.462 224.507 493.333 223.809 493.333 223.073V222.677C493.333 221.851 493.448 221.087 493.677 220.385C493.906 219.677 494.247 219.059 494.698 218.531C495.149 218.003 495.715 217.594 496.396 217.302C497.076 217.003 497.868 216.854 498.771 216.854C499.569 216.854 500.285 216.983 500.917 217.24C501.549 217.497 502.083 217.865 502.521 218.344C502.965 218.823 503.302 219.403 503.531 220.083C503.767 220.764 503.885 221.528 503.885 222.375V223.802H494.677V221.604H500.458V221.333C500.465 220.958 500.399 220.639 500.26 220.375C500.128 220.111 499.934 219.91 499.677 219.771C499.42 219.632 499.108 219.562 498.74 219.562C498.358 219.562 498.042 219.646 497.792 219.812C497.549 219.979 497.358 220.208 497.219 220.5C497.087 220.785 496.993 221.115 496.938 221.49C496.882 221.865 496.854 222.26 496.854 222.677V223.073C496.854 223.49 496.91 223.868 497.021 224.208C497.139 224.549 497.306 224.84 497.521 225.083C497.743 225.319 498.007 225.503 498.313 225.635C498.625 225.767 498.979 225.833 499.375 225.833C499.854 225.833 500.326 225.743 500.792 225.562C501.257 225.382 501.656 225.083 501.99 224.667L503.583 226.562C503.354 226.889 503.028 227.205 502.604 227.51C502.188 227.816 501.688 228.066 501.104 228.26C500.521 228.448 499.868 228.542 499.146 228.542Z" fill="white"/>
<rect x="571" y="196.333" width="208" height="49.3333" rx="4.66667" fill="#888888" stroke="#888888" stroke-width="4"/>
<path d="M651.073 225.521V228.333H643.406V225.521H651.073ZM644.708 213.167V228.333H641.052V213.167H644.708ZM658.302 225.5V220.854C658.302 220.535 658.257 220.26 658.167 220.031C658.076 219.802 657.934 219.625 657.74 219.5C657.545 219.368 657.285 219.302 656.958 219.302C656.694 219.302 656.469 219.347 656.281 219.437C656.094 219.528 655.951 219.663 655.854 219.844C655.757 220.024 655.708 220.253 655.708 220.531H652.198C652.198 220.01 652.312 219.528 652.542 219.083C652.778 218.632 653.111 218.24 653.542 217.906C653.979 217.573 654.5 217.316 655.104 217.135C655.715 216.948 656.396 216.854 657.146 216.854C658.042 216.854 658.84 217.003 659.542 217.302C660.25 217.601 660.809 218.049 661.219 218.646C661.628 219.236 661.833 219.979 661.833 220.875V225.49C661.833 226.226 661.875 226.785 661.958 227.167C662.042 227.542 662.16 227.872 662.312 228.156V228.333H658.792C658.625 227.986 658.5 227.562 658.417 227.062C658.34 226.556 658.302 226.035 658.302 225.5ZM658.729 221.448L658.75 223.323H657.198C656.872 223.323 656.594 223.368 656.365 223.458C656.142 223.549 655.962 223.674 655.823 223.833C655.691 223.986 655.594 224.16 655.531 224.354C655.476 224.549 655.448 224.753 655.448 224.969C655.448 225.177 655.497 225.365 655.594 225.531C655.698 225.691 655.837 225.816 656.01 225.906C656.184 225.997 656.378 226.042 656.594 226.042C656.983 226.042 657.312 225.969 657.583 225.823C657.861 225.67 658.073 225.486 658.219 225.271C658.365 225.056 658.437 224.854 658.437 224.667L659.208 226.104C659.069 226.382 658.91 226.663 658.729 226.948C658.556 227.233 658.337 227.497 658.073 227.74C657.816 227.976 657.5 228.17 657.125 228.323C656.75 228.469 656.295 228.542 655.76 228.542C655.066 228.542 654.427 228.399 653.844 228.115C653.267 227.83 652.806 227.434 652.458 226.927C652.111 226.413 651.937 225.823 651.937 225.156C651.937 224.573 652.042 224.052 652.25 223.594C652.465 223.135 652.788 222.747 653.219 222.427C653.649 222.108 654.198 221.865 654.865 221.698C655.531 221.531 656.316 221.448 657.219 221.448H658.729ZM667.323 219.854V228.333H663.812V217.062H667.094L667.323 219.854ZM670.656 216.979L670.594 220.24C670.455 220.226 670.267 220.208 670.031 220.187C669.795 220.167 669.597 220.156 669.437 220.156C669.028 220.156 668.674 220.205 668.375 220.302C668.083 220.392 667.84 220.531 667.646 220.719C667.458 220.899 667.319 221.128 667.229 221.406C667.146 221.684 667.108 222.007 667.115 222.375L666.479 221.958C666.479 221.201 666.552 220.514 666.698 219.896C666.851 219.271 667.066 218.733 667.344 218.281C667.622 217.823 667.958 217.472 668.354 217.229C668.75 216.979 669.194 216.854 669.687 216.854C669.861 216.854 670.031 216.865 670.198 216.885C670.372 216.906 670.524 216.937 670.656 216.979ZM677.406 225.5V220.854C677.406 220.535 677.361 220.26 677.271 220.031C677.181 219.802 677.038 219.625 676.844 219.5C676.649 219.368 676.389 219.302 676.063 219.302C675.799 219.302 675.573 219.347 675.385 219.437C675.198 219.528 675.056 219.663 674.958 219.844C674.861 220.024 674.813 220.253 674.813 220.531H671.302C671.302 220.01 671.417 219.528 671.646 219.083C671.882 218.632 672.215 218.24 672.646 217.906C673.083 217.573 673.604 217.316 674.208 217.135C674.819 216.948 675.5 216.854 676.25 216.854C677.146 216.854 677.944 217.003 678.646 217.302C679.354 217.601 679.913 218.049 680.323 218.646C680.733 219.236 680.938 219.979 680.938 220.875V225.49C680.938 226.226 680.979 226.785 681.063 227.167C681.146 227.542 681.264 227.872 681.417 228.156V228.333H677.896C677.729 227.986 677.604 227.562 677.521 227.062C677.444 226.556 677.406 226.035 677.406 225.5ZM677.833 221.448L677.854 223.323H676.302C675.976 223.323 675.698 223.368 675.469 223.458C675.247 223.549 675.066 223.674 674.927 223.833C674.795 223.986 674.698 224.16 674.635 224.354C674.58 224.549 674.552 224.753 674.552 224.969C674.552 225.177 674.601 225.365 674.698 225.531C674.802 225.691 674.941 225.816 675.115 225.906C675.288 225.997 675.483 226.042 675.698 226.042C676.087 226.042 676.417 225.969 676.688 225.823C676.965 225.67 677.177 225.486 677.323 225.271C677.469 225.056 677.542 224.854 677.542 224.667L678.313 226.104C678.174 226.382 678.014 226.663 677.833 226.948C677.66 227.233 677.441 227.497 677.177 227.74C676.92 227.976 676.604 228.17 676.229 228.323C675.854 228.469 675.399 228.542 674.865 228.542C674.17 228.542 673.531 228.399 672.948 228.115C672.372 227.83 671.91 227.434 671.563 226.927C671.215 226.413 671.042 225.823 671.042 225.156C671.042 224.573 671.146 224.052 671.354 223.594C671.569 223.135 671.892 222.747 672.323 222.427C672.753 222.108 673.302 221.865 673.969 221.698C674.635 221.531 675.42 221.448 676.323 221.448H677.833ZM686.781 225.927L689 217.062H692.698L689.01 228.333H686.823L686.781 225.927ZM685.469 217.062L687.656 225.927L687.635 228.333H685.437L681.76 217.062H685.469ZM699.052 228.542C698.135 228.542 697.316 228.399 696.594 228.115C695.872 227.823 695.26 227.424 694.76 226.917C694.267 226.41 693.889 225.826 693.625 225.167C693.368 224.507 693.24 223.809 693.24 223.073V222.677C693.24 221.851 693.354 221.087 693.583 220.385C693.812 219.677 694.153 219.059 694.604 218.531C695.056 218.003 695.622 217.594 696.302 217.302C696.983 217.003 697.774 216.854 698.677 216.854C699.476 216.854 700.191 216.983 700.823 217.24C701.455 217.497 701.99 217.865 702.427 218.344C702.872 218.823 703.208 219.403 703.437 220.083C703.674 220.764 703.792 221.528 703.792 222.375V223.802H694.583V221.604H700.365V221.333C700.372 220.958 700.306 220.639 700.167 220.375C700.035 220.111 699.84 219.91 699.583 219.771C699.326 219.632 699.014 219.562 698.646 219.562C698.264 219.562 697.948 219.646 697.698 219.812C697.455 219.979 697.264 220.208 697.125 220.5C696.993 220.785 696.899 221.115 696.844 221.49C696.788 221.865 696.76 222.26 696.76 222.677V223.073C696.76 223.49 696.816 223.868 696.927 224.208C697.045 224.549 697.212 224.84 697.427 225.083C697.649 225.319 697.913 225.503 698.219 225.635C698.531 225.767 698.885 225.833 699.281 225.833C699.76 225.833 700.233 225.743 700.698 225.562C701.163 225.382 701.562 225.083 701.896 224.667L703.49 226.562C703.26 226.889 702.934 227.205 702.51 227.51C702.094 227.816 701.594 228.066 701.01 228.26C700.427 228.448 699.774 228.542 699.052 228.542ZM708.927 212.333V228.333H705.406V212.333H708.927Z" fill="white"/>
<rect x="803" y="196.333" width="208" height="49.3333" rx="4.66667" fill="#888888" stroke="#888888" stroke-width="4"/>
<path d="M845.979 213.167H851.948C853.115 213.167 854.128 213.34 854.99 213.687C855.851 214.035 856.514 214.549 856.979 215.229C857.451 215.91 857.687 216.75 857.687 217.75C857.687 218.618 857.552 219.344 857.281 219.927C857.01 220.51 856.632 220.993 856.146 221.375C855.667 221.75 855.108 222.059 854.469 222.302L853.271 222.979H848.26L848.24 220.156H851.948C852.413 220.156 852.799 220.073 853.104 219.906C853.41 219.74 853.639 219.503 853.792 219.198C853.951 218.885 854.031 218.514 854.031 218.083C854.031 217.646 853.951 217.271 853.792 216.958C853.632 216.646 853.396 216.406 853.083 216.24C852.778 216.073 852.399 215.99 851.948 215.99H849.635V228.333H845.979V213.167ZM854.281 228.333L850.927 221.625L854.802 221.604L858.198 228.177V228.333H854.281ZM865.583 225.5V220.854C865.583 220.535 865.538 220.26 865.448 220.031C865.358 219.802 865.215 219.625 865.021 219.5C864.826 219.368 864.566 219.302 864.24 219.302C863.976 219.302 863.75 219.347 863.562 219.437C863.375 219.528 863.233 219.663 863.135 219.844C863.038 220.024 862.99 220.253 862.99 220.531H859.479C859.479 220.01 859.594 219.528 859.823 219.083C860.059 218.632 860.392 218.24 860.823 217.906C861.26 217.573 861.781 217.316 862.385 217.135C862.997 216.948 863.677 216.854 864.427 216.854C865.323 216.854 866.122 217.003 866.823 217.302C867.531 217.601 868.09 218.049 868.5 218.646C868.91 219.236 869.115 219.979 869.115 220.875V225.49C869.115 226.226 869.156 226.785 869.24 227.167C869.323 227.542 869.441 227.872 869.594 228.156V228.333H866.073C865.906 227.986 865.781 227.562 865.698 227.062C865.622 226.556 865.583 226.035 865.583 225.5ZM866.01 221.448L866.031 223.323H864.479C864.153 223.323 863.875 223.368 863.646 223.458C863.424 223.549 863.243 223.674 863.104 223.833C862.972 223.986 862.875 224.16 862.812 224.354C862.757 224.549 862.729 224.753 862.729 224.969C862.729 225.177 862.778 225.365 862.875 225.531C862.979 225.691 863.118 225.816 863.292 225.906C863.465 225.997 863.66 226.042 863.875 226.042C864.264 226.042 864.594 225.969 864.865 225.823C865.142 225.67 865.354 225.486 865.5 225.271C865.646 225.056 865.719 224.854 865.719 224.667L866.49 226.104C866.351 226.382 866.191 226.663 866.01 226.948C865.837 227.233 865.618 227.497 865.354 227.74C865.097 227.976 864.781 228.17 864.406 228.323C864.031 228.469 863.576 228.542 863.042 228.542C862.347 228.542 861.708 228.399 861.125 228.115C860.549 227.83 860.087 227.434 859.74 226.927C859.392 226.413 859.219 225.823 859.219 225.156C859.219 224.573 859.323 224.052 859.531 223.594C859.747 223.135 860.069 222.747 860.5 222.427C860.931 222.108 861.479 221.865 862.146 221.698C862.812 221.531 863.597 221.448 864.5 221.448H866.01ZM876.969 225.167C876.969 224.972 876.903 224.806 876.771 224.667C876.646 224.521 876.424 224.389 876.104 224.271C875.785 224.146 875.337 224.021 874.76 223.896C874.212 223.778 873.694 223.622 873.208 223.427C872.729 223.233 872.309 222.997 871.948 222.719C871.587 222.441 871.302 222.111 871.094 221.729C870.892 221.347 870.792 220.91 870.792 220.417C870.792 219.937 870.892 219.486 871.094 219.062C871.302 218.632 871.604 218.253 872 217.927C872.403 217.594 872.892 217.333 873.469 217.146C874.045 216.951 874.701 216.854 875.437 216.854C876.451 216.854 877.326 217.01 878.062 217.323C878.799 217.628 879.365 218.059 879.76 218.615C880.163 219.163 880.365 219.799 880.365 220.521H876.854C876.854 220.236 876.806 219.993 876.708 219.792C876.618 219.59 876.469 219.437 876.26 219.333C876.052 219.222 875.774 219.167 875.427 219.167C875.184 219.167 874.962 219.212 874.76 219.302C874.566 219.392 874.41 219.517 874.292 219.677C874.174 219.837 874.115 220.024 874.115 220.24C874.115 220.392 874.149 220.531 874.219 220.656C874.295 220.774 874.41 220.885 874.562 220.99C874.715 221.087 874.91 221.177 875.146 221.26C875.382 221.337 875.667 221.406 876 221.469C876.757 221.608 877.465 221.806 878.125 222.062C878.785 222.319 879.319 222.684 879.729 223.156C880.146 223.628 880.354 224.264 880.354 225.062C880.354 225.562 880.24 226.024 880.01 226.448C879.781 226.865 879.451 227.233 879.021 227.552C878.59 227.865 878.073 228.108 877.469 228.281C876.865 228.455 876.184 228.542 875.427 228.542C874.351 228.542 873.441 228.351 872.698 227.969C871.955 227.58 871.392 227.094 871.01 226.51C870.635 225.92 870.448 225.323 870.448 224.719H873.719C873.733 225.066 873.816 225.351 873.969 225.573C874.128 225.795 874.34 225.958 874.604 226.062C874.868 226.167 875.174 226.219 875.521 226.219C875.84 226.219 876.104 226.174 876.312 226.083C876.528 225.993 876.691 225.872 876.802 225.719C876.913 225.559 876.969 225.375 876.969 225.167ZM885.542 219.229V232.667H882.031V217.062H885.302L885.542 219.229ZM892.458 222.562V222.781C892.458 223.601 892.365 224.361 892.177 225.062C891.99 225.764 891.712 226.375 891.344 226.896C890.976 227.417 890.517 227.823 889.969 228.115C889.427 228.399 888.799 228.542 888.083 228.542C887.41 228.542 886.83 228.392 886.344 228.094C885.858 227.795 885.451 227.382 885.125 226.854C884.799 226.326 884.535 225.722 884.333 225.042C884.132 224.361 883.972 223.642 883.854 222.885V222.604C883.972 221.792 884.132 221.038 884.333 220.344C884.535 219.642 884.799 219.031 885.125 218.51C885.451 217.99 885.854 217.583 886.333 217.292C886.819 217 887.399 216.854 888.073 216.854C888.788 216.854 889.417 216.99 889.958 217.26C890.507 217.531 890.965 217.92 891.333 218.427C891.708 218.927 891.99 219.528 892.177 220.229C892.365 220.931 892.458 221.708 892.458 222.562ZM888.948 222.781V222.562C888.948 222.125 888.917 221.726 888.854 221.365C888.792 220.997 888.691 220.677 888.552 220.406C888.42 220.135 888.243 219.927 888.021 219.781C887.799 219.635 887.524 219.562 887.198 219.562C886.823 219.562 886.507 219.622 886.25 219.74C886 219.851 885.799 220.024 885.646 220.26C885.5 220.49 885.396 220.778 885.333 221.125C885.278 221.465 885.253 221.865 885.26 222.323V223.177C885.247 223.705 885.299 224.17 885.417 224.573C885.535 224.969 885.74 225.278 886.031 225.5C886.323 225.722 886.719 225.833 887.219 225.833C887.552 225.833 887.83 225.757 888.052 225.604C888.274 225.444 888.451 225.226 888.583 224.948C888.715 224.663 888.809 224.337 888.865 223.969C888.92 223.601 888.948 223.205 888.948 222.781ZM894.052 212.333H897.563V225.562L897.198 228.333H894.052V212.333ZM904.479 222.573V222.792C904.479 223.646 904.392 224.424 904.219 225.125C904.045 225.826 903.778 226.434 903.417 226.948C903.056 227.455 902.601 227.847 902.052 228.125C901.503 228.403 900.854 228.542 900.104 228.542C899.424 228.542 898.84 228.396 898.354 228.104C897.868 227.806 897.462 227.396 897.135 226.875C896.809 226.347 896.545 225.74 896.344 225.052C896.142 224.358 895.983 223.615 895.865 222.823V222.562C895.983 221.778 896.142 221.042 896.344 220.354C896.545 219.66 896.809 219.052 897.135 218.531C897.462 218.003 897.865 217.594 898.344 217.302C898.83 217.003 899.41 216.854 900.083 216.854C900.84 216.854 901.493 216.997 902.042 217.281C902.597 217.566 903.056 217.965 903.417 218.479C903.778 218.993 904.045 219.597 904.219 220.292C904.392 220.986 904.479 221.747 904.479 222.573ZM900.969 222.792V222.573C900.969 222.163 900.944 221.778 900.896 221.417C900.847 221.056 900.76 220.736 900.635 220.458C900.51 220.181 900.333 219.962 900.104 219.802C899.875 219.642 899.576 219.562 899.208 219.562C898.833 219.562 898.517 219.625 898.26 219.75C898.01 219.875 897.809 220.056 897.656 220.292C897.51 220.521 897.406 220.806 897.344 221.146C897.281 221.479 897.253 221.858 897.26 222.281V223.104C897.247 223.681 897.299 224.174 897.417 224.583C897.535 224.993 897.74 225.306 898.031 225.521C898.323 225.736 898.722 225.844 899.229 225.844C899.604 225.844 899.906 225.771 900.135 225.625C900.372 225.479 900.549 225.271 900.667 225C900.785 224.729 900.865 224.406 900.906 224.031C900.948 223.656 900.969 223.243 900.969 222.792ZM911.5 228.542C910.583 228.542 909.764 228.399 909.042 228.115C908.319 227.823 907.708 227.424 907.208 226.917C906.715 226.41 906.337 225.826 906.073 225.167C905.816 224.507 905.687 223.809 905.687 223.073V222.677C905.687 221.851 905.802 221.087 906.031 220.385C906.26 219.677 906.601 219.059 907.052 218.531C907.503 218.003 908.069 217.594 908.75 217.302C909.431 217.003 910.222 216.854 911.125 216.854C911.924 216.854 912.639 216.983 913.271 217.24C913.903 217.497 914.437 217.865 914.875 218.344C915.319 218.823 915.656 219.403 915.885 220.083C916.122 220.764 916.24 221.528 916.24 222.375V223.802H907.031V221.604H912.812V221.333C912.819 220.958 912.753 220.639 912.615 220.375C912.483 220.111 912.288 219.91 912.031 219.771C911.774 219.632 911.462 219.562 911.094 219.562C910.712 219.562 910.396 219.646 910.146 219.812C909.903 219.979 909.712 220.208 909.573 220.5C909.441 220.785 909.347 221.115 909.292 221.49C909.236 221.865 909.208 222.26 909.208 222.677V223.073C909.208 223.49 909.264 223.868 909.375 224.208C909.493 224.549 909.66 224.84 909.875 225.083C910.097 225.319 910.361 225.503 910.667 225.635C910.979 225.767 911.333 225.833 911.729 225.833C912.208 225.833 912.681 225.743 913.146 225.562C913.611 225.382 914.01 225.083 914.344 224.667L915.937 226.562C915.708 226.889 915.382 227.205 914.958 227.51C914.542 227.816 914.042 228.066 913.458 228.26C912.875 228.448 912.222 228.542 911.5 228.542ZM921.208 219.854V228.333H917.698V217.062H920.979L921.208 219.854ZM924.542 216.979L924.479 220.24C924.34 220.226 924.153 220.208 923.917 220.187C923.681 220.167 923.483 220.156 923.323 220.156C922.913 220.156 922.559 220.205 922.26 220.302C921.969 220.392 921.726 220.531 921.531 220.719C921.344 220.899 921.205 221.128 921.115 221.406C921.031 221.684 920.993 222.007 921 222.375L920.365 221.958C920.365 221.201 920.438 220.514 920.583 219.896C920.736 219.271 920.951 218.733 921.229 218.281C921.507 217.823 921.844 217.472 922.24 217.229C922.635 216.979 923.08 216.854 923.573 216.854C923.747 216.854 923.917 216.865 924.083 216.885C924.257 216.906 924.41 216.937 924.542 216.979ZM929.292 219.854V228.333H925.781V217.062H929.062L929.292 219.854ZM932.625 216.979L932.562 220.24C932.424 220.226 932.236 220.208 932 220.187C931.764 220.167 931.566 220.156 931.406 220.156C930.997 220.156 930.642 220.205 930.344 220.302C930.052 220.392 929.809 220.531 929.615 220.719C929.427 220.899 929.288 221.128 929.198 221.406C929.115 221.684 929.076 222.007 929.083 222.375L928.448 221.958C928.448 221.201 928.521 220.514 928.667 219.896C928.819 219.271 929.035 218.733 929.312 218.281C929.59 217.823 929.927 217.472 930.323 217.229C930.719 216.979 931.163 216.854 931.656 216.854C931.83 216.854 932 216.865 932.167 216.885C932.34 216.906 932.493 216.937 932.625 216.979ZM937.479 227.01L940.396 217.062H944.167L939.635 230.01C939.538 230.295 939.41 230.601 939.25 230.927C939.09 231.26 938.872 231.576 938.594 231.875C938.316 232.174 937.958 232.417 937.521 232.604C937.09 232.792 936.556 232.885 935.917 232.885C935.576 232.885 935.326 232.868 935.167 232.833C935.014 232.806 934.778 232.753 934.458 232.677V230.167C934.549 230.167 934.625 230.167 934.688 230.167C934.757 230.167 934.833 230.167 934.917 230.167C935.292 230.167 935.59 230.128 935.813 230.052C936.042 229.976 936.215 229.865 936.333 229.719C936.458 229.573 936.556 229.396 936.625 229.187L937.479 227.01ZM936.74 217.062L938.958 224.948L939.344 228.667H936.99L932.979 217.062H936.74ZM956.615 223.187H952.844V220.365H956.615C957.128 220.365 957.545 220.278 957.865 220.104C958.184 219.931 958.417 219.691 958.563 219.385C958.715 219.073 958.792 218.722 958.792 218.333C958.792 217.917 958.715 217.531 958.563 217.177C958.417 216.823 958.184 216.538 957.865 216.323C957.545 216.101 957.128 215.99 956.615 215.99H954.219V228.333H950.563V213.167H956.615C957.83 213.167 958.875 213.389 959.75 213.833C960.632 214.278 961.309 214.889 961.781 215.667C962.253 216.437 962.49 217.319 962.49 218.312C962.49 219.292 962.253 220.146 961.781 220.875C961.309 221.604 960.632 222.174 959.75 222.583C958.875 222.986 957.83 223.187 956.615 223.187ZM968 217.062V228.333H964.479V217.062H968ZM964.271 214.156C964.271 213.656 964.451 213.247 964.813 212.927C965.174 212.608 965.642 212.448 966.219 212.448C966.795 212.448 967.264 212.608 967.625 212.927C967.986 213.247 968.167 213.656 968.167 214.156C968.167 214.656 967.986 215.066 967.625 215.385C967.264 215.705 966.795 215.865 966.219 215.865C965.642 215.865 965.174 215.705 964.813 215.385C964.451 215.066 964.271 214.656 964.271 214.156Z" fill="white"/>
</svg>
