<svg width="1363" height="167" viewBox="0 0 1363 167" fill="none" xmlns="http://www.w3.org/2000/svg">
<rect width="1363" height="167" rx="15" fill="#F0F0F0"/>
<path d="M0 15C0 6.71573 6.71573 0 15 0H37V167H15C6.71573 167 0 160.284 0 152V15Z" fill="#424241"/>
<path d="M100.906 50.9219L93.3945 48.2383V45.0859L103.602 49.375V51.6367L100.906 50.9219ZM93.3945 53.1719L100.918 50.4297L103.602 49.7852V52.0352L93.3945 56.3242V53.1719ZM118.543 51.918H114.195V49.1758H118.543C119.215 49.1758 119.762 49.0664 120.184 48.8477C120.605 48.6211 120.914 48.3086 121.109 47.9102C121.305 47.5117 121.402 47.0625 121.402 46.5625C121.402 46.0547 121.305 45.582 121.109 45.1445C120.914 44.707 120.605 44.3555 120.184 44.0898C119.762 43.8242 119.215 43.6914 118.543 43.6914H115.414V58H111.898V40.9375H118.543C119.879 40.9375 121.023 41.1797 121.977 41.6641C122.938 42.1406 123.672 42.8008 124.18 43.6445C124.688 44.4883 124.941 45.4531 124.941 46.5391C124.941 47.6406 124.688 48.5938 124.18 49.3984C123.672 50.2031 122.938 50.8242 121.977 51.2617C121.023 51.6992 119.879 51.918 118.543 51.918ZM133.859 55.1406V49.4922C133.859 49.0859 133.793 48.7383 133.66 48.4492C133.527 48.1523 133.32 47.9219 133.039 47.7578C132.766 47.5938 132.41 47.5117 131.973 47.5117C131.598 47.5117 131.273 47.5781 131 47.7109C130.727 47.8359 130.516 48.0195 130.367 48.2617C130.219 48.4961 130.145 48.7734 130.145 49.0938H126.77C126.77 48.5547 126.895 48.043 127.145 47.5586C127.395 47.0742 127.758 46.6484 128.234 46.2812C128.711 45.9062 129.277 45.6133 129.934 45.4023C130.598 45.1914 131.34 45.0859 132.16 45.0859C133.145 45.0859 134.02 45.25 134.785 45.5781C135.551 45.9062 136.152 46.3984 136.59 47.0547C137.035 47.7109 137.258 48.5312 137.258 49.5156V54.9414C137.258 55.6367 137.301 56.207 137.387 56.6523C137.473 57.0898 137.598 57.4727 137.762 57.8008V58H134.352C134.188 57.6562 134.062 57.2266 133.977 56.7109C133.898 56.1875 133.859 55.6641 133.859 55.1406ZM134.305 50.2773L134.328 52.1875H132.441C131.996 52.1875 131.609 52.2383 131.281 52.3398C130.953 52.4414 130.684 52.5859 130.473 52.7734C130.262 52.9531 130.105 53.1641 130.004 53.4062C129.91 53.6484 129.863 53.9141 129.863 54.2031C129.863 54.4922 129.93 54.7539 130.062 54.9883C130.195 55.2148 130.387 55.3945 130.637 55.5273C130.887 55.6523 131.18 55.7148 131.516 55.7148C132.023 55.7148 132.465 55.6133 132.84 55.4102C133.215 55.207 133.504 54.957 133.707 54.6602C133.918 54.3633 134.027 54.082 134.035 53.8164L134.926 55.2461C134.801 55.5664 134.629 55.8984 134.41 56.2422C134.199 56.5859 133.93 56.9102 133.602 57.2148C133.273 57.5117 132.879 57.7578 132.418 57.9531C131.957 58.1406 131.41 58.2344 130.777 58.2344C129.973 58.2344 129.242 58.0742 128.586 57.7539C127.938 57.4258 127.422 56.9766 127.039 56.4062C126.664 55.8281 126.477 55.1719 126.477 54.4375C126.477 53.7734 126.602 53.1836 126.852 52.668C127.102 52.1523 127.469 51.7188 127.953 51.3672C128.445 51.0078 129.059 50.7383 129.793 50.5586C130.527 50.3711 131.379 50.2773 132.348 50.2773H134.305ZM143.234 48.0859V58H139.859V45.3203H143.035L143.234 48.0859ZM147.055 45.2383L146.996 48.3672C146.832 48.3438 146.633 48.3242 146.398 48.3086C146.172 48.2852 145.965 48.2734 145.777 48.2734C145.301 48.2734 144.887 48.3359 144.535 48.4609C144.191 48.5781 143.902 48.7539 143.668 48.9883C143.441 49.2227 143.27 49.5078 143.152 49.8438C143.043 50.1797 142.98 50.5625 142.965 50.9922L142.285 50.7812C142.285 49.9609 142.367 49.207 142.531 48.5195C142.695 47.8242 142.934 47.2188 143.246 46.7031C143.566 46.1875 143.957 45.7891 144.418 45.5078C144.879 45.2266 145.406 45.0859 146 45.0859C146.188 45.0859 146.379 45.1016 146.574 45.1328C146.77 45.1562 146.93 45.1914 147.055 45.2383ZM152.023 39.9883V58H148.648V39.9883H152.023ZM160.016 45.3203L154.508 51.6016L151.555 54.5898L150.324 52.1523L152.668 49.1758L155.961 45.3203H160.016ZM156.512 58L152.762 52.1406L155.094 50.1016L160.402 58H156.512ZM165.031 45.3203V58H161.645V45.3203H165.031ZM161.434 42.0156C161.434 41.5234 161.605 41.1172 161.949 40.7969C162.293 40.4766 162.754 40.3164 163.332 40.3164C163.902 40.3164 164.359 40.4766 164.703 40.7969C165.055 41.1172 165.23 41.5234 165.23 42.0156C165.23 42.5078 165.055 42.9141 164.703 43.2344C164.359 43.5547 163.902 43.7148 163.332 43.7148C162.754 43.7148 162.293 43.5547 161.949 43.2344C161.605 42.9141 161.434 42.5078 161.434 42.0156ZM171.125 48.0273V58H167.75V45.3203H170.914L171.125 48.0273ZM170.633 51.2148H169.719C169.719 50.2773 169.84 49.4336 170.082 48.6836C170.324 47.9258 170.664 47.2812 171.102 46.75C171.539 46.2109 172.059 45.8008 172.66 45.5195C173.27 45.2305 173.949 45.0859 174.699 45.0859C175.293 45.0859 175.836 45.1719 176.328 45.3438C176.82 45.5156 177.242 45.7891 177.594 46.1641C177.953 46.5391 178.227 47.0352 178.414 47.6523C178.609 48.2695 178.707 49.0234 178.707 49.9141V58H175.309V49.9023C175.309 49.3398 175.23 48.9023 175.074 48.5898C174.918 48.2773 174.688 48.0586 174.383 47.9336C174.086 47.8008 173.719 47.7344 173.281 47.7344C172.828 47.7344 172.434 47.8242 172.098 48.0039C171.77 48.1836 171.496 48.4336 171.277 48.7539C171.066 49.0664 170.906 49.4336 170.797 49.8555C170.688 50.2773 170.633 50.7305 170.633 51.2148ZM189.301 45.3203H192.359V57.5781C192.359 58.7344 192.102 59.7148 191.586 60.5195C191.078 61.332 190.367 61.9453 189.453 62.3594C188.539 62.7812 187.477 62.9922 186.266 62.9922C185.734 62.9922 185.172 62.9219 184.578 62.7812C183.992 62.6406 183.43 62.4219 182.891 62.125C182.359 61.8281 181.914 61.4531 181.555 61L183.043 59.0078C183.434 59.4609 183.887 59.8125 184.402 60.0625C184.918 60.3203 185.488 60.4492 186.113 60.4492C186.723 60.4492 187.238 60.3359 187.66 60.1094C188.082 59.8906 188.406 59.5664 188.633 59.1367C188.859 58.7148 188.973 58.2031 188.973 57.6016V48.25L189.301 45.3203ZM180.77 51.8125V51.5664C180.77 50.5977 180.887 49.7188 181.121 48.9297C181.363 48.1328 181.703 47.4492 182.141 46.8789C182.586 46.3086 183.125 45.8672 183.758 45.5547C184.391 45.2422 185.105 45.0859 185.902 45.0859C186.746 45.0859 187.453 45.2422 188.023 45.5547C188.594 45.8672 189.062 46.3125 189.43 46.8906C189.797 47.4609 190.082 48.1367 190.285 48.918C190.496 49.6914 190.66 50.5391 190.777 51.4609V52C190.66 52.8828 190.484 53.7031 190.25 54.4609C190.016 55.2188 189.707 55.8828 189.324 56.4531C188.941 57.0156 188.465 57.4531 187.895 57.7656C187.332 58.0781 186.66 58.2344 185.879 58.2344C185.098 58.2344 184.391 58.0742 183.758 57.7539C183.133 57.4336 182.598 56.9844 182.152 56.4062C181.707 55.8281 181.363 55.1484 181.121 54.3672C180.887 53.5859 180.77 52.7344 180.77 51.8125ZM184.145 51.5664V51.8125C184.145 52.3359 184.195 52.8242 184.297 53.2773C184.398 53.7305 184.555 54.1328 184.766 54.4844C184.984 54.8281 185.254 55.0977 185.574 55.293C185.902 55.4805 186.289 55.5742 186.734 55.5742C187.352 55.5742 187.855 55.4453 188.246 55.1875C188.637 54.9219 188.93 54.5586 189.125 54.0977C189.32 53.6367 189.434 53.1055 189.465 52.5039V50.9688C189.449 50.4766 189.383 50.0352 189.266 49.6445C189.148 49.2461 188.984 48.9062 188.773 48.625C188.562 48.3438 188.289 48.125 187.953 47.9688C187.617 47.8125 187.219 47.7344 186.758 47.7344C186.312 47.7344 185.926 47.8359 185.598 48.0391C185.277 48.2344 185.008 48.5039 184.789 48.8477C184.578 49.1914 184.418 49.5977 184.309 50.0664C184.199 50.5273 184.145 51.0273 184.145 51.5664ZM204.688 40.9375V58H201.172V40.9375H204.688ZM211.484 48.2266V50.9688H203.727V48.2266H211.484ZM212.305 40.9375V43.6914H203.727V40.9375H212.305ZM217.695 45.3203V58H214.309V45.3203H217.695ZM214.098 42.0156C214.098 41.5234 214.27 41.1172 214.613 40.7969C214.957 40.4766 215.418 40.3164 215.996 40.3164C216.566 40.3164 217.023 40.4766 217.367 40.7969C217.719 41.1172 217.895 41.5234 217.895 42.0156C217.895 42.5078 217.719 42.9141 217.367 43.2344C217.023 43.5547 216.566 43.7148 215.996 43.7148C215.418 43.7148 214.957 43.5547 214.613 43.2344C214.27 42.9141 214.098 42.5078 214.098 42.0156ZM223.789 48.0273V58H220.414V45.3203H223.578L223.789 48.0273ZM223.297 51.2148H222.383C222.383 50.2773 222.504 49.4336 222.746 48.6836C222.988 47.9258 223.328 47.2812 223.766 46.75C224.203 46.2109 224.723 45.8008 225.324 45.5195C225.934 45.2305 226.613 45.0859 227.363 45.0859C227.957 45.0859 228.5 45.1719 228.992 45.3438C229.484 45.5156 229.906 45.7891 230.258 46.1641C230.617 46.5391 230.891 47.0352 231.078 47.6523C231.273 48.2695 231.371 49.0234 231.371 49.9141V58H227.973V49.9023C227.973 49.3398 227.895 48.9023 227.738 48.5898C227.582 48.2773 227.352 48.0586 227.047 47.9336C226.75 47.8008 226.383 47.7344 225.945 47.7344C225.492 47.7344 225.098 47.8242 224.762 48.0039C224.434 48.1836 224.16 48.4336 223.941 48.7539C223.73 49.0664 223.57 49.4336 223.461 49.8555C223.352 50.2773 223.297 50.7305 223.297 51.2148ZM241.426 55.2344V40H244.824V58H241.766L241.426 55.2344ZM233.41 51.8125V51.5664C233.41 50.5977 233.52 49.7188 233.738 48.9297C233.957 48.1328 234.277 47.4492 234.699 46.8789C235.121 46.3086 235.641 45.8672 236.258 45.5547C236.875 45.2422 237.578 45.0859 238.367 45.0859C239.109 45.0859 239.758 45.2422 240.312 45.5547C240.875 45.8672 241.352 46.3125 241.742 46.8906C242.141 47.4609 242.461 48.1367 242.703 48.918C242.945 49.6914 243.121 50.5391 243.23 51.4609V52C243.121 52.8828 242.945 53.7031 242.703 54.4609C242.461 55.2188 242.141 55.8828 241.742 56.4531C241.352 57.0156 240.875 57.4531 240.312 57.7656C239.75 58.0781 239.094 58.2344 238.344 58.2344C237.555 58.2344 236.852 58.0742 236.234 57.7539C235.625 57.4336 235.109 56.9844 234.688 56.4062C234.273 55.8281 233.957 55.1484 233.738 54.3672C233.52 53.5859 233.41 52.7344 233.41 51.8125ZM236.785 51.5664V51.8125C236.785 52.3359 236.824 52.8242 236.902 53.2773C236.988 53.7305 237.125 54.1328 237.312 54.4844C237.508 54.8281 237.758 55.0977 238.062 55.293C238.375 55.4805 238.754 55.5742 239.199 55.5742C239.777 55.5742 240.254 55.4453 240.629 55.1875C241.004 54.9219 241.289 54.5586 241.484 54.0977C241.688 53.6367 241.805 53.1055 241.836 52.5039V50.9688C241.812 50.4766 241.742 50.0352 241.625 49.6445C241.516 49.2461 241.352 48.9062 241.133 48.625C240.922 48.3438 240.656 48.125 240.336 47.9688C240.023 47.8125 239.652 47.7344 239.223 47.7344C238.785 47.7344 238.41 47.8359 238.098 48.0391C237.785 48.2344 237.531 48.5039 237.336 48.8477C237.148 49.1914 237.008 49.5977 236.914 50.0664C236.828 50.5273 236.785 51.0273 236.785 51.5664ZM253.297 58.2344C252.312 58.2344 251.43 58.0781 250.648 57.7656C249.867 57.4453 249.203 57.0039 248.656 56.4414C248.117 55.8789 247.703 55.2266 247.414 54.4844C247.125 53.7344 246.98 52.9375 246.98 52.0938V51.625C246.98 50.6641 247.117 49.7852 247.391 48.9883C247.664 48.1914 248.055 47.5 248.562 46.9141C249.078 46.3281 249.703 45.8789 250.438 45.5664C251.172 45.2461 252 45.0859 252.922 45.0859C253.82 45.0859 254.617 45.2344 255.312 45.5312C256.008 45.8281 256.59 46.25 257.059 46.7969C257.535 47.3438 257.895 48 258.137 48.7656C258.379 49.5234 258.5 50.3672 258.5 51.2969V52.7031H248.422V50.4531H255.184V50.1953C255.184 49.7266 255.098 49.3086 254.926 48.9414C254.762 48.5664 254.512 48.2695 254.176 48.0508C253.84 47.832 253.41 47.7227 252.887 47.7227C252.441 47.7227 252.059 47.8203 251.738 48.0156C251.418 48.2109 251.156 48.4844 250.953 48.8359C250.758 49.1875 250.609 49.6016 250.508 50.0781C250.414 50.5469 250.367 51.0625 250.367 51.625V52.0938C250.367 52.6016 250.438 53.0703 250.578 53.5C250.727 53.9297 250.934 54.3008 251.199 54.6133C251.473 54.9258 251.801 55.168 252.184 55.3398C252.574 55.5117 253.016 55.5977 253.508 55.5977C254.117 55.5977 254.684 55.4805 255.207 55.2461C255.738 55.0039 256.195 54.6406 256.578 54.1562L258.219 55.9375C257.953 56.3203 257.59 56.6875 257.129 57.0391C256.676 57.3906 256.129 57.6797 255.488 57.9062C254.848 58.125 254.117 58.2344 253.297 58.2344ZM263.797 48.0859V58H260.422V45.3203H263.598L263.797 48.0859ZM267.617 45.2383L267.559 48.3672C267.395 48.3438 267.195 48.3242 266.961 48.3086C266.734 48.2852 266.527 48.2734 266.34 48.2734C265.863 48.2734 265.449 48.3359 265.098 48.4609C264.754 48.5781 264.465 48.7539 264.23 48.9883C264.004 49.2227 263.832 49.5078 263.715 49.8438C263.605 50.1797 263.543 50.5625 263.527 50.9922L262.848 50.7812C262.848 49.9609 262.93 49.207 263.094 48.5195C263.258 47.8242 263.496 47.2188 263.809 46.7031C264.129 46.1875 264.52 45.7891 264.98 45.5078C265.441 45.2266 265.969 45.0859 266.562 45.0859C266.75 45.0859 266.941 45.1016 267.137 45.1328C267.332 45.1562 267.492 45.1914 267.617 45.2383Z" fill="#888888"/>
<path d="M107.205 107.146H99.251V101.191H107.205C108.289 101.191 109.168 101.008 109.842 100.642C110.516 100.275 111.006 99.77 111.314 99.1255C111.636 98.4663 111.797 97.7266 111.797 96.9062C111.797 96.0273 111.636 95.2144 111.314 94.4673C111.006 93.7202 110.516 93.1196 109.842 92.6655C109.168 92.1968 108.289 91.9624 107.205 91.9624H102.151V118H94.439V86.0078H107.205C109.769 86.0078 111.973 86.4766 113.819 87.4141C115.679 88.3516 117.107 89.6406 118.104 91.2812C119.1 92.9072 119.598 94.7676 119.598 96.8623C119.598 98.9277 119.1 100.729 118.104 102.268C117.107 103.806 115.679 105.007 113.819 105.871C111.973 106.721 109.769 107.146 107.205 107.146ZM130.87 100.114V118H123.465V94.2256H130.386L130.87 100.114ZM137.901 94.0498L137.769 100.927C137.476 100.898 137.081 100.861 136.583 100.817C136.084 100.773 135.667 100.751 135.33 100.751C134.466 100.751 133.719 100.854 133.089 101.059C132.474 101.25 131.961 101.542 131.551 101.938C131.155 102.319 130.862 102.802 130.672 103.388C130.496 103.974 130.416 104.655 130.43 105.432L129.09 104.553C129.09 102.956 129.244 101.506 129.551 100.202C129.874 98.8838 130.328 97.7485 130.914 96.7964C131.5 95.8296 132.21 95.0898 133.045 94.5771C133.88 94.0498 134.817 93.7861 135.857 93.7861C136.224 93.7861 136.583 93.8081 136.934 93.8521C137.3 93.896 137.623 93.9619 137.901 94.0498ZM138.736 106.354V105.893C138.736 104.15 138.985 102.546 139.483 101.081C139.981 99.6016 140.713 98.3198 141.68 97.2358C142.647 96.1519 143.841 95.3096 145.262 94.709C146.683 94.0938 148.323 93.7861 150.184 93.7861C152.059 93.7861 153.707 94.0938 155.127 94.709C156.563 95.3096 157.764 96.1519 158.731 97.2358C159.698 98.3198 160.43 99.6016 160.928 101.081C161.426 102.546 161.675 104.15 161.675 105.893V106.354C161.675 108.083 161.426 109.687 160.928 111.167C160.43 112.631 159.698 113.913 158.731 115.012C157.764 116.096 156.57 116.938 155.149 117.539C153.729 118.139 152.088 118.439 150.228 118.439C148.367 118.439 146.719 118.139 145.284 117.539C143.848 116.938 142.647 116.096 141.68 115.012C140.713 113.913 139.981 112.631 139.483 111.167C138.985 109.687 138.736 108.083 138.736 106.354ZM146.141 105.893V106.354C146.141 107.248 146.207 108.083 146.338 108.859C146.47 109.636 146.69 110.317 146.998 110.903C147.305 111.474 147.723 111.921 148.25 112.243C148.777 112.565 149.437 112.727 150.228 112.727C151.004 112.727 151.648 112.565 152.161 112.243C152.688 111.921 153.106 111.474 153.414 110.903C153.721 110.317 153.941 109.636 154.073 108.859C154.205 108.083 154.271 107.248 154.271 106.354V105.893C154.271 105.029 154.205 104.216 154.073 103.454C153.941 102.678 153.721 101.997 153.414 101.411C153.106 100.81 152.688 100.341 152.161 100.004C151.634 99.6675 150.975 99.499 150.184 99.499C149.407 99.499 148.755 99.6675 148.228 100.004C147.715 100.341 147.305 100.81 146.998 101.411C146.69 101.997 146.47 102.678 146.338 103.454C146.207 104.216 146.141 105.029 146.141 105.893ZM165.521 94.2256H172.947V118.769C172.947 120.673 172.581 122.277 171.849 123.581C171.116 124.899 170.069 125.896 168.707 126.569C167.344 127.258 165.718 127.602 163.829 127.602C163.199 127.602 162.62 127.573 162.093 127.514C161.551 127.47 160.958 127.375 160.313 127.229V121.625C160.694 121.684 161.045 121.728 161.368 121.757C161.69 121.801 162.042 121.823 162.422 121.823C163.096 121.823 163.66 121.713 164.114 121.494C164.568 121.274 164.913 120.937 165.147 120.483C165.396 120.029 165.521 119.458 165.521 118.769V94.2256ZM164.971 88.0952C164.971 87.0405 165.352 86.1763 166.114 85.5024C166.875 84.8286 167.864 84.4917 169.08 84.4917C170.296 84.4917 171.285 84.8286 172.046 85.5024C172.808 86.1763 173.189 87.0405 173.189 88.0952C173.189 89.1499 172.808 90.0142 172.046 90.688C171.285 91.3618 170.296 91.6987 169.08 91.6987C167.864 91.6987 166.875 91.3618 166.114 90.688C165.352 90.0142 164.971 89.1499 164.971 88.0952ZM188.658 118.439C186.724 118.439 184.996 118.139 183.472 117.539C181.949 116.923 180.66 116.081 179.605 115.012C178.565 113.942 177.767 112.712 177.21 111.32C176.668 109.929 176.397 108.457 176.397 106.904V106.069C176.397 104.326 176.639 102.714 177.122 101.235C177.605 99.7407 178.323 98.437 179.275 97.3237C180.228 96.2104 181.421 95.3462 182.857 94.731C184.292 94.1011 185.962 93.7861 187.867 93.7861C189.551 93.7861 191.06 94.0571 192.393 94.5991C193.726 95.1411 194.854 95.9175 195.777 96.9282C196.714 97.939 197.425 99.1621 197.908 100.598C198.406 102.033 198.655 103.645 198.655 105.432V108.442H179.231V103.806H191.426V103.234C191.441 102.443 191.302 101.77 191.009 101.213C190.73 100.656 190.32 100.231 189.778 99.9385C189.236 99.6455 188.577 99.499 187.801 99.499C186.995 99.499 186.329 99.6748 185.801 100.026C185.289 100.378 184.886 100.861 184.593 101.477C184.314 102.077 184.117 102.773 184 103.564C183.882 104.355 183.824 105.19 183.824 106.069V106.904C183.824 107.783 183.941 108.581 184.175 109.299C184.424 110.017 184.776 110.632 185.23 111.145C185.699 111.643 186.255 112.031 186.9 112.309C187.559 112.587 188.306 112.727 189.141 112.727C190.152 112.727 191.148 112.536 192.129 112.155C193.111 111.774 193.953 111.145 194.656 110.266L198.018 114.265C197.535 114.953 196.846 115.62 195.953 116.264C195.074 116.909 194.019 117.436 192.789 117.846C191.558 118.242 190.181 118.439 188.658 118.439ZM211.707 112.727C212.396 112.727 212.981 112.602 213.465 112.353C213.963 112.089 214.336 111.723 214.585 111.254C214.849 110.771 214.974 110.192 214.959 109.519H221.924C221.939 111.306 221.5 112.873 220.606 114.221C219.727 115.554 218.526 116.594 217.002 117.341C215.494 118.073 213.787 118.439 211.883 118.439C210.022 118.439 208.396 118.139 207.005 117.539C205.613 116.923 204.449 116.074 203.511 114.99C202.588 113.891 201.893 112.609 201.424 111.145C200.97 109.68 200.743 108.09 200.743 106.376V105.871C200.743 104.157 200.97 102.568 201.424 101.103C201.893 99.6235 202.588 98.3418 203.511 97.2578C204.449 96.1592 205.606 95.3096 206.983 94.709C208.375 94.0938 209.993 93.7861 211.839 93.7861C213.816 93.7861 215.56 94.1597 217.068 94.9067C218.592 95.6538 219.786 96.7378 220.65 98.1587C221.514 99.5796 221.939 101.301 221.924 103.322H214.959C214.974 102.604 214.864 101.96 214.629 101.389C214.395 100.817 214.029 100.363 213.531 100.026C213.047 99.6748 212.425 99.499 211.663 99.499C210.901 99.499 210.286 99.6675 209.817 100.004C209.349 100.341 208.99 100.81 208.741 101.411C208.506 101.997 208.345 102.67 208.257 103.432C208.184 104.194 208.147 105.007 208.147 105.871V106.376C208.147 107.255 208.184 108.083 208.257 108.859C208.345 109.621 208.514 110.295 208.763 110.881C209.012 111.452 209.371 111.906 209.839 112.243C210.308 112.565 210.931 112.727 211.707 112.727ZM237.613 94.2256V99.3672H223.287V94.2256H237.613ZM226.297 88.3149H233.702V110.244C233.702 110.874 233.775 111.364 233.921 111.716C234.068 112.053 234.317 112.294 234.668 112.441C235.035 112.573 235.518 112.639 236.119 112.639C236.543 112.639 236.895 112.631 237.173 112.617C237.452 112.587 237.715 112.551 237.964 112.507V117.802C237.334 118.007 236.675 118.161 235.987 118.264C235.298 118.381 234.566 118.439 233.79 118.439C232.208 118.439 230.853 118.19 229.725 117.692C228.611 117.194 227.762 116.411 227.176 115.341C226.59 114.272 226.297 112.88 226.297 111.167V88.3149ZM264.881 107.146H256.927V101.191H264.881C265.965 101.191 266.844 101.008 267.518 100.642C268.191 100.275 268.682 99.77 268.99 99.1255C269.312 98.4663 269.473 97.7266 269.473 96.9062C269.473 96.0273 269.312 95.2144 268.99 94.4673C268.682 93.7202 268.191 93.1196 267.518 92.6655C266.844 92.1968 265.965 91.9624 264.881 91.9624H259.827V118H252.115V86.0078H264.881C267.444 86.0078 269.649 86.4766 271.495 87.4141C273.355 88.3516 274.783 89.6406 275.779 91.2812C276.775 92.9072 277.273 94.7676 277.273 96.8623C277.273 98.9277 276.775 100.729 275.779 102.268C274.783 103.806 273.355 105.007 271.495 105.871C269.649 106.721 267.444 107.146 264.881 107.146ZM288.326 84.25V118H280.921V84.25H288.326ZM287.447 105.3L285.711 105.344C285.711 103.674 285.916 102.136 286.326 100.729C286.736 99.3232 287.322 98.1001 288.084 97.0601C288.846 96.02 289.761 95.2144 290.831 94.6431C291.9 94.0718 293.086 93.7861 294.39 93.7861C295.562 93.7861 296.631 93.9546 297.598 94.2915C298.58 94.6284 299.422 95.1704 300.125 95.9175C300.843 96.6646 301.392 97.6387 301.773 98.8398C302.168 100.041 302.366 101.506 302.366 103.234V118H294.917V103.19C294.917 102.224 294.778 101.477 294.5 100.949C294.236 100.407 293.855 100.034 293.357 99.8286C292.859 99.6089 292.251 99.499 291.534 99.499C290.669 99.499 289.966 99.6455 289.424 99.9385C288.882 100.231 288.465 100.642 288.172 101.169C287.894 101.682 287.703 102.29 287.601 102.993C287.498 103.696 287.447 104.465 287.447 105.3ZM314.297 94.2256V118H306.871V94.2256H314.297ZM306.431 88.0952C306.431 87.0405 306.812 86.1763 307.574 85.5024C308.335 84.8286 309.324 84.4917 310.54 84.4917C311.756 84.4917 312.745 84.8286 313.506 85.5024C314.268 86.1763 314.649 87.0405 314.649 88.0952C314.649 89.1499 314.268 90.0142 313.506 90.688C312.745 91.3618 311.756 91.6987 310.54 91.6987C309.324 91.6987 308.335 91.3618 307.574 90.688C306.812 90.0142 306.431 89.1499 306.431 88.0952ZM326.69 84.25V118H319.263V84.25H326.69ZM330.337 106.354V105.893C330.337 104.15 330.586 102.546 331.084 101.081C331.583 99.6016 332.315 98.3198 333.282 97.2358C334.249 96.1519 335.442 95.3096 336.863 94.709C338.284 94.0938 339.925 93.7861 341.785 93.7861C343.66 93.7861 345.308 94.0938 346.729 94.709C348.165 95.3096 349.366 96.1519 350.333 97.2358C351.299 98.3198 352.032 99.6016 352.53 101.081C353.028 102.546 353.277 104.15 353.277 105.893V106.354C353.277 108.083 353.028 109.687 352.53 111.167C352.032 112.631 351.299 113.913 350.333 115.012C349.366 116.096 348.172 116.938 346.751 117.539C345.33 118.139 343.689 118.439 341.829 118.439C339.969 118.439 338.321 118.139 336.885 117.539C335.45 116.938 334.249 116.096 333.282 115.012C332.315 113.913 331.583 112.631 331.084 111.167C330.586 109.687 330.337 108.083 330.337 106.354ZM337.742 105.893V106.354C337.742 107.248 337.808 108.083 337.94 108.859C338.072 109.636 338.292 110.317 338.599 110.903C338.907 111.474 339.324 111.921 339.852 112.243C340.379 112.565 341.038 112.727 341.829 112.727C342.605 112.727 343.25 112.565 343.763 112.243C344.29 111.921 344.708 111.474 345.015 110.903C345.323 110.317 345.542 109.636 345.674 108.859C345.806 108.083 345.872 107.248 345.872 106.354V105.893C345.872 105.029 345.806 104.216 345.674 103.454C345.542 102.678 345.323 101.997 345.015 101.411C344.708 100.81 344.29 100.341 343.763 100.004C343.235 99.6675 342.576 99.499 341.785 99.499C341.009 99.499 340.357 99.6675 339.83 100.004C339.317 100.341 338.907 100.81 338.599 101.411C338.292 101.997 338.072 102.678 337.94 103.454C337.808 104.216 337.742 105.029 337.742 105.893ZM369.031 111.32C369.031 110.91 368.892 110.559 368.614 110.266C368.35 109.958 367.881 109.68 367.208 109.431C366.534 109.167 365.589 108.903 364.373 108.64C363.216 108.391 362.125 108.061 361.099 107.651C360.088 107.241 359.202 106.743 358.44 106.157C357.679 105.571 357.078 104.875 356.639 104.069C356.214 103.264 356.001 102.341 356.001 101.301C356.001 100.29 356.214 99.3379 356.639 98.4443C357.078 97.5361 357.715 96.7378 358.55 96.0493C359.4 95.3462 360.433 94.7969 361.648 94.4014C362.864 93.9912 364.249 93.7861 365.801 93.7861C367.94 93.7861 369.786 94.1157 371.338 94.7749C372.891 95.4194 374.085 96.3276 374.92 97.4995C375.77 98.6567 376.194 99.9971 376.194 101.521H368.79C368.79 100.92 368.687 100.407 368.482 99.9824C368.292 99.5576 367.977 99.2354 367.537 99.0156C367.098 98.7812 366.512 98.6641 365.779 98.6641C365.267 98.6641 364.798 98.7593 364.373 98.9497C363.963 99.1401 363.633 99.4038 363.384 99.7407C363.135 100.078 363.011 100.473 363.011 100.927C363.011 101.25 363.084 101.542 363.23 101.806C363.392 102.055 363.633 102.29 363.956 102.509C364.278 102.714 364.688 102.905 365.186 103.081C365.684 103.242 366.285 103.388 366.988 103.52C368.584 103.813 370.079 104.23 371.47 104.772C372.862 105.314 373.99 106.083 374.854 107.08C375.733 108.076 376.172 109.416 376.172 111.101C376.172 112.155 375.931 113.129 375.447 114.023C374.964 114.902 374.268 115.678 373.36 116.352C372.452 117.011 371.36 117.524 370.086 117.89C368.812 118.256 367.376 118.439 365.779 118.439C363.509 118.439 361.59 118.037 360.022 117.231C358.455 116.411 357.269 115.385 356.463 114.155C355.672 112.91 355.276 111.65 355.276 110.375H362.176C362.205 111.108 362.381 111.708 362.703 112.177C363.04 112.646 363.487 112.99 364.043 113.21C364.6 113.43 365.245 113.54 365.977 113.54C366.651 113.54 367.208 113.444 367.647 113.254C368.101 113.063 368.445 112.807 368.68 112.485C368.914 112.148 369.031 111.76 369.031 111.32ZM378.721 106.354V105.893C378.721 104.15 378.97 102.546 379.468 101.081C379.966 99.6016 380.699 98.3198 381.666 97.2358C382.632 96.1519 383.826 95.3096 385.247 94.709C386.668 94.0938 388.309 93.7861 390.169 93.7861C392.044 93.7861 393.692 94.0938 395.113 94.709C396.548 95.3096 397.75 96.1519 398.716 97.2358C399.683 98.3198 400.416 99.6016 400.914 101.081C401.412 102.546 401.661 104.15 401.661 105.893V106.354C401.661 108.083 401.412 109.687 400.914 111.167C400.416 112.631 399.683 113.913 398.716 115.012C397.75 116.096 396.556 116.938 395.135 117.539C393.714 118.139 392.073 118.439 390.213 118.439C388.353 118.439 386.705 118.139 385.269 117.539C383.833 116.938 382.632 116.096 381.666 115.012C380.699 113.913 379.966 112.631 379.468 111.167C378.97 109.687 378.721 108.083 378.721 106.354ZM386.126 105.893V106.354C386.126 107.248 386.192 108.083 386.324 108.859C386.456 109.636 386.675 110.317 386.983 110.903C387.291 111.474 387.708 111.921 388.235 112.243C388.763 112.565 389.422 112.727 390.213 112.727C390.989 112.727 391.634 112.565 392.146 112.243C392.674 111.921 393.091 111.474 393.399 110.903C393.707 110.317 393.926 109.636 394.058 108.859C394.19 108.083 394.256 107.248 394.256 106.354V105.893C394.256 105.029 394.19 104.216 394.058 103.454C393.926 102.678 393.707 101.997 393.399 101.411C393.091 100.81 392.674 100.341 392.146 100.004C391.619 99.6675 390.96 99.499 390.169 99.499C389.393 99.499 388.741 99.6675 388.213 100.004C387.701 100.341 387.291 100.81 386.983 101.411C386.675 101.997 386.456 102.678 386.324 103.454C386.192 104.216 386.126 105.029 386.126 105.893ZM412.427 98.7959V127.141H405.022V94.2256H411.922L412.427 98.7959ZM427.017 105.827V106.289C427.017 108.017 426.819 109.621 426.424 111.101C426.028 112.58 425.442 113.869 424.666 114.968C423.89 116.066 422.923 116.923 421.766 117.539C420.623 118.139 419.297 118.439 417.789 118.439C416.368 118.439 415.145 118.125 414.119 117.495C413.094 116.865 412.237 115.993 411.548 114.88C410.86 113.767 410.303 112.492 409.878 111.057C409.454 109.621 409.117 108.105 408.868 106.508V105.915C409.117 104.201 409.454 102.612 409.878 101.147C410.303 99.6675 410.86 98.3784 411.548 97.2798C412.237 96.1812 413.086 95.3242 414.097 94.709C415.123 94.0938 416.346 93.7861 417.767 93.7861C419.275 93.7861 420.601 94.0718 421.744 94.6431C422.901 95.2144 423.868 96.0347 424.644 97.104C425.435 98.1587 426.028 99.4258 426.424 100.905C426.819 102.385 427.017 104.025 427.017 105.827ZM419.612 106.289V105.827C419.612 104.904 419.546 104.062 419.415 103.3C419.283 102.524 419.07 101.85 418.777 101.279C418.499 100.708 418.125 100.268 417.657 99.9604C417.188 99.6528 416.609 99.499 415.921 99.499C415.13 99.499 414.463 99.6235 413.921 99.8726C413.394 100.107 412.969 100.473 412.647 100.971C412.339 101.455 412.12 102.062 411.988 102.795C411.871 103.513 411.819 104.355 411.834 105.322V107.124C411.805 108.237 411.915 109.218 412.164 110.068C412.413 110.903 412.845 111.555 413.46 112.023C414.075 112.492 414.91 112.727 415.965 112.727C416.668 112.727 417.254 112.565 417.723 112.243C418.191 111.906 418.565 111.445 418.843 110.859C419.122 110.258 419.319 109.57 419.437 108.793C419.554 108.017 419.612 107.182 419.612 106.289ZM437.564 84.25V118H430.159V84.25H437.564ZM436.685 105.3L434.949 105.344C434.949 103.674 435.154 102.136 435.564 100.729C435.975 99.3232 436.561 98.1001 437.322 97.0601C438.084 96.02 439 95.2144 440.069 94.6431C441.138 94.0718 442.325 93.7861 443.628 93.7861C444.8 93.7861 445.87 93.9546 446.836 94.2915C447.818 94.6284 448.66 95.1704 449.363 95.9175C450.081 96.6646 450.63 97.6387 451.011 98.8398C451.407 100.041 451.604 101.506 451.604 103.234V118H444.156V103.19C444.156 102.224 444.017 101.477 443.738 100.949C443.475 100.407 443.094 100.034 442.596 99.8286C442.098 99.6089 441.49 99.499 440.772 99.499C439.908 99.499 439.205 99.6455 438.663 99.9385C438.121 100.231 437.703 100.642 437.41 101.169C437.132 101.682 436.941 102.29 436.839 102.993C436.736 103.696 436.685 104.465 436.685 105.3ZM463.008 115.209L469.161 94.2256H477.115L467.557 121.538C467.352 122.138 467.081 122.783 466.744 123.471C466.407 124.174 465.945 124.841 465.359 125.471C464.773 126.101 464.019 126.613 463.096 127.009C462.188 127.404 461.06 127.602 459.712 127.602C458.995 127.602 458.467 127.565 458.13 127.492C457.808 127.434 457.31 127.324 456.636 127.163V121.867C456.827 121.867 456.988 121.867 457.12 121.867C457.266 121.867 457.427 121.867 457.603 121.867C458.394 121.867 459.024 121.787 459.493 121.625C459.976 121.464 460.342 121.23 460.591 120.922C460.855 120.615 461.06 120.241 461.207 119.802L463.008 115.209ZM461.448 94.2256L466.128 110.859L466.941 118.703H461.976L453.516 94.2256H461.448Z" fill="black"/>
<path d="M1363 15C1363 6.71573 1356.28 0 1348 0H1134V167H1348C1356.28 167 1363 160.284 1363 152V15Z" fill="#7862FF"/>
<path d="M1234.26 106.286H1262.74V111.857H1234.26V106.286ZM1239.96 117.429H1257.04V123H1239.96V117.429ZM1248.5 45C1240.95 45 1233.71 47.9349 1228.37 53.1592C1223.03 58.3834 1220.03 65.469 1220.03 72.8571C1219.84 76.9057 1220.63 80.9412 1222.34 84.6315C1224.05 88.3219 1226.64 91.5616 1229.88 94.0843C1232.73 96.675 1234.26 98.1514 1234.26 100.714H1239.96C1239.96 95.5886 1236.8 92.7193 1233.72 89.9614C1231.06 87.9676 1228.94 85.3658 1227.55 82.3838C1226.15 79.4019 1225.53 76.1308 1225.72 72.8571C1225.72 66.9466 1228.12 61.2781 1232.39 57.0988C1236.67 52.9194 1242.46 50.5714 1248.5 50.5714C1254.54 50.5714 1260.33 52.9194 1264.61 57.0988C1268.88 61.2781 1271.28 66.9466 1271.28 72.8571C1271.47 76.1333 1270.84 79.4059 1269.44 82.388C1268.04 85.3701 1265.92 87.9706 1263.25 89.9614C1260.2 92.7471 1257.04 95.5329 1257.04 100.714H1262.74C1262.74 98.1514 1264.25 96.675 1267.12 94.0564C1270.36 91.5381 1272.94 88.3031 1274.66 84.6176C1276.37 80.9321 1277.16 76.9014 1276.97 72.8571C1276.97 69.1989 1276.24 65.5765 1274.81 62.1967C1273.37 58.8169 1271.28 55.7459 1268.63 53.1592C1265.99 50.5724 1262.85 48.5205 1259.4 47.1205C1255.94 45.7205 1252.24 45 1248.5 45Z" fill="white"/>
</svg>
