<svg width="1363" height="167" viewBox="0 0 1363 167" fill="none" xmlns="http://www.w3.org/2000/svg">
<rect width="1363" height="167" rx="15" fill="#F0F0F0"/>
<path d="M0 15C0 6.71573 6.71573 0 15 0H37V167H15C6.71573 167 0 160.284 0 152V15Z" fill="#424241"/>
<path d="M100.906 54.9219L93.3945 52.2383V49.0859L103.602 53.375V55.6367L100.906 54.9219ZM93.3945 57.1719L100.918 54.4297L103.602 53.7852V56.0352L93.3945 60.3242V57.1719ZM124.52 55.918H120.172V53.1758H124.52C125.191 53.1758 125.738 53.0664 126.16 52.8477C126.582 52.6211 126.891 52.3086 127.086 51.9102C127.281 51.5117 127.379 51.0625 127.379 50.5625C127.379 50.0547 127.281 49.582 127.086 49.1445C126.891 48.707 126.582 48.3555 126.16 48.0898C125.738 47.8242 125.191 47.6914 124.52 47.6914H121.391V62H117.875V44.9375H124.52C125.855 44.9375 127 45.1797 127.953 45.6641C128.914 46.1406 129.648 46.8008 130.156 47.6445C130.664 48.4883 130.918 49.4531 130.918 50.5391C130.918 51.6406 130.664 52.5938 130.156 53.3984C129.648 54.2031 128.914 54.8242 127.953 55.2617C127 55.6992 125.855 55.918 124.52 55.918ZM139.836 59.1406V53.4922C139.836 53.0859 139.77 52.7383 139.637 52.4492C139.504 52.1523 139.297 51.9219 139.016 51.7578C138.742 51.5938 138.387 51.5117 137.949 51.5117C137.574 51.5117 137.25 51.5781 136.977 51.7109C136.703 51.8359 136.492 52.0195 136.344 52.2617C136.195 52.4961 136.121 52.7734 136.121 53.0938H132.746C132.746 52.5547 132.871 52.043 133.121 51.5586C133.371 51.0742 133.734 50.6484 134.211 50.2812C134.688 49.9062 135.254 49.6133 135.91 49.4023C136.574 49.1914 137.316 49.0859 138.137 49.0859C139.121 49.0859 139.996 49.25 140.762 49.5781C141.527 49.9062 142.129 50.3984 142.566 51.0547C143.012 51.7109 143.234 52.5312 143.234 53.5156V58.9414C143.234 59.6367 143.277 60.207 143.363 60.6523C143.449 61.0898 143.574 61.4727 143.738 61.8008V62H140.328C140.164 61.6562 140.039 61.2266 139.953 60.7109C139.875 60.1875 139.836 59.6641 139.836 59.1406ZM140.281 54.2773L140.305 56.1875H138.418C137.973 56.1875 137.586 56.2383 137.258 56.3398C136.93 56.4414 136.66 56.5859 136.449 56.7734C136.238 56.9531 136.082 57.1641 135.98 57.4062C135.887 57.6484 135.84 57.9141 135.84 58.2031C135.84 58.4922 135.906 58.7539 136.039 58.9883C136.172 59.2148 136.363 59.3945 136.613 59.5273C136.863 59.6523 137.156 59.7148 137.492 59.7148C138 59.7148 138.441 59.6133 138.816 59.4102C139.191 59.207 139.48 58.957 139.684 58.6602C139.895 58.3633 140.004 58.082 140.012 57.8164L140.902 59.2461C140.777 59.5664 140.605 59.8984 140.387 60.2422C140.176 60.5859 139.906 60.9102 139.578 61.2148C139.25 61.5117 138.855 61.7578 138.395 61.9531C137.934 62.1406 137.387 62.2344 136.754 62.2344C135.949 62.2344 135.219 62.0742 134.562 61.7539C133.914 61.4258 133.398 60.9766 133.016 60.4062C132.641 59.8281 132.453 59.1719 132.453 58.4375C132.453 57.7734 132.578 57.1836 132.828 56.668C133.078 56.1523 133.445 55.7188 133.93 55.3672C134.422 55.0078 135.035 54.7383 135.77 54.5586C136.504 54.3711 137.355 54.2773 138.324 54.2773H140.281ZM149.211 52.0859V62H145.836V49.3203H149.012L149.211 52.0859ZM153.031 49.2383L152.973 52.3672C152.809 52.3438 152.609 52.3242 152.375 52.3086C152.148 52.2852 151.941 52.2734 151.754 52.2734C151.277 52.2734 150.863 52.3359 150.512 52.4609C150.168 52.5781 149.879 52.7539 149.645 52.9883C149.418 53.2227 149.246 53.5078 149.129 53.8438C149.02 54.1797 148.957 54.5625 148.941 54.9922L148.262 54.7812C148.262 53.9609 148.344 53.207 148.508 52.5195C148.672 51.8242 148.91 51.2188 149.223 50.7031C149.543 50.1875 149.934 49.7891 150.395 49.5078C150.855 49.2266 151.383 49.0859 151.977 49.0859C152.164 49.0859 152.355 49.1016 152.551 49.1328C152.746 49.1562 152.906 49.1914 153.031 49.2383ZM158 43.9883V62H154.625V43.9883H158ZM165.992 49.3203L160.484 55.6016L157.531 58.5898L156.301 56.1523L158.645 53.1758L161.938 49.3203H165.992ZM162.488 62L158.738 56.1406L161.07 54.1016L166.379 62H162.488ZM171.008 49.3203V62H167.621V49.3203H171.008ZM167.41 46.0156C167.41 45.5234 167.582 45.1172 167.926 44.7969C168.27 44.4766 168.73 44.3164 169.309 44.3164C169.879 44.3164 170.336 44.4766 170.68 44.7969C171.031 45.1172 171.207 45.5234 171.207 46.0156C171.207 46.5078 171.031 46.9141 170.68 47.2344C170.336 47.5547 169.879 47.7148 169.309 47.7148C168.73 47.7148 168.27 47.5547 167.926 47.2344C167.582 46.9141 167.41 46.5078 167.41 46.0156ZM177.102 52.0273V62H173.727V49.3203H176.891L177.102 52.0273ZM176.609 55.2148H175.695C175.695 54.2773 175.816 53.4336 176.059 52.6836C176.301 51.9258 176.641 51.2812 177.078 50.75C177.516 50.2109 178.035 49.8008 178.637 49.5195C179.246 49.2305 179.926 49.0859 180.676 49.0859C181.27 49.0859 181.812 49.1719 182.305 49.3438C182.797 49.5156 183.219 49.7891 183.57 50.1641C183.93 50.5391 184.203 51.0352 184.391 51.6523C184.586 52.2695 184.684 53.0234 184.684 53.9141V62H181.285V53.9023C181.285 53.3398 181.207 52.9023 181.051 52.5898C180.895 52.2773 180.664 52.0586 180.359 51.9336C180.062 51.8008 179.695 51.7344 179.258 51.7344C178.805 51.7344 178.41 51.8242 178.074 52.0039C177.746 52.1836 177.473 52.4336 177.254 52.7539C177.043 53.0664 176.883 53.4336 176.773 53.8555C176.664 54.2773 176.609 54.7305 176.609 55.2148ZM195.277 49.3203H198.336V61.5781C198.336 62.7344 198.078 63.7148 197.562 64.5195C197.055 65.332 196.344 65.9453 195.43 66.3594C194.516 66.7812 193.453 66.9922 192.242 66.9922C191.711 66.9922 191.148 66.9219 190.555 66.7812C189.969 66.6406 189.406 66.4219 188.867 66.125C188.336 65.8281 187.891 65.4531 187.531 65L189.02 63.0078C189.41 63.4609 189.863 63.8125 190.379 64.0625C190.895 64.3203 191.465 64.4492 192.09 64.4492C192.699 64.4492 193.215 64.3359 193.637 64.1094C194.059 63.8906 194.383 63.5664 194.609 63.1367C194.836 62.7148 194.949 62.2031 194.949 61.6016V52.25L195.277 49.3203ZM186.746 55.8125V55.5664C186.746 54.5977 186.863 53.7188 187.098 52.9297C187.34 52.1328 187.68 51.4492 188.117 50.8789C188.562 50.3086 189.102 49.8672 189.734 49.5547C190.367 49.2422 191.082 49.0859 191.879 49.0859C192.723 49.0859 193.43 49.2422 194 49.5547C194.57 49.8672 195.039 50.3125 195.406 50.8906C195.773 51.4609 196.059 52.1367 196.262 52.918C196.473 53.6914 196.637 54.5391 196.754 55.4609V56C196.637 56.8828 196.461 57.7031 196.227 58.4609C195.992 59.2188 195.684 59.8828 195.301 60.4531C194.918 61.0156 194.441 61.4531 193.871 61.7656C193.309 62.0781 192.637 62.2344 191.855 62.2344C191.074 62.2344 190.367 62.0742 189.734 61.7539C189.109 61.4336 188.574 60.9844 188.129 60.4062C187.684 59.8281 187.34 59.1484 187.098 58.3672C186.863 57.5859 186.746 56.7344 186.746 55.8125ZM190.121 55.5664V55.8125C190.121 56.3359 190.172 56.8242 190.273 57.2773C190.375 57.7305 190.531 58.1328 190.742 58.4844C190.961 58.8281 191.23 59.0977 191.551 59.293C191.879 59.4805 192.266 59.5742 192.711 59.5742C193.328 59.5742 193.832 59.4453 194.223 59.1875C194.613 58.9219 194.906 58.5586 195.102 58.0977C195.297 57.6367 195.41 57.1055 195.441 56.5039V54.9688C195.426 54.4766 195.359 54.0352 195.242 53.6445C195.125 53.2461 194.961 52.9062 194.75 52.625C194.539 52.3438 194.266 52.125 193.93 51.9688C193.594 51.8125 193.195 51.7344 192.734 51.7344C192.289 51.7344 191.902 51.8359 191.574 52.0391C191.254 52.2344 190.984 52.5039 190.766 52.8477C190.555 53.1914 190.395 53.5977 190.285 54.0664C190.176 54.5273 190.121 55.0273 190.121 55.5664ZM210.664 44.9375V62H207.148V44.9375H210.664ZM217.461 52.2266V54.9688H209.703V52.2266H217.461ZM218.281 44.9375V47.6914H209.703V44.9375H218.281ZM223.672 49.3203V62H220.285V49.3203H223.672ZM220.074 46.0156C220.074 45.5234 220.246 45.1172 220.59 44.7969C220.934 44.4766 221.395 44.3164 221.973 44.3164C222.543 44.3164 223 44.4766 223.344 44.7969C223.695 45.1172 223.871 45.5234 223.871 46.0156C223.871 46.5078 223.695 46.9141 223.344 47.2344C223 47.5547 222.543 47.7148 221.973 47.7148C221.395 47.7148 220.934 47.5547 220.59 47.2344C220.246 46.9141 220.074 46.5078 220.074 46.0156ZM229.766 52.0273V62H226.391V49.3203H229.555L229.766 52.0273ZM229.273 55.2148H228.359C228.359 54.2773 228.48 53.4336 228.723 52.6836C228.965 51.9258 229.305 51.2812 229.742 50.75C230.18 50.2109 230.699 49.8008 231.301 49.5195C231.91 49.2305 232.59 49.0859 233.34 49.0859C233.934 49.0859 234.477 49.1719 234.969 49.3438C235.461 49.5156 235.883 49.7891 236.234 50.1641C236.594 50.5391 236.867 51.0352 237.055 51.6523C237.25 52.2695 237.348 53.0234 237.348 53.9141V62H233.949V53.9023C233.949 53.3398 233.871 52.9023 233.715 52.5898C233.559 52.2773 233.328 52.0586 233.023 51.9336C232.727 51.8008 232.359 51.7344 231.922 51.7344C231.469 51.7344 231.074 51.8242 230.738 52.0039C230.41 52.1836 230.137 52.4336 229.918 52.7539C229.707 53.0664 229.547 53.4336 229.438 53.8555C229.328 54.2773 229.273 54.7305 229.273 55.2148ZM247.402 59.2344V44H250.801V62H247.742L247.402 59.2344ZM239.387 55.8125V55.5664C239.387 54.5977 239.496 53.7188 239.715 52.9297C239.934 52.1328 240.254 51.4492 240.676 50.8789C241.098 50.3086 241.617 49.8672 242.234 49.5547C242.852 49.2422 243.555 49.0859 244.344 49.0859C245.086 49.0859 245.734 49.2422 246.289 49.5547C246.852 49.8672 247.328 50.3125 247.719 50.8906C248.117 51.4609 248.438 52.1367 248.68 52.918C248.922 53.6914 249.098 54.5391 249.207 55.4609V56C249.098 56.8828 248.922 57.7031 248.68 58.4609C248.438 59.2188 248.117 59.8828 247.719 60.4531C247.328 61.0156 246.852 61.4531 246.289 61.7656C245.727 62.0781 245.07 62.2344 244.32 62.2344C243.531 62.2344 242.828 62.0742 242.211 61.7539C241.602 61.4336 241.086 60.9844 240.664 60.4062C240.25 59.8281 239.934 59.1484 239.715 58.3672C239.496 57.5859 239.387 56.7344 239.387 55.8125ZM242.762 55.5664V55.8125C242.762 56.3359 242.801 56.8242 242.879 57.2773C242.965 57.7305 243.102 58.1328 243.289 58.4844C243.484 58.8281 243.734 59.0977 244.039 59.293C244.352 59.4805 244.73 59.5742 245.176 59.5742C245.754 59.5742 246.23 59.4453 246.605 59.1875C246.98 58.9219 247.266 58.5586 247.461 58.0977C247.664 57.6367 247.781 57.1055 247.812 56.5039V54.9688C247.789 54.4766 247.719 54.0352 247.602 53.6445C247.492 53.2461 247.328 52.9062 247.109 52.625C246.898 52.3438 246.633 52.125 246.312 51.9688C246 51.8125 245.629 51.7344 245.199 51.7344C244.762 51.7344 244.387 51.8359 244.074 52.0391C243.762 52.2344 243.508 52.5039 243.312 52.8477C243.125 53.1914 242.984 53.5977 242.891 54.0664C242.805 54.5273 242.762 55.0273 242.762 55.5664ZM259.273 62.2344C258.289 62.2344 257.406 62.0781 256.625 61.7656C255.844 61.4453 255.18 61.0039 254.633 60.4414C254.094 59.8789 253.68 59.2266 253.391 58.4844C253.102 57.7344 252.957 56.9375 252.957 56.0938V55.625C252.957 54.6641 253.094 53.7852 253.367 52.9883C253.641 52.1914 254.031 51.5 254.539 50.9141C255.055 50.3281 255.68 49.8789 256.414 49.5664C257.148 49.2461 257.977 49.0859 258.898 49.0859C259.797 49.0859 260.594 49.2344 261.289 49.5312C261.984 49.8281 262.566 50.25 263.035 50.7969C263.512 51.3438 263.871 52 264.113 52.7656C264.355 53.5234 264.477 54.3672 264.477 55.2969V56.7031H254.398V54.4531H261.16V54.1953C261.16 53.7266 261.074 53.3086 260.902 52.9414C260.738 52.5664 260.488 52.2695 260.152 52.0508C259.816 51.832 259.387 51.7227 258.863 51.7227C258.418 51.7227 258.035 51.8203 257.715 52.0156C257.395 52.2109 257.133 52.4844 256.93 52.8359C256.734 53.1875 256.586 53.6016 256.484 54.0781C256.391 54.5469 256.344 55.0625 256.344 55.625V56.0938C256.344 56.6016 256.414 57.0703 256.555 57.5C256.703 57.9297 256.91 58.3008 257.176 58.6133C257.449 58.9258 257.777 59.168 258.16 59.3398C258.551 59.5117 258.992 59.5977 259.484 59.5977C260.094 59.5977 260.66 59.4805 261.184 59.2461C261.715 59.0039 262.172 58.6406 262.555 58.1562L264.195 59.9375C263.93 60.3203 263.566 60.6875 263.105 61.0391C262.652 61.3906 262.105 61.6797 261.465 61.9062C260.824 62.125 260.094 62.2344 259.273 62.2344ZM269.773 52.0859V62H266.398V49.3203H269.574L269.773 52.0859ZM273.594 49.2383L273.535 52.3672C273.371 52.3438 273.172 52.3242 272.938 52.3086C272.711 52.2852 272.504 52.2734 272.316 52.2734C271.84 52.2734 271.426 52.3359 271.074 52.4609C270.73 52.5781 270.441 52.7539 270.207 52.9883C269.98 53.2227 269.809 53.5078 269.691 53.8438C269.582 54.1797 269.52 54.5625 269.504 54.9922L268.824 54.7812C268.824 53.9609 268.906 53.207 269.07 52.5195C269.234 51.8242 269.473 51.2188 269.785 50.7031C270.105 50.1875 270.496 49.7891 270.957 49.5078C271.418 49.2266 271.945 49.0859 272.539 49.0859C272.727 49.0859 272.918 49.1016 273.113 49.1328C273.309 49.1562 273.469 49.1914 273.594 49.2383Z" fill="#888888"/>
<path d="M102.635 86.0078V118H94.9443V86.0078H102.635ZM115.181 99.2573V118H107.776V94.2256H114.72L115.181 99.2573ZM114.28 105.3L112.588 105.344C112.588 103.674 112.786 102.136 113.182 100.729C113.577 99.3232 114.163 98.1001 114.939 97.0601C115.716 96.02 116.668 95.2144 117.796 94.6431C118.938 94.0718 120.257 93.7861 121.751 93.7861C122.791 93.7861 123.736 93.9473 124.585 94.2695C125.435 94.5771 126.167 95.0679 126.783 95.7417C127.398 96.4009 127.867 97.2651 128.189 98.3345C128.526 99.3892 128.694 100.656 128.694 102.136V118H121.29V103.081C121.29 102.07 121.172 101.308 120.938 100.795C120.718 100.283 120.396 99.9385 119.971 99.7627C119.546 99.5869 119.026 99.499 118.411 99.499C117.767 99.499 117.188 99.6455 116.675 99.9385C116.163 100.231 115.723 100.642 115.357 101.169C115.005 101.682 114.734 102.29 114.544 102.993C114.368 103.696 114.28 104.465 114.28 105.3ZM127.859 105.3L125.794 105.344C125.794 103.674 125.977 102.136 126.343 100.729C126.724 99.3232 127.288 98.1001 128.035 97.0601C128.797 96.02 129.742 95.2144 130.87 94.6431C131.998 94.0718 133.309 93.7861 134.803 93.7861C135.887 93.7861 136.883 93.9473 137.791 94.2695C138.699 94.5918 139.483 95.1118 140.142 95.8296C140.801 96.5474 141.314 97.4995 141.68 98.686C142.046 99.8579 142.229 101.308 142.229 103.037V118H134.803V103.037C134.803 102.055 134.686 101.315 134.451 100.817C134.231 100.305 133.909 99.9604 133.484 99.7847C133.06 99.5942 132.554 99.499 131.968 99.499C131.265 99.499 130.657 99.6455 130.145 99.9385C129.632 100.231 129.2 100.642 128.848 101.169C128.511 101.682 128.262 102.29 128.101 102.993C127.94 103.696 127.859 104.465 127.859 105.3ZM153.941 98.7959V127.141H146.536V94.2256H153.436L153.941 98.7959ZM168.531 105.827V106.289C168.531 108.017 168.333 109.621 167.938 111.101C167.542 112.58 166.956 113.869 166.18 114.968C165.403 116.066 164.437 116.923 163.279 117.539C162.137 118.139 160.811 118.439 159.302 118.439C157.881 118.439 156.658 118.125 155.633 117.495C154.607 116.865 153.75 115.993 153.062 114.88C152.374 113.767 151.817 112.492 151.392 111.057C150.967 109.621 150.63 108.105 150.381 106.508V105.915C150.63 104.201 150.967 102.612 151.392 101.147C151.817 99.6675 152.374 98.3784 153.062 97.2798C153.75 96.1812 154.6 95.3242 155.611 94.709C156.636 94.0938 157.859 93.7861 159.28 93.7861C160.789 93.7861 162.115 94.0718 163.257 94.6431C164.415 95.2144 165.381 96.0347 166.158 97.104C166.949 98.1587 167.542 99.4258 167.938 100.905C168.333 102.385 168.531 104.025 168.531 105.827ZM161.126 106.289V105.827C161.126 104.904 161.06 104.062 160.928 103.3C160.796 102.524 160.584 101.85 160.291 101.279C160.013 100.708 159.639 100.268 159.17 99.9604C158.702 99.6528 158.123 99.499 157.435 99.499C156.644 99.499 155.977 99.6235 155.435 99.8726C154.908 100.107 154.483 100.473 154.161 100.971C153.853 101.455 153.633 102.062 153.501 102.795C153.384 103.513 153.333 104.355 153.348 105.322V107.124C153.318 108.237 153.428 109.218 153.677 110.068C153.926 110.903 154.358 111.555 154.974 112.023C155.589 112.492 156.424 112.727 157.479 112.727C158.182 112.727 158.768 112.565 159.236 112.243C159.705 111.906 160.079 111.445 160.357 110.859C160.635 110.258 160.833 109.57 160.95 108.793C161.067 108.017 161.126 107.182 161.126 106.289ZM179.649 84.25V118H172.222V84.25H179.649ZM195.733 118.439C193.799 118.439 192.071 118.139 190.547 117.539C189.024 116.923 187.735 116.081 186.68 115.012C185.64 113.942 184.842 112.712 184.285 111.32C183.743 109.929 183.472 108.457 183.472 106.904V106.069C183.472 104.326 183.714 102.714 184.197 101.235C184.681 99.7407 185.398 98.437 186.351 97.3237C187.303 96.2104 188.497 95.3462 189.932 94.731C191.368 94.1011 193.038 93.7861 194.942 93.7861C196.626 93.7861 198.135 94.0571 199.468 94.5991C200.801 95.1411 201.929 95.9175 202.852 96.9282C203.79 97.939 204.5 99.1621 204.983 100.598C205.481 102.033 205.73 103.645 205.73 105.432V108.442H186.307V103.806H198.501V103.234C198.516 102.443 198.377 101.77 198.084 101.213C197.806 100.656 197.396 100.231 196.854 99.9385C196.312 99.6455 195.652 99.499 194.876 99.499C194.07 99.499 193.404 99.6748 192.876 100.026C192.364 100.378 191.961 100.861 191.668 101.477C191.39 102.077 191.192 102.773 191.075 103.564C190.958 104.355 190.899 105.19 190.899 106.069V106.904C190.899 107.783 191.016 108.581 191.25 109.299C191.5 110.017 191.851 110.632 192.305 111.145C192.774 111.643 193.331 112.031 193.975 112.309C194.634 112.587 195.381 112.727 196.216 112.727C197.227 112.727 198.223 112.536 199.205 112.155C200.186 111.774 201.028 111.145 201.731 110.266L205.093 114.265C204.61 114.953 203.921 115.62 203.028 116.264C202.149 116.909 201.094 117.436 199.864 117.846C198.633 118.242 197.256 118.439 195.733 118.439ZM216.211 99.2573V118H208.807V94.2256H215.75L216.211 99.2573ZM215.311 105.3L213.619 105.344C213.619 103.674 213.816 102.136 214.212 100.729C214.607 99.3232 215.193 98.1001 215.97 97.0601C216.746 96.02 217.698 95.2144 218.826 94.6431C219.969 94.0718 221.287 93.7861 222.781 93.7861C223.821 93.7861 224.766 93.9473 225.616 94.2695C226.465 94.5771 227.198 95.0679 227.813 95.7417C228.428 96.4009 228.897 97.2651 229.219 98.3345C229.556 99.3892 229.725 100.656 229.725 102.136V118H222.32V103.081C222.32 102.07 222.203 101.308 221.968 100.795C221.749 100.283 221.426 99.9385 221.001 99.7627C220.577 99.5869 220.057 99.499 219.441 99.499C218.797 99.499 218.218 99.6455 217.706 99.9385C217.193 100.231 216.753 100.642 216.387 101.169C216.036 101.682 215.765 102.29 215.574 102.993C215.398 103.696 215.311 104.465 215.311 105.3ZM228.89 105.3L226.824 105.344C226.824 103.674 227.007 102.136 227.374 100.729C227.754 99.3232 228.318 98.1001 229.065 97.0601C229.827 96.02 230.772 95.2144 231.9 94.6431C233.028 94.0718 234.339 93.7861 235.833 93.7861C236.917 93.7861 237.913 93.9473 238.821 94.2695C239.729 94.5918 240.513 95.1118 241.172 95.8296C241.832 96.5474 242.344 97.4995 242.71 98.686C243.077 99.8579 243.26 101.308 243.26 103.037V118H235.833V103.037C235.833 102.055 235.716 101.315 235.481 100.817C235.262 100.305 234.939 99.9604 234.515 99.7847C234.09 99.5942 233.584 99.499 232.999 99.499C232.295 99.499 231.688 99.6455 231.175 99.9385C230.662 100.231 230.23 100.642 229.878 101.169C229.542 101.682 229.292 102.29 229.131 102.993C228.97 103.696 228.89 104.465 228.89 105.3ZM259.014 118.439C257.081 118.439 255.352 118.139 253.829 117.539C252.305 116.923 251.016 116.081 249.961 115.012C248.921 113.942 248.123 112.712 247.566 111.32C247.024 109.929 246.753 108.457 246.753 106.904V106.069C246.753 104.326 246.995 102.714 247.479 101.235C247.962 99.7407 248.68 98.437 249.632 97.3237C250.584 96.2104 251.778 95.3462 253.213 94.731C254.649 94.1011 256.319 93.7861 258.223 93.7861C259.908 93.7861 261.417 94.0571 262.75 94.5991C264.083 95.1411 265.21 95.9175 266.133 96.9282C267.071 97.939 267.781 99.1621 268.265 100.598C268.763 102.033 269.012 103.645 269.012 105.432V108.442H249.588V103.806H261.783V103.234C261.797 102.443 261.658 101.77 261.365 101.213C261.087 100.656 260.677 100.231 260.135 99.9385C259.593 99.6455 258.934 99.499 258.157 99.499C257.352 99.499 256.685 99.6748 256.158 100.026C255.645 100.378 255.242 100.861 254.949 101.477C254.671 102.077 254.473 102.773 254.356 103.564C254.239 104.355 254.18 105.19 254.18 106.069V106.904C254.18 107.783 254.297 108.581 254.532 109.299C254.781 110.017 255.132 110.632 255.586 111.145C256.055 111.643 256.612 112.031 257.256 112.309C257.916 112.587 258.663 112.727 259.498 112.727C260.508 112.727 261.504 112.536 262.486 112.155C263.467 111.774 264.31 111.145 265.013 110.266L268.375 114.265C267.891 114.953 267.203 115.62 266.309 116.264C265.43 116.909 264.375 117.436 263.145 117.846C261.915 118.242 260.538 118.439 259.014 118.439ZM279.295 99.3013V118H271.89V94.2256H278.833L279.295 99.3013ZM278.416 105.3L276.68 105.344C276.68 103.527 276.9 101.909 277.339 100.488C277.779 99.0522 278.401 97.8364 279.207 96.8403C280.013 95.8442 280.972 95.0898 282.085 94.5771C283.213 94.0498 284.466 93.7861 285.843 93.7861C286.941 93.7861 287.945 93.9473 288.853 94.2695C289.776 94.5918 290.567 95.1118 291.226 95.8296C291.9 96.5474 292.413 97.4995 292.764 98.686C293.13 99.8579 293.313 101.308 293.313 103.037V118H285.865V103.015C285.865 102.062 285.733 101.337 285.469 100.839C285.206 100.327 284.825 99.9751 284.327 99.7847C283.829 99.5942 283.221 99.499 282.503 99.499C281.741 99.499 281.097 99.6455 280.569 99.9385C280.042 100.231 279.617 100.642 279.295 101.169C278.987 101.682 278.76 102.29 278.614 102.993C278.482 103.696 278.416 104.465 278.416 105.3ZM309.947 94.2256V99.3672H295.621V94.2256H309.947ZM298.631 88.3149H306.036V110.244C306.036 110.874 306.109 111.364 306.255 111.716C306.402 112.053 306.651 112.294 307.002 112.441C307.369 112.573 307.852 112.639 308.453 112.639C308.877 112.639 309.229 112.631 309.507 112.617C309.786 112.587 310.049 112.551 310.298 112.507V117.802C309.668 118.007 309.009 118.161 308.321 118.264C307.632 118.381 306.9 118.439 306.124 118.439C304.542 118.439 303.187 118.19 302.059 117.692C300.945 117.194 300.096 116.411 299.51 115.341C298.924 114.272 298.631 112.88 298.631 111.167V88.3149ZM325.24 112.023V102.224C325.24 101.55 325.145 100.971 324.954 100.488C324.764 100.004 324.463 99.6309 324.053 99.3672C323.643 99.0889 323.094 98.9497 322.405 98.9497C321.849 98.9497 321.373 99.0449 320.977 99.2354C320.582 99.4258 320.281 99.7114 320.076 100.092C319.871 100.473 319.769 100.957 319.769 101.542H312.364C312.364 100.444 312.605 99.4258 313.089 98.4883C313.587 97.5361 314.29 96.7085 315.198 96.0054C316.121 95.3022 317.22 94.7603 318.494 94.3794C319.783 93.9839 321.219 93.7861 322.801 93.7861C324.69 93.7861 326.375 94.1011 327.854 94.731C329.349 95.3608 330.528 96.3057 331.392 97.5654C332.256 98.8105 332.688 100.378 332.688 102.268V112.001C332.688 113.554 332.776 114.733 332.952 115.539C333.128 116.33 333.377 117.026 333.699 117.626V118H326.272C325.921 117.268 325.657 116.374 325.481 115.319C325.32 114.25 325.24 113.151 325.24 112.023ZM326.141 103.476L326.185 107.431H322.911C322.222 107.431 321.636 107.526 321.153 107.717C320.684 107.907 320.303 108.171 320.01 108.508C319.732 108.83 319.527 109.196 319.395 109.606C319.278 110.017 319.219 110.449 319.219 110.903C319.219 111.342 319.322 111.738 319.527 112.089C319.747 112.426 320.04 112.69 320.406 112.88C320.772 113.071 321.182 113.166 321.636 113.166C322.457 113.166 323.152 113.012 323.724 112.705C324.31 112.382 324.756 111.994 325.064 111.54C325.372 111.086 325.525 110.661 325.525 110.266L327.151 113.298C326.858 113.884 326.521 114.477 326.141 115.078C325.774 115.678 325.313 116.235 324.756 116.748C324.214 117.246 323.548 117.656 322.757 117.978C321.966 118.286 321.006 118.439 319.878 118.439C318.414 118.439 317.066 118.139 315.835 117.539C314.62 116.938 313.646 116.103 312.913 115.034C312.181 113.95 311.814 112.705 311.814 111.298C311.814 110.068 312.034 108.969 312.474 108.002C312.928 107.036 313.609 106.215 314.517 105.542C315.425 104.868 316.583 104.355 317.989 104.003C319.395 103.652 321.05 103.476 322.955 103.476H326.141ZM349.322 94.2256V99.3672H334.996V94.2256H349.322ZM338.006 88.3149H345.411V110.244C345.411 110.874 345.484 111.364 345.63 111.716C345.777 112.053 346.026 112.294 346.377 112.441C346.744 112.573 347.227 112.639 347.828 112.639C348.252 112.639 348.604 112.631 348.882 112.617C349.161 112.587 349.424 112.551 349.673 112.507V117.802C349.043 118.007 348.384 118.161 347.696 118.264C347.007 118.381 346.275 118.439 345.499 118.439C343.917 118.439 342.562 118.19 341.434 117.692C340.32 117.194 339.471 116.411 338.885 115.341C338.299 114.272 338.006 112.88 338.006 111.167V88.3149ZM360.088 94.2256V118H352.662V94.2256H360.088ZM352.222 88.0952C352.222 87.0405 352.603 86.1763 353.365 85.5024C354.126 84.8286 355.115 84.4917 356.331 84.4917C357.547 84.4917 358.536 84.8286 359.297 85.5024C360.059 86.1763 360.44 87.0405 360.44 88.0952C360.44 89.1499 360.059 90.0142 359.297 90.688C358.536 91.3618 357.547 91.6987 356.331 91.6987C355.115 91.6987 354.126 91.3618 353.365 90.688C352.603 90.0142 352.222 89.1499 352.222 88.0952ZM363.736 106.354V105.893C363.736 104.15 363.985 102.546 364.483 101.081C364.981 99.6016 365.713 98.3198 366.68 97.2358C367.647 96.1519 368.841 95.3096 370.262 94.709C371.683 94.0938 373.323 93.7861 375.184 93.7861C377.059 93.7861 378.707 94.0938 380.127 94.709C381.563 95.3096 382.764 96.1519 383.731 97.2358C384.698 98.3198 385.43 99.6016 385.928 101.081C386.426 102.546 386.675 104.15 386.675 105.893V106.354C386.675 108.083 386.426 109.687 385.928 111.167C385.43 112.631 384.698 113.913 383.731 115.012C382.764 116.096 381.57 116.938 380.149 117.539C378.729 118.139 377.088 118.439 375.228 118.439C373.367 118.439 371.719 118.139 370.284 117.539C368.848 116.938 367.647 116.096 366.68 115.012C365.713 113.913 364.981 112.631 364.483 111.167C363.985 109.687 363.736 108.083 363.736 106.354ZM371.141 105.893V106.354C371.141 107.248 371.207 108.083 371.338 108.859C371.47 109.636 371.69 110.317 371.998 110.903C372.305 111.474 372.723 111.921 373.25 112.243C373.777 112.565 374.437 112.727 375.228 112.727C376.004 112.727 376.648 112.565 377.161 112.243C377.688 111.921 378.106 111.474 378.414 110.903C378.721 110.317 378.941 109.636 379.073 108.859C379.205 108.083 379.271 107.248 379.271 106.354V105.893C379.271 105.029 379.205 104.216 379.073 103.454C378.941 102.678 378.721 101.997 378.414 101.411C378.106 100.81 377.688 100.341 377.161 100.004C376.634 99.6675 375.975 99.499 375.184 99.499C374.407 99.499 373.755 99.6675 373.228 100.004C372.715 100.341 372.305 100.81 371.998 101.411C371.69 101.997 371.47 102.678 371.338 103.454C371.207 104.216 371.141 105.029 371.141 105.893ZM397.244 99.3013V118H389.839V94.2256H396.783L397.244 99.3013ZM396.365 105.3L394.629 105.344C394.629 103.527 394.849 101.909 395.289 100.488C395.728 99.0522 396.351 97.8364 397.156 96.8403C397.962 95.8442 398.921 95.0898 400.035 94.5771C401.163 94.0498 402.415 93.7861 403.792 93.7861C404.891 93.7861 405.894 93.9473 406.802 94.2695C407.725 94.5918 408.516 95.1118 409.175 95.8296C409.849 96.5474 410.362 97.4995 410.713 98.686C411.08 99.8579 411.263 101.308 411.263 103.037V118H403.814V103.015C403.814 102.062 403.682 101.337 403.418 100.839C403.155 100.327 402.774 99.9751 402.276 99.7847C401.778 99.5942 401.17 99.499 400.452 99.499C399.69 99.499 399.046 99.6455 398.519 99.9385C397.991 100.231 397.566 100.642 397.244 101.169C396.937 101.682 396.709 102.29 396.563 102.993C396.431 103.696 396.365 104.465 396.365 105.3Z" fill="black"/>
<path d="M1363 15C1363 6.71573 1356.28 0 1348 0H1134V167H1348C1356.28 167 1363 160.284 1363 152V15Z" fill="#7862FF"/>
<path d="M1281.5 49H1216.5L1214 51.5V116.5L1216.5 119H1281.5L1284 116.5V51.5L1281.5 49ZM1279 114H1234V104H1245.5C1247 107 1250.5 109 1254 109C1259.5 109 1264 104.5 1264 99C1264 93.5 1259.5 89 1254 89C1248.5 89 1244 93.5 1244 99H1229V114H1219V54H1229V65.5C1226 67 1224 70.5 1224 74C1224 79.5 1228.5 84 1234 84C1239.5 84 1244 79.5 1244 74H1254C1254 79.5 1258.5 84 1264 84C1269.5 84 1274 79.5 1274 74C1274 68.5 1269.5 64 1264 64C1260.5 64 1257 66 1255.5 69H1242.5C1241 66 1237.5 64 1234 64V54H1279V114ZM1249 99C1249 96 1251 94 1254 94C1257 94 1259 96 1259 99C1259 102 1257 104 1254 104C1251 104 1249 102 1249 99ZM1234 69C1237 69 1239 71 1239 74C1239 77 1237 79 1234 79C1231 79 1229 77 1229 74C1229 71 1231 69 1234 69ZM1264 69C1267 69 1269 71 1269 74C1269 77 1267 79 1264 79C1261 79 1259 77 1259 74C1259 71 1261 69 1264 69Z" fill="white"/>
</svg>
