<svg width="1363" height="167" viewBox="0 0 1363 167" fill="none" xmlns="http://www.w3.org/2000/svg">
<rect width="1363" height="167" rx="15" fill="#F0F0F0"/>
<path d="M0 15C0 6.71573 6.71573 0 15 0H37V167H15C6.71573 167 0 160.284 0 152V15Z" fill="#424241"/>
<path d="M100.906 50.9219L93.3945 48.2383V45.0859L103.602 49.375V51.6367L100.906 50.9219ZM93.3945 53.1719L100.918 50.4297L103.602 49.7852V52.0352L93.3945 56.3242V53.1719ZM118.543 51.918H114.195V49.1758H118.543C119.215 49.1758 119.762 49.0664 120.184 48.8477C120.605 48.6211 120.914 48.3086 121.109 47.9102C121.305 47.5117 121.402 47.0625 121.402 46.5625C121.402 46.0547 121.305 45.582 121.109 45.1445C120.914 44.707 120.605 44.3555 120.184 44.0898C119.762 43.8242 119.215 43.6914 118.543 43.6914H115.414V58H111.898V40.9375H118.543C119.879 40.9375 121.023 41.1797 121.977 41.6641C122.938 42.1406 123.672 42.8008 124.18 43.6445C124.688 44.4883 124.941 45.4531 124.941 46.5391C124.941 47.6406 124.688 48.5938 124.18 49.3984C123.672 50.2031 122.938 50.8242 121.977 51.2617C121.023 51.6992 119.879 51.918 118.543 51.918ZM133.859 55.1406V49.4922C133.859 49.0859 133.793 48.7383 133.66 48.4492C133.527 48.1523 133.32 47.9219 133.039 47.7578C132.766 47.5938 132.41 47.5117 131.973 47.5117C131.598 47.5117 131.273 47.5781 131 47.7109C130.727 47.8359 130.516 48.0195 130.367 48.2617C130.219 48.4961 130.145 48.7734 130.145 49.0938H126.77C126.77 48.5547 126.895 48.043 127.145 47.5586C127.395 47.0742 127.758 46.6484 128.234 46.2812C128.711 45.9062 129.277 45.6133 129.934 45.4023C130.598 45.1914 131.34 45.0859 132.16 45.0859C133.145 45.0859 134.02 45.25 134.785 45.5781C135.551 45.9062 136.152 46.3984 136.59 47.0547C137.035 47.7109 137.258 48.5312 137.258 49.5156V54.9414C137.258 55.6367 137.301 56.207 137.387 56.6523C137.473 57.0898 137.598 57.4727 137.762 57.8008V58H134.352C134.188 57.6562 134.062 57.2266 133.977 56.7109C133.898 56.1875 133.859 55.6641 133.859 55.1406ZM134.305 50.2773L134.328 52.1875H132.441C131.996 52.1875 131.609 52.2383 131.281 52.3398C130.953 52.4414 130.684 52.5859 130.473 52.7734C130.262 52.9531 130.105 53.1641 130.004 53.4062C129.91 53.6484 129.863 53.9141 129.863 54.2031C129.863 54.4922 129.93 54.7539 130.062 54.9883C130.195 55.2148 130.387 55.3945 130.637 55.5273C130.887 55.6523 131.18 55.7148 131.516 55.7148C132.023 55.7148 132.465 55.6133 132.84 55.4102C133.215 55.207 133.504 54.957 133.707 54.6602C133.918 54.3633 134.027 54.082 134.035 53.8164L134.926 55.2461C134.801 55.5664 134.629 55.8984 134.41 56.2422C134.199 56.5859 133.93 56.9102 133.602 57.2148C133.273 57.5117 132.879 57.7578 132.418 57.9531C131.957 58.1406 131.41 58.2344 130.777 58.2344C129.973 58.2344 129.242 58.0742 128.586 57.7539C127.938 57.4258 127.422 56.9766 127.039 56.4062C126.664 55.8281 126.477 55.1719 126.477 54.4375C126.477 53.7734 126.602 53.1836 126.852 52.668C127.102 52.1523 127.469 51.7188 127.953 51.3672C128.445 51.0078 129.059 50.7383 129.793 50.5586C130.527 50.3711 131.379 50.2773 132.348 50.2773H134.305ZM143.234 48.0859V58H139.859V45.3203H143.035L143.234 48.0859ZM147.055 45.2383L146.996 48.3672C146.832 48.3438 146.633 48.3242 146.398 48.3086C146.172 48.2852 145.965 48.2734 145.777 48.2734C145.301 48.2734 144.887 48.3359 144.535 48.4609C144.191 48.5781 143.902 48.7539 143.668 48.9883C143.441 49.2227 143.27 49.5078 143.152 49.8438C143.043 50.1797 142.98 50.5625 142.965 50.9922L142.285 50.7812C142.285 49.9609 142.367 49.207 142.531 48.5195C142.695 47.8242 142.934 47.2188 143.246 46.7031C143.566 46.1875 143.957 45.7891 144.418 45.5078C144.879 45.2266 145.406 45.0859 146 45.0859C146.188 45.0859 146.379 45.1016 146.574 45.1328C146.77 45.1562 146.93 45.1914 147.055 45.2383ZM152.023 39.9883V58H148.648V39.9883H152.023ZM160.016 45.3203L154.508 51.6016L151.555 54.5898L150.324 52.1523L152.668 49.1758L155.961 45.3203H160.016ZM156.512 58L152.762 52.1406L155.094 50.1016L160.402 58H156.512ZM165.031 45.3203V58H161.645V45.3203H165.031ZM161.434 42.0156C161.434 41.5234 161.605 41.1172 161.949 40.7969C162.293 40.4766 162.754 40.3164 163.332 40.3164C163.902 40.3164 164.359 40.4766 164.703 40.7969C165.055 41.1172 165.23 41.5234 165.23 42.0156C165.23 42.5078 165.055 42.9141 164.703 43.2344C164.359 43.5547 163.902 43.7148 163.332 43.7148C162.754 43.7148 162.293 43.5547 161.949 43.2344C161.605 42.9141 161.434 42.5078 161.434 42.0156ZM171.125 48.0273V58H167.75V45.3203H170.914L171.125 48.0273ZM170.633 51.2148H169.719C169.719 50.2773 169.84 49.4336 170.082 48.6836C170.324 47.9258 170.664 47.2812 171.102 46.75C171.539 46.2109 172.059 45.8008 172.66 45.5195C173.27 45.2305 173.949 45.0859 174.699 45.0859C175.293 45.0859 175.836 45.1719 176.328 45.3438C176.82 45.5156 177.242 45.7891 177.594 46.1641C177.953 46.5391 178.227 47.0352 178.414 47.6523C178.609 48.2695 178.707 49.0234 178.707 49.9141V58H175.309V49.9023C175.309 49.3398 175.23 48.9023 175.074 48.5898C174.918 48.2773 174.688 48.0586 174.383 47.9336C174.086 47.8008 173.719 47.7344 173.281 47.7344C172.828 47.7344 172.434 47.8242 172.098 48.0039C171.77 48.1836 171.496 48.4336 171.277 48.7539C171.066 49.0664 170.906 49.4336 170.797 49.8555C170.688 50.2773 170.633 50.7305 170.633 51.2148ZM189.301 45.3203H192.359V57.5781C192.359 58.7344 192.102 59.7148 191.586 60.5195C191.078 61.332 190.367 61.9453 189.453 62.3594C188.539 62.7812 187.477 62.9922 186.266 62.9922C185.734 62.9922 185.172 62.9219 184.578 62.7812C183.992 62.6406 183.43 62.4219 182.891 62.125C182.359 61.8281 181.914 61.4531 181.555 61L183.043 59.0078C183.434 59.4609 183.887 59.8125 184.402 60.0625C184.918 60.3203 185.488 60.4492 186.113 60.4492C186.723 60.4492 187.238 60.3359 187.66 60.1094C188.082 59.8906 188.406 59.5664 188.633 59.1367C188.859 58.7148 188.973 58.2031 188.973 57.6016V48.25L189.301 45.3203ZM180.77 51.8125V51.5664C180.77 50.5977 180.887 49.7188 181.121 48.9297C181.363 48.1328 181.703 47.4492 182.141 46.8789C182.586 46.3086 183.125 45.8672 183.758 45.5547C184.391 45.2422 185.105 45.0859 185.902 45.0859C186.746 45.0859 187.453 45.2422 188.023 45.5547C188.594 45.8672 189.062 46.3125 189.43 46.8906C189.797 47.4609 190.082 48.1367 190.285 48.918C190.496 49.6914 190.66 50.5391 190.777 51.4609V52C190.66 52.8828 190.484 53.7031 190.25 54.4609C190.016 55.2188 189.707 55.8828 189.324 56.4531C188.941 57.0156 188.465 57.4531 187.895 57.7656C187.332 58.0781 186.66 58.2344 185.879 58.2344C185.098 58.2344 184.391 58.0742 183.758 57.7539C183.133 57.4336 182.598 56.9844 182.152 56.4062C181.707 55.8281 181.363 55.1484 181.121 54.3672C180.887 53.5859 180.77 52.7344 180.77 51.8125ZM184.145 51.5664V51.8125C184.145 52.3359 184.195 52.8242 184.297 53.2773C184.398 53.7305 184.555 54.1328 184.766 54.4844C184.984 54.8281 185.254 55.0977 185.574 55.293C185.902 55.4805 186.289 55.5742 186.734 55.5742C187.352 55.5742 187.855 55.4453 188.246 55.1875C188.637 54.9219 188.93 54.5586 189.125 54.0977C189.32 53.6367 189.434 53.1055 189.465 52.5039V50.9688C189.449 50.4766 189.383 50.0352 189.266 49.6445C189.148 49.2461 188.984 48.9062 188.773 48.625C188.562 48.3438 188.289 48.125 187.953 47.9688C187.617 47.8125 187.219 47.7344 186.758 47.7344C186.312 47.7344 185.926 47.8359 185.598 48.0391C185.277 48.2344 185.008 48.5039 184.789 48.8477C184.578 49.1914 184.418 49.5977 184.309 50.0664C184.199 50.5273 184.145 51.0273 184.145 51.5664ZM204.688 40.9375V58H201.172V40.9375H204.688ZM211.484 48.2266V50.9688H203.727V48.2266H211.484ZM212.305 40.9375V43.6914H203.727V40.9375H212.305ZM217.695 45.3203V58H214.309V45.3203H217.695ZM214.098 42.0156C214.098 41.5234 214.27 41.1172 214.613 40.7969C214.957 40.4766 215.418 40.3164 215.996 40.3164C216.566 40.3164 217.023 40.4766 217.367 40.7969C217.719 41.1172 217.895 41.5234 217.895 42.0156C217.895 42.5078 217.719 42.9141 217.367 43.2344C217.023 43.5547 216.566 43.7148 215.996 43.7148C215.418 43.7148 214.957 43.5547 214.613 43.2344C214.27 42.9141 214.098 42.5078 214.098 42.0156ZM223.789 48.0273V58H220.414V45.3203H223.578L223.789 48.0273ZM223.297 51.2148H222.383C222.383 50.2773 222.504 49.4336 222.746 48.6836C222.988 47.9258 223.328 47.2812 223.766 46.75C224.203 46.2109 224.723 45.8008 225.324 45.5195C225.934 45.2305 226.613 45.0859 227.363 45.0859C227.957 45.0859 228.5 45.1719 228.992 45.3438C229.484 45.5156 229.906 45.7891 230.258 46.1641C230.617 46.5391 230.891 47.0352 231.078 47.6523C231.273 48.2695 231.371 49.0234 231.371 49.9141V58H227.973V49.9023C227.973 49.3398 227.895 48.9023 227.738 48.5898C227.582 48.2773 227.352 48.0586 227.047 47.9336C226.75 47.8008 226.383 47.7344 225.945 47.7344C225.492 47.7344 225.098 47.8242 224.762 48.0039C224.434 48.1836 224.16 48.4336 223.941 48.7539C223.73 49.0664 223.57 49.4336 223.461 49.8555C223.352 50.2773 223.297 50.7305 223.297 51.2148ZM241.426 55.2344V40H244.824V58H241.766L241.426 55.2344ZM233.41 51.8125V51.5664C233.41 50.5977 233.52 49.7188 233.738 48.9297C233.957 48.1328 234.277 47.4492 234.699 46.8789C235.121 46.3086 235.641 45.8672 236.258 45.5547C236.875 45.2422 237.578 45.0859 238.367 45.0859C239.109 45.0859 239.758 45.2422 240.312 45.5547C240.875 45.8672 241.352 46.3125 241.742 46.8906C242.141 47.4609 242.461 48.1367 242.703 48.918C242.945 49.6914 243.121 50.5391 243.23 51.4609V52C243.121 52.8828 242.945 53.7031 242.703 54.4609C242.461 55.2188 242.141 55.8828 241.742 56.4531C241.352 57.0156 240.875 57.4531 240.312 57.7656C239.75 58.0781 239.094 58.2344 238.344 58.2344C237.555 58.2344 236.852 58.0742 236.234 57.7539C235.625 57.4336 235.109 56.9844 234.688 56.4062C234.273 55.8281 233.957 55.1484 233.738 54.3672C233.52 53.5859 233.41 52.7344 233.41 51.8125ZM236.785 51.5664V51.8125C236.785 52.3359 236.824 52.8242 236.902 53.2773C236.988 53.7305 237.125 54.1328 237.312 54.4844C237.508 54.8281 237.758 55.0977 238.062 55.293C238.375 55.4805 238.754 55.5742 239.199 55.5742C239.777 55.5742 240.254 55.4453 240.629 55.1875C241.004 54.9219 241.289 54.5586 241.484 54.0977C241.688 53.6367 241.805 53.1055 241.836 52.5039V50.9688C241.812 50.4766 241.742 50.0352 241.625 49.6445C241.516 49.2461 241.352 48.9062 241.133 48.625C240.922 48.3438 240.656 48.125 240.336 47.9688C240.023 47.8125 239.652 47.7344 239.223 47.7344C238.785 47.7344 238.41 47.8359 238.098 48.0391C237.785 48.2344 237.531 48.5039 237.336 48.8477C237.148 49.1914 237.008 49.5977 236.914 50.0664C236.828 50.5273 236.785 51.0273 236.785 51.5664ZM253.297 58.2344C252.312 58.2344 251.43 58.0781 250.648 57.7656C249.867 57.4453 249.203 57.0039 248.656 56.4414C248.117 55.8789 247.703 55.2266 247.414 54.4844C247.125 53.7344 246.98 52.9375 246.98 52.0938V51.625C246.98 50.6641 247.117 49.7852 247.391 48.9883C247.664 48.1914 248.055 47.5 248.562 46.9141C249.078 46.3281 249.703 45.8789 250.438 45.5664C251.172 45.2461 252 45.0859 252.922 45.0859C253.82 45.0859 254.617 45.2344 255.312 45.5312C256.008 45.8281 256.59 46.25 257.059 46.7969C257.535 47.3438 257.895 48 258.137 48.7656C258.379 49.5234 258.5 50.3672 258.5 51.2969V52.7031H248.422V50.4531H255.184V50.1953C255.184 49.7266 255.098 49.3086 254.926 48.9414C254.762 48.5664 254.512 48.2695 254.176 48.0508C253.84 47.832 253.41 47.7227 252.887 47.7227C252.441 47.7227 252.059 47.8203 251.738 48.0156C251.418 48.2109 251.156 48.4844 250.953 48.8359C250.758 49.1875 250.609 49.6016 250.508 50.0781C250.414 50.5469 250.367 51.0625 250.367 51.625V52.0938C250.367 52.6016 250.438 53.0703 250.578 53.5C250.727 53.9297 250.934 54.3008 251.199 54.6133C251.473 54.9258 251.801 55.168 252.184 55.3398C252.574 55.5117 253.016 55.5977 253.508 55.5977C254.117 55.5977 254.684 55.4805 255.207 55.2461C255.738 55.0039 256.195 54.6406 256.578 54.1562L258.219 55.9375C257.953 56.3203 257.59 56.6875 257.129 57.0391C256.676 57.3906 256.129 57.6797 255.488 57.9062C254.848 58.125 254.117 58.2344 253.297 58.2344ZM263.797 48.0859V58H260.422V45.3203H263.598L263.797 48.0859ZM267.617 45.2383L267.559 48.3672C267.395 48.3438 267.195 48.3242 266.961 48.3086C266.734 48.2852 266.527 48.2734 266.34 48.2734C265.863 48.2734 265.449 48.3359 265.098 48.4609C264.754 48.5781 264.465 48.7539 264.23 48.9883C264.004 49.2227 263.832 49.5078 263.715 49.8438C263.605 50.1797 263.543 50.5625 263.527 50.9922L262.848 50.7812C262.848 49.9609 262.93 49.207 263.094 48.5195C263.258 47.8242 263.496 47.2188 263.809 46.7031C264.129 46.1875 264.52 45.7891 264.98 45.5078C265.441 45.2266 265.969 45.0859 266.562 45.0859C266.75 45.0859 266.941 45.1016 267.137 45.1328C267.332 45.1562 267.492 45.1914 267.617 45.2383Z" fill="#888888"/>
<path d="M109.93 86.0078V118H102.217V86.0078H109.93ZM119.554 86.0078V91.9624H92.813V86.0078H119.554ZM132.012 118.439C130.079 118.439 128.35 118.139 126.827 117.539C125.303 116.923 124.014 116.081 122.959 115.012C121.919 113.942 121.121 112.712 120.564 111.32C120.022 109.929 119.751 108.457 119.751 106.904V106.069C119.751 104.326 119.993 102.714 120.477 101.235C120.96 99.7407 121.678 98.437 122.63 97.3237C123.582 96.2104 124.776 95.3462 126.211 94.731C127.647 94.1011 129.317 93.7861 131.221 93.7861C132.906 93.7861 134.415 94.0571 135.748 94.5991C137.081 95.1411 138.208 95.9175 139.131 96.9282C140.069 97.939 140.779 99.1621 141.263 100.598C141.761 102.033 142.01 103.645 142.01 105.432V108.442H122.586V103.806H134.781V103.234C134.795 102.443 134.656 101.77 134.363 101.213C134.085 100.656 133.675 100.231 133.133 99.9385C132.591 99.6455 131.932 99.499 131.155 99.499C130.35 99.499 129.683 99.6748 129.156 100.026C128.643 100.378 128.24 100.861 127.947 101.477C127.669 102.077 127.471 102.773 127.354 103.564C127.237 104.355 127.178 105.19 127.178 106.069V106.904C127.178 107.783 127.295 108.581 127.53 109.299C127.779 110.017 128.13 110.632 128.584 111.145C129.053 111.643 129.61 112.031 130.254 112.309C130.914 112.587 131.661 112.727 132.496 112.727C133.506 112.727 134.502 112.536 135.484 112.155C136.465 111.774 137.308 111.145 138.011 110.266L141.373 114.265C140.889 114.953 140.201 115.62 139.307 116.264C138.428 116.909 137.374 117.436 136.143 117.846C134.913 118.242 133.536 118.439 132.012 118.439ZM155.062 112.727C155.75 112.727 156.336 112.602 156.819 112.353C157.317 112.089 157.691 111.723 157.94 111.254C158.204 110.771 158.328 110.192 158.313 109.519H165.279C165.293 111.306 164.854 112.873 163.96 114.221C163.082 115.554 161.88 116.594 160.357 117.341C158.848 118.073 157.142 118.439 155.237 118.439C153.377 118.439 151.751 118.139 150.359 117.539C148.968 116.923 147.803 116.074 146.866 114.99C145.943 113.891 145.247 112.609 144.778 111.145C144.324 109.68 144.097 108.09 144.097 106.376V105.871C144.097 104.157 144.324 102.568 144.778 101.103C145.247 99.6235 145.943 98.3418 146.866 97.2578C147.803 96.1592 148.96 95.3096 150.337 94.709C151.729 94.0938 153.348 93.7861 155.193 93.7861C157.171 93.7861 158.914 94.1597 160.423 94.9067C161.946 95.6538 163.14 96.7378 164.004 98.1587C164.869 99.5796 165.293 101.301 165.279 103.322H158.313C158.328 102.604 158.218 101.96 157.984 101.389C157.75 100.817 157.383 100.363 156.885 100.026C156.402 99.6748 155.779 99.499 155.018 99.499C154.256 99.499 153.641 99.6675 153.172 100.004C152.703 100.341 152.344 100.81 152.095 101.411C151.861 101.997 151.7 102.67 151.612 103.432C151.539 104.194 151.502 105.007 151.502 105.871V106.376C151.502 107.255 151.539 108.083 151.612 108.859C151.7 109.621 151.868 110.295 152.117 110.881C152.366 111.452 152.725 111.906 153.194 112.243C153.663 112.565 154.285 112.727 155.062 112.727ZM175.694 84.25V118H168.289V84.25H175.694ZM174.815 105.3L173.079 105.344C173.079 103.674 173.284 102.136 173.694 100.729C174.104 99.3232 174.69 98.1001 175.452 97.0601C176.214 96.02 177.129 95.2144 178.199 94.6431C179.268 94.0718 180.455 93.7861 181.758 93.7861C182.93 93.7861 184 93.9546 184.966 94.2915C185.948 94.6284 186.79 95.1704 187.493 95.9175C188.211 96.6646 188.76 97.6387 189.141 98.8398C189.537 100.041 189.734 101.506 189.734 103.234V118H182.286V103.19C182.286 102.224 182.146 101.477 181.868 100.949C181.604 100.407 181.224 100.034 180.726 99.8286C180.228 99.6089 179.62 99.499 178.902 99.499C178.038 99.499 177.334 99.6455 176.792 99.9385C176.25 100.231 175.833 100.642 175.54 101.169C175.262 101.682 175.071 102.29 174.969 102.993C174.866 103.696 174.815 104.465 174.815 105.3ZM221.88 109.497C221.88 108.999 221.807 108.552 221.661 108.156C221.514 107.746 221.243 107.365 220.848 107.014C220.452 106.662 219.881 106.311 219.134 105.959C218.401 105.593 217.435 105.212 216.233 104.816C214.827 104.348 213.472 103.82 212.168 103.234C210.865 102.634 209.7 101.938 208.675 101.147C207.649 100.341 206.836 99.4038 206.236 98.3345C205.635 97.2505 205.335 95.9907 205.335 94.5552C205.335 93.1782 205.643 91.9404 206.258 90.8418C206.873 89.7285 207.73 88.7837 208.829 88.0073C209.942 87.2163 211.246 86.6157 212.74 86.2056C214.234 85.7808 215.867 85.5684 217.64 85.5684C219.983 85.5684 222.049 85.9785 223.836 86.7988C225.638 87.6045 227.044 88.7544 228.055 90.2485C229.08 91.728 229.593 93.4785 229.593 95.5H221.924C221.924 94.6943 221.756 93.9839 221.419 93.3687C221.097 92.7534 220.606 92.27 219.947 91.9185C219.288 91.5669 218.46 91.3911 217.464 91.3911C216.497 91.3911 215.684 91.5376 215.025 91.8306C214.366 92.1235 213.868 92.519 213.531 93.0171C213.194 93.5005 213.025 94.0352 213.025 94.6211C213.025 95.1045 213.157 95.5439 213.421 95.9395C213.699 96.3203 214.087 96.6792 214.585 97.0161C215.098 97.353 215.713 97.6753 216.431 97.9829C217.164 98.2905 217.984 98.5908 218.892 98.8838C220.591 99.4258 222.1 100.034 223.418 100.708C224.751 101.367 225.872 102.121 226.78 102.971C227.703 103.806 228.399 104.758 228.868 105.827C229.351 106.896 229.593 108.105 229.593 109.453C229.593 110.888 229.314 112.163 228.758 113.276C228.201 114.389 227.403 115.334 226.363 116.11C225.323 116.872 224.078 117.451 222.627 117.846C221.177 118.242 219.559 118.439 217.771 118.439C216.131 118.439 214.512 118.234 212.916 117.824C211.333 117.399 209.898 116.755 208.609 115.891C207.32 115.012 206.287 113.891 205.511 112.529C204.749 111.152 204.368 109.519 204.368 107.629H212.103C212.103 108.566 212.227 109.357 212.476 110.002C212.725 110.646 213.091 111.167 213.575 111.562C214.058 111.943 214.651 112.221 215.354 112.397C216.058 112.558 216.863 112.639 217.771 112.639C218.753 112.639 219.544 112.5 220.145 112.221C220.745 111.928 221.185 111.547 221.463 111.079C221.741 110.595 221.88 110.068 221.88 109.497ZM245.743 94.2256V99.3672H231.417V94.2256H245.743ZM234.427 88.3149H241.832V110.244C241.832 110.874 241.905 111.364 242.051 111.716C242.198 112.053 242.447 112.294 242.798 112.441C243.165 112.573 243.648 112.639 244.249 112.639C244.673 112.639 245.025 112.631 245.303 112.617C245.582 112.587 245.845 112.551 246.094 112.507V117.802C245.464 118.007 244.805 118.161 244.117 118.264C243.428 118.381 242.696 118.439 241.919 118.439C240.337 118.439 238.982 118.19 237.854 117.692C236.741 117.194 235.892 116.411 235.306 115.341C234.72 114.272 234.427 112.88 234.427 111.167V88.3149ZM261.036 112.023V102.224C261.036 101.55 260.94 100.971 260.75 100.488C260.56 100.004 260.259 99.6309 259.849 99.3672C259.439 99.0889 258.89 98.9497 258.201 98.9497C257.645 98.9497 257.168 99.0449 256.773 99.2354C256.377 99.4258 256.077 99.7114 255.872 100.092C255.667 100.473 255.564 100.957 255.564 101.542H248.16C248.16 100.444 248.401 99.4258 248.885 98.4883C249.383 97.5361 250.086 96.7085 250.994 96.0054C251.917 95.3022 253.016 94.7603 254.29 94.3794C255.579 93.9839 257.015 93.7861 258.597 93.7861C260.486 93.7861 262.171 94.1011 263.65 94.731C265.145 95.3608 266.324 96.3057 267.188 97.5654C268.052 98.8105 268.484 100.378 268.484 102.268V112.001C268.484 113.554 268.572 114.733 268.748 115.539C268.924 116.33 269.173 117.026 269.495 117.626V118H262.068C261.717 117.268 261.453 116.374 261.277 115.319C261.116 114.25 261.036 113.151 261.036 112.023ZM261.937 103.476L261.98 107.431H258.707C258.018 107.431 257.432 107.526 256.949 107.717C256.48 107.907 256.099 108.171 255.806 108.508C255.528 108.83 255.323 109.196 255.191 109.606C255.074 110.017 255.015 110.449 255.015 110.903C255.015 111.342 255.118 111.738 255.323 112.089C255.542 112.426 255.835 112.69 256.202 112.88C256.568 113.071 256.978 113.166 257.432 113.166C258.252 113.166 258.948 113.012 259.52 112.705C260.105 112.382 260.552 111.994 260.86 111.54C261.167 111.086 261.321 110.661 261.321 110.266L262.947 113.298C262.654 113.884 262.317 114.477 261.937 115.078C261.57 115.678 261.109 116.235 260.552 116.748C260.01 117.246 259.344 117.656 258.553 117.978C257.762 118.286 256.802 118.439 255.674 118.439C254.209 118.439 252.862 118.139 251.631 117.539C250.416 116.938 249.441 116.103 248.709 115.034C247.977 113.95 247.61 112.705 247.61 111.298C247.61 110.068 247.83 108.969 248.27 108.002C248.724 107.036 249.405 106.215 250.313 105.542C251.221 104.868 252.378 104.355 253.785 104.003C255.191 103.652 256.846 103.476 258.75 103.476H261.937ZM282.635 112.727C283.323 112.727 283.909 112.602 284.393 112.353C284.891 112.089 285.264 111.723 285.513 111.254C285.777 110.771 285.901 110.192 285.887 109.519H292.852C292.867 111.306 292.427 112.873 291.534 114.221C290.655 115.554 289.454 116.594 287.93 117.341C286.421 118.073 284.715 118.439 282.811 118.439C280.95 118.439 279.324 118.139 277.933 117.539C276.541 116.923 275.376 116.074 274.439 114.99C273.516 113.891 272.82 112.609 272.352 111.145C271.897 109.68 271.67 108.09 271.67 106.376V105.871C271.67 104.157 271.897 102.568 272.352 101.103C272.82 99.6235 273.516 98.3418 274.439 97.2578C275.376 96.1592 276.534 95.3096 277.911 94.709C279.302 94.0938 280.921 93.7861 282.767 93.7861C284.744 93.7861 286.487 94.1597 287.996 94.9067C289.52 95.6538 290.713 96.7378 291.578 98.1587C292.442 99.5796 292.867 101.301 292.852 103.322H285.887C285.901 102.604 285.792 101.96 285.557 101.389C285.323 100.817 284.957 100.363 284.458 100.026C283.975 99.6748 283.353 99.499 282.591 99.499C281.829 99.499 281.214 99.6675 280.745 100.004C280.276 100.341 279.917 100.81 279.668 101.411C279.434 101.997 279.273 102.67 279.185 103.432C279.112 104.194 279.075 105.007 279.075 105.871V106.376C279.075 107.255 279.112 108.083 279.185 108.859C279.273 109.621 279.441 110.295 279.69 110.881C279.939 111.452 280.298 111.906 280.767 112.243C281.236 112.565 281.858 112.727 282.635 112.727ZM303.487 84.228V118H296.082V84.228H303.487ZM318.692 94.2256L308.365 106.333L302.959 111.738L299.729 107.036L304.234 101.169L309.815 94.2256H318.692ZM310.76 118L304.41 107.167L309.881 103.278L319.241 118H310.76Z" fill="#205386"/>
<path d="M1363 15C1363 6.71573 1356.28 0 1348 0H1134V167H1348C1356.28 167 1363 160.284 1363 152V15Z" fill="#7862FF"/>
<path fill-rule="evenodd" clip-rule="evenodd" d="M1218.5 55C1218.37 55 1218.24 55.0527 1218.15 55.1464C1218.05 55.2402 1218 55.3674 1218 55.5V111.5C1218 111.633 1218.05 111.76 1218.15 111.854C1218.24 111.947 1218.37 112 1218.5 112H1278C1278.13 112 1278.26 111.947 1278.35 111.854C1278.45 111.76 1278.5 111.633 1278.5 111.5V66C1278.5 65.8674 1278.45 65.7402 1278.35 65.6464C1278.26 65.5527 1278.13 65.5 1278 65.5H1248.25C1247.36 65.5 1246.52 65.1045 1245.95 64.4206L1238.09 55H1218.5ZM1213.9 50.9038C1215.12 49.6848 1216.78 49 1218.5 49H1239.5C1240.39 49 1241.23 49.3955 1241.8 50.0794L1249.66 59.5H1278C1279.72 59.5 1281.38 60.1848 1282.6 61.4038C1283.82 62.6228 1284.5 64.2761 1284.5 66V111.5C1284.5 113.224 1283.82 114.877 1282.6 116.096C1281.38 117.315 1279.72 118 1278 118H1218.5C1216.78 118 1215.12 117.315 1213.9 116.096C1212.68 114.877 1212 113.224 1212 111.5V55.5C1212 53.7761 1212.68 52.1228 1213.9 50.9038Z" fill="white"/>
<path fill-rule="evenodd" clip-rule="evenodd" d="M1243.72 77.5251C1245.09 78.892 1245.09 81.108 1243.72 82.4749L1237.45 88.75L1243.72 95.0251C1245.09 96.392 1245.09 98.608 1243.72 99.9749C1242.36 101.342 1240.14 101.342 1238.78 99.9749L1230.03 91.2249C1228.66 89.858 1228.66 87.642 1230.03 86.2751L1238.78 77.5251C1240.14 76.1583 1242.36 76.1583 1243.72 77.5251Z" fill="white"/>
<path fill-rule="evenodd" clip-rule="evenodd" d="M1252.03 99.9749C1250.66 98.608 1250.66 96.392 1252.03 95.0251L1258.3 88.75L1252.03 82.4749C1250.66 81.108 1250.66 78.892 1252.03 77.5251C1253.39 76.1583 1255.61 76.1583 1256.97 77.5251L1265.72 86.2751C1267.09 87.642 1267.09 89.858 1265.72 91.2249L1256.97 99.9749C1255.61 101.342 1253.39 101.342 1252.03 99.9749Z" fill="white"/>
</svg>
