<svg width="1363" height="167" viewBox="0 0 1363 167" fill="none" xmlns="http://www.w3.org/2000/svg">
<rect width="1363" height="167" rx="15" fill="#F0F0F0"/>
<path d="M0 15C0 6.71573 6.71573 0 15 0H37V167H15C6.71573 167 0 160.284 0 152V15Z" fill="#424241"/>
<path d="M100.906 54.9219L93.3945 52.2383V49.0859L103.602 53.375V55.6367L100.906 54.9219ZM93.3945 57.1719L100.918 54.4297L103.602 53.7852V56.0352L93.3945 60.3242V57.1719ZM118.543 55.918H114.195V53.1758H118.543C119.215 53.1758 119.762 53.0664 120.184 52.8477C120.605 52.6211 120.914 52.3086 121.109 51.9102C121.305 51.5117 121.402 51.0625 121.402 50.5625C121.402 50.0547 121.305 49.582 121.109 49.1445C120.914 48.707 120.605 48.3555 120.184 48.0898C119.762 47.8242 119.215 47.6914 118.543 47.6914H115.414V62H111.898V44.9375H118.543C119.879 44.9375 121.023 45.1797 121.977 45.6641C122.938 46.1406 123.672 46.8008 124.18 47.6445C124.688 48.4883 124.941 49.4531 124.941 50.5391C124.941 51.6406 124.688 52.5938 124.18 53.3984C123.672 54.2031 122.938 54.8242 121.977 55.2617C121.023 55.6992 119.879 55.918 118.543 55.918ZM133.859 59.1406V53.4922C133.859 53.0859 133.793 52.7383 133.66 52.4492C133.527 52.1523 133.32 51.9219 133.039 51.7578C132.766 51.5938 132.41 51.5117 131.973 51.5117C131.598 51.5117 131.273 51.5781 131 51.7109C130.727 51.8359 130.516 52.0195 130.367 52.2617C130.219 52.4961 130.145 52.7734 130.145 53.0938H126.77C126.77 52.5547 126.895 52.043 127.145 51.5586C127.395 51.0742 127.758 50.6484 128.234 50.2812C128.711 49.9062 129.277 49.6133 129.934 49.4023C130.598 49.1914 131.34 49.0859 132.16 49.0859C133.145 49.0859 134.02 49.25 134.785 49.5781C135.551 49.9062 136.152 50.3984 136.59 51.0547C137.035 51.7109 137.258 52.5312 137.258 53.5156V58.9414C137.258 59.6367 137.301 60.207 137.387 60.6523C137.473 61.0898 137.598 61.4727 137.762 61.8008V62H134.352C134.188 61.6562 134.062 61.2266 133.977 60.7109C133.898 60.1875 133.859 59.6641 133.859 59.1406ZM134.305 54.2773L134.328 56.1875H132.441C131.996 56.1875 131.609 56.2383 131.281 56.3398C130.953 56.4414 130.684 56.5859 130.473 56.7734C130.262 56.9531 130.105 57.1641 130.004 57.4062C129.91 57.6484 129.863 57.9141 129.863 58.2031C129.863 58.4922 129.93 58.7539 130.062 58.9883C130.195 59.2148 130.387 59.3945 130.637 59.5273C130.887 59.6523 131.18 59.7148 131.516 59.7148C132.023 59.7148 132.465 59.6133 132.84 59.4102C133.215 59.207 133.504 58.957 133.707 58.6602C133.918 58.3633 134.027 58.082 134.035 57.8164L134.926 59.2461C134.801 59.5664 134.629 59.8984 134.41 60.2422C134.199 60.5859 133.93 60.9102 133.602 61.2148C133.273 61.5117 132.879 61.7578 132.418 61.9531C131.957 62.1406 131.41 62.2344 130.777 62.2344C129.973 62.2344 129.242 62.0742 128.586 61.7539C127.938 61.4258 127.422 60.9766 127.039 60.4062C126.664 59.8281 126.477 59.1719 126.477 58.4375C126.477 57.7734 126.602 57.1836 126.852 56.668C127.102 56.1523 127.469 55.7188 127.953 55.3672C128.445 55.0078 129.059 54.7383 129.793 54.5586C130.527 54.3711 131.379 54.2773 132.348 54.2773H134.305ZM143.234 52.0859V62H139.859V49.3203H143.035L143.234 52.0859ZM147.055 49.2383L146.996 52.3672C146.832 52.3438 146.633 52.3242 146.398 52.3086C146.172 52.2852 145.965 52.2734 145.777 52.2734C145.301 52.2734 144.887 52.3359 144.535 52.4609C144.191 52.5781 143.902 52.7539 143.668 52.9883C143.441 53.2227 143.27 53.5078 143.152 53.8438C143.043 54.1797 142.98 54.5625 142.965 54.9922L142.285 54.7812C142.285 53.9609 142.367 53.207 142.531 52.5195C142.695 51.8242 142.934 51.2188 143.246 50.7031C143.566 50.1875 143.957 49.7891 144.418 49.5078C144.879 49.2266 145.406 49.0859 146 49.0859C146.188 49.0859 146.379 49.1016 146.574 49.1328C146.77 49.1562 146.93 49.1914 147.055 49.2383ZM152.023 43.9883V62H148.648V43.9883H152.023ZM160.016 49.3203L154.508 55.6016L151.555 58.5898L150.324 56.1523L152.668 53.1758L155.961 49.3203H160.016ZM156.512 62L152.762 56.1406L155.094 54.1016L160.402 62H156.512ZM165.031 49.3203V62H161.645V49.3203H165.031ZM161.434 46.0156C161.434 45.5234 161.605 45.1172 161.949 44.7969C162.293 44.4766 162.754 44.3164 163.332 44.3164C163.902 44.3164 164.359 44.4766 164.703 44.7969C165.055 45.1172 165.23 45.5234 165.23 46.0156C165.23 46.5078 165.055 46.9141 164.703 47.2344C164.359 47.5547 163.902 47.7148 163.332 47.7148C162.754 47.7148 162.293 47.5547 161.949 47.2344C161.605 46.9141 161.434 46.5078 161.434 46.0156ZM171.125 52.0273V62H167.75V49.3203H170.914L171.125 52.0273ZM170.633 55.2148H169.719C169.719 54.2773 169.84 53.4336 170.082 52.6836C170.324 51.9258 170.664 51.2812 171.102 50.75C171.539 50.2109 172.059 49.8008 172.66 49.5195C173.27 49.2305 173.949 49.0859 174.699 49.0859C175.293 49.0859 175.836 49.1719 176.328 49.3438C176.82 49.5156 177.242 49.7891 177.594 50.1641C177.953 50.5391 178.227 51.0352 178.414 51.6523C178.609 52.2695 178.707 53.0234 178.707 53.9141V62H175.309V53.9023C175.309 53.3398 175.23 52.9023 175.074 52.5898C174.918 52.2773 174.688 52.0586 174.383 51.9336C174.086 51.8008 173.719 51.7344 173.281 51.7344C172.828 51.7344 172.434 51.8242 172.098 52.0039C171.77 52.1836 171.496 52.4336 171.277 52.7539C171.066 53.0664 170.906 53.4336 170.797 53.8555C170.688 54.2773 170.633 54.7305 170.633 55.2148ZM189.301 49.3203H192.359V61.5781C192.359 62.7344 192.102 63.7148 191.586 64.5195C191.078 65.332 190.367 65.9453 189.453 66.3594C188.539 66.7812 187.477 66.9922 186.266 66.9922C185.734 66.9922 185.172 66.9219 184.578 66.7812C183.992 66.6406 183.43 66.4219 182.891 66.125C182.359 65.8281 181.914 65.4531 181.555 65L183.043 63.0078C183.434 63.4609 183.887 63.8125 184.402 64.0625C184.918 64.3203 185.488 64.4492 186.113 64.4492C186.723 64.4492 187.238 64.3359 187.66 64.1094C188.082 63.8906 188.406 63.5664 188.633 63.1367C188.859 62.7148 188.973 62.2031 188.973 61.6016V52.25L189.301 49.3203ZM180.77 55.8125V55.5664C180.77 54.5977 180.887 53.7188 181.121 52.9297C181.363 52.1328 181.703 51.4492 182.141 50.8789C182.586 50.3086 183.125 49.8672 183.758 49.5547C184.391 49.2422 185.105 49.0859 185.902 49.0859C186.746 49.0859 187.453 49.2422 188.023 49.5547C188.594 49.8672 189.062 50.3125 189.43 50.8906C189.797 51.4609 190.082 52.1367 190.285 52.918C190.496 53.6914 190.66 54.5391 190.777 55.4609V56C190.66 56.8828 190.484 57.7031 190.25 58.4609C190.016 59.2188 189.707 59.8828 189.324 60.4531C188.941 61.0156 188.465 61.4531 187.895 61.7656C187.332 62.0781 186.66 62.2344 185.879 62.2344C185.098 62.2344 184.391 62.0742 183.758 61.7539C183.133 61.4336 182.598 60.9844 182.152 60.4062C181.707 59.8281 181.363 59.1484 181.121 58.3672C180.887 57.5859 180.77 56.7344 180.77 55.8125ZM184.145 55.5664V55.8125C184.145 56.3359 184.195 56.8242 184.297 57.2773C184.398 57.7305 184.555 58.1328 184.766 58.4844C184.984 58.8281 185.254 59.0977 185.574 59.293C185.902 59.4805 186.289 59.5742 186.734 59.5742C187.352 59.5742 187.855 59.4453 188.246 59.1875C188.637 58.9219 188.93 58.5586 189.125 58.0977C189.32 57.6367 189.434 57.1055 189.465 56.5039V54.9688C189.449 54.4766 189.383 54.0352 189.266 53.6445C189.148 53.2461 188.984 52.9062 188.773 52.625C188.562 52.3438 188.289 52.125 187.953 51.9688C187.617 51.8125 187.219 51.7344 186.758 51.7344C186.312 51.7344 185.926 51.8359 185.598 52.0391C185.277 52.2344 185.008 52.5039 184.789 52.8477C184.578 53.1914 184.418 53.5977 184.309 54.0664C184.199 54.5273 184.145 55.0273 184.145 55.5664ZM204.688 44.9375V62H201.172V44.9375H204.688ZM211.484 52.2266V54.9688H203.727V52.2266H211.484ZM212.305 44.9375V47.6914H203.727V44.9375H212.305ZM217.695 49.3203V62H214.309V49.3203H217.695ZM214.098 46.0156C214.098 45.5234 214.27 45.1172 214.613 44.7969C214.957 44.4766 215.418 44.3164 215.996 44.3164C216.566 44.3164 217.023 44.4766 217.367 44.7969C217.719 45.1172 217.895 45.5234 217.895 46.0156C217.895 46.5078 217.719 46.9141 217.367 47.2344C217.023 47.5547 216.566 47.7148 215.996 47.7148C215.418 47.7148 214.957 47.5547 214.613 47.2344C214.27 46.9141 214.098 46.5078 214.098 46.0156ZM223.789 52.0273V62H220.414V49.3203H223.578L223.789 52.0273ZM223.297 55.2148H222.383C222.383 54.2773 222.504 53.4336 222.746 52.6836C222.988 51.9258 223.328 51.2812 223.766 50.75C224.203 50.2109 224.723 49.8008 225.324 49.5195C225.934 49.2305 226.613 49.0859 227.363 49.0859C227.957 49.0859 228.5 49.1719 228.992 49.3438C229.484 49.5156 229.906 49.7891 230.258 50.1641C230.617 50.5391 230.891 51.0352 231.078 51.6523C231.273 52.2695 231.371 53.0234 231.371 53.9141V62H227.973V53.9023C227.973 53.3398 227.895 52.9023 227.738 52.5898C227.582 52.2773 227.352 52.0586 227.047 51.9336C226.75 51.8008 226.383 51.7344 225.945 51.7344C225.492 51.7344 225.098 51.8242 224.762 52.0039C224.434 52.1836 224.16 52.4336 223.941 52.7539C223.73 53.0664 223.57 53.4336 223.461 53.8555C223.352 54.2773 223.297 54.7305 223.297 55.2148ZM241.426 59.2344V44H244.824V62H241.766L241.426 59.2344ZM233.41 55.8125V55.5664C233.41 54.5977 233.52 53.7188 233.738 52.9297C233.957 52.1328 234.277 51.4492 234.699 50.8789C235.121 50.3086 235.641 49.8672 236.258 49.5547C236.875 49.2422 237.578 49.0859 238.367 49.0859C239.109 49.0859 239.758 49.2422 240.312 49.5547C240.875 49.8672 241.352 50.3125 241.742 50.8906C242.141 51.4609 242.461 52.1367 242.703 52.918C242.945 53.6914 243.121 54.5391 243.23 55.4609V56C243.121 56.8828 242.945 57.7031 242.703 58.4609C242.461 59.2188 242.141 59.8828 241.742 60.4531C241.352 61.0156 240.875 61.4531 240.312 61.7656C239.75 62.0781 239.094 62.2344 238.344 62.2344C237.555 62.2344 236.852 62.0742 236.234 61.7539C235.625 61.4336 235.109 60.9844 234.688 60.4062C234.273 59.8281 233.957 59.1484 233.738 58.3672C233.52 57.5859 233.41 56.7344 233.41 55.8125ZM236.785 55.5664V55.8125C236.785 56.3359 236.824 56.8242 236.902 57.2773C236.988 57.7305 237.125 58.1328 237.312 58.4844C237.508 58.8281 237.758 59.0977 238.062 59.293C238.375 59.4805 238.754 59.5742 239.199 59.5742C239.777 59.5742 240.254 59.4453 240.629 59.1875C241.004 58.9219 241.289 58.5586 241.484 58.0977C241.688 57.6367 241.805 57.1055 241.836 56.5039V54.9688C241.812 54.4766 241.742 54.0352 241.625 53.6445C241.516 53.2461 241.352 52.9062 241.133 52.625C240.922 52.3438 240.656 52.125 240.336 51.9688C240.023 51.8125 239.652 51.7344 239.223 51.7344C238.785 51.7344 238.41 51.8359 238.098 52.0391C237.785 52.2344 237.531 52.5039 237.336 52.8477C237.148 53.1914 237.008 53.5977 236.914 54.0664C236.828 54.5273 236.785 55.0273 236.785 55.5664ZM253.297 62.2344C252.312 62.2344 251.43 62.0781 250.648 61.7656C249.867 61.4453 249.203 61.0039 248.656 60.4414C248.117 59.8789 247.703 59.2266 247.414 58.4844C247.125 57.7344 246.98 56.9375 246.98 56.0938V55.625C246.98 54.6641 247.117 53.7852 247.391 52.9883C247.664 52.1914 248.055 51.5 248.562 50.9141C249.078 50.3281 249.703 49.8789 250.438 49.5664C251.172 49.2461 252 49.0859 252.922 49.0859C253.82 49.0859 254.617 49.2344 255.312 49.5312C256.008 49.8281 256.59 50.25 257.059 50.7969C257.535 51.3438 257.895 52 258.137 52.7656C258.379 53.5234 258.5 54.3672 258.5 55.2969V56.7031H248.422V54.4531H255.184V54.1953C255.184 53.7266 255.098 53.3086 254.926 52.9414C254.762 52.5664 254.512 52.2695 254.176 52.0508C253.84 51.832 253.41 51.7227 252.887 51.7227C252.441 51.7227 252.059 51.8203 251.738 52.0156C251.418 52.2109 251.156 52.4844 250.953 52.8359C250.758 53.1875 250.609 53.6016 250.508 54.0781C250.414 54.5469 250.367 55.0625 250.367 55.625V56.0938C250.367 56.6016 250.438 57.0703 250.578 57.5C250.727 57.9297 250.934 58.3008 251.199 58.6133C251.473 58.9258 251.801 59.168 252.184 59.3398C252.574 59.5117 253.016 59.5977 253.508 59.5977C254.117 59.5977 254.684 59.4805 255.207 59.2461C255.738 59.0039 256.195 58.6406 256.578 58.1562L258.219 59.9375C257.953 60.3203 257.59 60.6875 257.129 61.0391C256.676 61.3906 256.129 61.6797 255.488 61.9062C254.848 62.125 254.117 62.2344 253.297 62.2344ZM263.797 52.0859V62H260.422V49.3203H263.598L263.797 52.0859ZM267.617 49.2383L267.559 52.3672C267.395 52.3438 267.195 52.3242 266.961 52.3086C266.734 52.2852 266.527 52.2734 266.34 52.2734C265.863 52.2734 265.449 52.3359 265.098 52.4609C264.754 52.5781 264.465 52.7539 264.23 52.9883C264.004 53.2227 263.832 53.5078 263.715 53.8438C263.605 54.1797 263.543 54.5625 263.527 54.9922L262.848 54.7812C262.848 53.9609 262.93 53.207 263.094 52.5195C263.258 51.8242 263.496 51.2188 263.809 50.7031C264.129 50.1875 264.52 49.7891 264.98 49.5078C265.441 49.2266 265.969 49.0859 266.562 49.0859C266.75 49.0859 266.941 49.1016 267.137 49.1328C267.332 49.1562 267.492 49.1914 267.617 49.2383Z" fill="#888888"/>
<path d="M101.822 115.1L108.194 86.0078H111.995L114.061 88.4907L107.271 118H103.074L101.822 115.1ZM100.13 86.0078L105.513 115.319L104.129 118H99.2729L92.4834 86.0078H100.13ZM117.554 115.166L122.894 86.0078H130.518L123.729 118H118.895L117.554 115.166ZM114.742 86.0078L121.268 115.275L119.949 118H115.752L108.809 88.4468L110.962 86.0078H114.742ZM141.021 94.2256V118H133.594V94.2256H141.021ZM133.155 88.0952C133.155 87.0405 133.536 86.1763 134.297 85.5024C135.059 84.8286 136.048 84.4917 137.264 84.4917C138.479 84.4917 139.468 84.8286 140.23 85.5024C140.992 86.1763 141.373 87.0405 141.373 88.0952C141.373 89.1499 140.992 90.0142 140.23 90.688C139.468 91.3618 138.479 91.6987 137.264 91.6987C136.048 91.6987 135.059 91.3618 134.297 90.688C133.536 90.0142 133.155 89.1499 133.155 88.0952ZM153.062 100.114V118H145.657V94.2256H152.579L153.062 100.114ZM160.093 94.0498L159.961 100.927C159.668 100.898 159.273 100.861 158.775 100.817C158.277 100.773 157.859 100.751 157.522 100.751C156.658 100.751 155.911 100.854 155.281 101.059C154.666 101.25 154.153 101.542 153.743 101.938C153.348 102.319 153.055 102.802 152.864 103.388C152.688 103.974 152.608 104.655 152.623 105.432L151.282 104.553C151.282 102.956 151.436 101.506 151.744 100.202C152.066 98.8838 152.52 97.7485 153.106 96.7964C153.692 95.8296 154.402 95.0898 155.237 94.5771C156.072 94.0498 157.01 93.7861 158.05 93.7861C158.416 93.7861 158.775 93.8081 159.126 93.8521C159.493 93.896 159.815 93.9619 160.093 94.0498ZM173.716 118.439C171.783 118.439 170.054 118.139 168.531 117.539C167.007 116.923 165.718 116.081 164.664 115.012C163.624 113.942 162.825 112.712 162.269 111.32C161.727 109.929 161.456 108.457 161.456 106.904V106.069C161.456 104.326 161.697 102.714 162.181 101.235C162.664 99.7407 163.382 98.437 164.334 97.3237C165.286 96.2104 166.48 95.3462 167.916 94.731C169.351 94.1011 171.021 93.7861 172.925 93.7861C174.61 93.7861 176.119 94.0571 177.452 94.5991C178.785 95.1411 179.913 95.9175 180.835 96.9282C181.773 97.939 182.483 99.1621 182.967 100.598C183.465 102.033 183.714 103.645 183.714 105.432V108.442H164.29V103.806H176.485V103.234C176.5 102.443 176.36 101.77 176.067 101.213C175.789 100.656 175.379 100.231 174.837 99.9385C174.295 99.6455 173.636 99.499 172.859 99.499C172.054 99.499 171.387 99.6748 170.86 100.026C170.347 100.378 169.944 100.861 169.651 101.477C169.373 102.077 169.175 102.773 169.058 103.564C168.941 104.355 168.882 105.19 168.882 106.069V106.904C168.882 107.783 169 108.581 169.234 109.299C169.483 110.017 169.834 110.632 170.289 111.145C170.757 111.643 171.314 112.031 171.958 112.309C172.618 112.587 173.365 112.727 174.2 112.727C175.21 112.727 176.207 112.536 177.188 112.155C178.169 111.774 179.012 111.145 179.715 110.266L183.077 114.265C182.593 114.953 181.905 115.62 181.011 116.264C180.132 116.909 179.078 117.436 177.847 117.846C176.617 118.242 175.24 118.439 173.716 118.439ZM195.799 118H188.35V92.292C188.35 90.4463 188.724 88.8936 189.471 87.6338C190.218 86.374 191.272 85.4219 192.635 84.7773C193.997 84.1182 195.608 83.7886 197.469 83.7886C198.113 83.7886 198.721 83.8325 199.292 83.9204C199.864 84.0083 200.42 84.1182 200.962 84.25L200.984 89.6992C200.721 89.626 200.45 89.5747 200.171 89.5454C199.893 89.5161 199.549 89.5015 199.139 89.5015C198.421 89.5015 197.813 89.6113 197.315 89.8311C196.817 90.0361 196.436 90.3511 196.172 90.7759C195.923 91.186 195.799 91.6914 195.799 92.292V118ZM200.413 94.2256V99.3672H184.922V94.2256H200.413ZM210.542 100.114V118H203.138V94.2256H210.059L210.542 100.114ZM217.574 94.0498L217.442 100.927C217.149 100.898 216.753 100.861 216.255 100.817C215.757 100.773 215.34 100.751 215.003 100.751C214.139 100.751 213.392 100.854 212.762 101.059C212.146 101.25 211.634 101.542 211.224 101.938C210.828 102.319 210.535 102.802 210.345 103.388C210.169 103.974 210.088 104.655 210.103 105.432L208.763 104.553C208.763 102.956 208.917 101.506 209.224 100.202C209.546 98.8838 210 97.7485 210.586 96.7964C211.172 95.8296 211.883 95.0898 212.718 94.5771C213.553 94.0498 214.49 93.7861 215.53 93.7861C215.896 93.7861 216.255 93.8081 216.607 93.8521C216.973 93.896 217.295 93.9619 217.574 94.0498ZM231.812 112.023V102.224C231.812 101.55 231.717 100.971 231.526 100.488C231.336 100.004 231.036 99.6309 230.625 99.3672C230.215 99.0889 229.666 98.9497 228.978 98.9497C228.421 98.9497 227.945 99.0449 227.549 99.2354C227.154 99.4258 226.854 99.7114 226.648 100.092C226.443 100.473 226.341 100.957 226.341 101.542H218.936C218.936 100.444 219.178 99.4258 219.661 98.4883C220.159 97.5361 220.862 96.7085 221.771 96.0054C222.693 95.3022 223.792 94.7603 225.066 94.3794C226.355 93.9839 227.791 93.7861 229.373 93.7861C231.263 93.7861 232.947 94.1011 234.427 94.731C235.921 95.3608 237.1 96.3057 237.964 97.5654C238.829 98.8105 239.261 100.378 239.261 102.268V112.001C239.261 113.554 239.349 114.733 239.524 115.539C239.7 116.33 239.949 117.026 240.271 117.626V118H232.845C232.493 117.268 232.229 116.374 232.054 115.319C231.893 114.25 231.812 113.151 231.812 112.023ZM232.713 103.476L232.757 107.431H229.483C228.794 107.431 228.208 107.526 227.725 107.717C227.256 107.907 226.875 108.171 226.583 108.508C226.304 108.83 226.099 109.196 225.967 109.606C225.85 110.017 225.792 110.449 225.792 110.903C225.792 111.342 225.894 111.738 226.099 112.089C226.319 112.426 226.612 112.69 226.978 112.88C227.344 113.071 227.754 113.166 228.208 113.166C229.029 113.166 229.725 113.012 230.296 112.705C230.882 112.382 231.329 111.994 231.636 111.54C231.944 111.086 232.098 110.661 232.098 110.266L233.724 113.298C233.431 113.884 233.094 114.477 232.713 115.078C232.347 115.678 231.885 116.235 231.329 116.748C230.787 117.246 230.12 117.656 229.329 117.978C228.538 118.286 227.579 118.439 226.451 118.439C224.986 118.439 223.638 118.139 222.408 117.539C221.192 116.938 220.218 116.103 219.485 115.034C218.753 113.95 218.387 112.705 218.387 111.298C218.387 110.068 218.606 108.969 219.046 108.002C219.5 107.036 220.181 106.215 221.089 105.542C221.998 104.868 223.155 104.355 224.561 104.003C225.967 103.652 227.623 103.476 229.527 103.476H232.713ZM250.84 99.2573V118H243.436V94.2256H250.379L250.84 99.2573ZM249.939 105.3L248.248 105.344C248.248 103.674 248.445 102.136 248.841 100.729C249.236 99.3232 249.822 98.1001 250.599 97.0601C251.375 96.02 252.327 95.2144 253.455 94.6431C254.598 94.0718 255.916 93.7861 257.41 93.7861C258.45 93.7861 259.395 93.9473 260.245 94.2695C261.094 94.5771 261.827 95.0679 262.442 95.7417C263.057 96.4009 263.526 97.2651 263.848 98.3345C264.185 99.3892 264.354 100.656 264.354 102.136V118H256.949V103.081C256.949 102.07 256.832 101.308 256.597 100.795C256.377 100.283 256.055 99.9385 255.63 99.7627C255.206 99.5869 254.686 99.499 254.07 99.499C253.426 99.499 252.847 99.6455 252.334 99.9385C251.822 100.231 251.382 100.642 251.016 101.169C250.665 101.682 250.394 102.29 250.203 102.993C250.027 103.696 249.939 104.465 249.939 105.3ZM263.519 105.3L261.453 105.344C261.453 103.674 261.636 102.136 262.002 100.729C262.383 99.3232 262.947 98.1001 263.694 97.0601C264.456 96.02 265.401 95.2144 266.529 94.6431C267.657 94.0718 268.968 93.7861 270.462 93.7861C271.546 93.7861 272.542 93.9473 273.45 94.2695C274.358 94.5918 275.142 95.1118 275.801 95.8296C276.46 96.5474 276.973 97.4995 277.339 98.686C277.706 99.8579 277.889 101.308 277.889 103.037V118H270.462V103.037C270.462 102.055 270.345 101.315 270.11 100.817C269.891 100.305 269.568 99.9604 269.144 99.7847C268.719 99.5942 268.213 99.499 267.627 99.499C266.924 99.499 266.316 99.6455 265.804 99.9385C265.291 100.231 264.859 100.642 264.507 101.169C264.17 101.682 263.921 102.29 263.76 102.993C263.599 103.696 263.519 104.465 263.519 105.3ZM293.643 118.439C291.709 118.439 289.981 118.139 288.458 117.539C286.934 116.923 285.645 116.081 284.59 115.012C283.55 113.942 282.752 112.712 282.195 111.32C281.653 109.929 281.382 108.457 281.382 106.904V106.069C281.382 104.326 281.624 102.714 282.107 101.235C282.591 99.7407 283.309 98.437 284.261 97.3237C285.213 96.2104 286.407 95.3462 287.842 94.731C289.278 94.1011 290.948 93.7861 292.852 93.7861C294.537 93.7861 296.045 94.0571 297.378 94.5991C298.711 95.1411 299.839 95.9175 300.762 96.9282C301.7 97.939 302.41 99.1621 302.894 100.598C303.392 102.033 303.641 103.645 303.641 105.432V108.442H284.217V103.806H296.412V103.234C296.426 102.443 296.287 101.77 295.994 101.213C295.716 100.656 295.306 100.231 294.764 99.9385C294.222 99.6455 293.562 99.499 292.786 99.499C291.98 99.499 291.314 99.6748 290.787 100.026C290.274 100.378 289.871 100.861 289.578 101.477C289.3 102.077 289.102 102.773 288.985 103.564C288.868 104.355 288.809 105.19 288.809 106.069V106.904C288.809 107.783 288.926 108.581 289.161 109.299C289.41 110.017 289.761 110.632 290.215 111.145C290.684 111.643 291.241 112.031 291.885 112.309C292.544 112.587 293.292 112.727 294.126 112.727C295.137 112.727 296.133 112.536 297.115 112.155C298.096 111.774 298.938 111.145 299.642 110.266L303.003 114.265C302.52 114.953 301.832 115.62 300.938 116.264C300.059 116.909 299.004 117.436 297.774 117.846C296.543 118.242 295.167 118.439 293.643 118.439ZM319.109 111.32C319.109 110.91 318.97 110.559 318.692 110.266C318.428 109.958 317.959 109.68 317.286 109.431C316.612 109.167 315.667 108.903 314.451 108.64C313.294 108.391 312.203 108.061 311.177 107.651C310.167 107.241 309.28 106.743 308.519 106.157C307.757 105.571 307.156 104.875 306.717 104.069C306.292 103.264 306.08 102.341 306.08 101.301C306.08 100.29 306.292 99.3379 306.717 98.4443C307.156 97.5361 307.793 96.7378 308.628 96.0493C309.478 95.3462 310.511 94.7969 311.727 94.4014C312.942 93.9912 314.327 93.7861 315.879 93.7861C318.018 93.7861 319.864 94.1157 321.417 94.7749C322.969 95.4194 324.163 96.3276 324.998 97.4995C325.848 98.6567 326.272 99.9971 326.272 101.521H318.868C318.868 100.92 318.765 100.407 318.56 99.9824C318.37 99.5576 318.055 99.2354 317.615 99.0156C317.176 98.7812 316.59 98.6641 315.857 98.6641C315.345 98.6641 314.876 98.7593 314.451 98.9497C314.041 99.1401 313.711 99.4038 313.462 99.7407C313.213 100.078 313.089 100.473 313.089 100.927C313.089 101.25 313.162 101.542 313.309 101.806C313.47 102.055 313.711 102.29 314.034 102.509C314.356 102.714 314.766 102.905 315.264 103.081C315.762 103.242 316.363 103.388 317.066 103.52C318.663 103.813 320.157 104.23 321.548 104.772C322.94 105.314 324.068 106.083 324.932 107.08C325.811 108.076 326.25 109.416 326.25 111.101C326.25 112.155 326.009 113.129 325.525 114.023C325.042 114.902 324.346 115.678 323.438 116.352C322.53 117.011 321.438 117.524 320.164 117.89C318.89 118.256 317.454 118.439 315.857 118.439C313.587 118.439 311.668 118.037 310.101 117.231C308.533 116.411 307.347 115.385 306.541 114.155C305.75 112.91 305.354 111.65 305.354 110.375H312.254C312.283 111.108 312.459 111.708 312.781 112.177C313.118 112.646 313.565 112.99 314.122 113.21C314.678 113.43 315.323 113.54 316.055 113.54C316.729 113.54 317.286 113.444 317.725 113.254C318.179 113.063 318.523 112.807 318.758 112.485C318.992 112.148 319.109 111.76 319.109 111.32Z" fill="#205386"/>
<path d="M1363 15C1363 6.71573 1356.28 0 1348 0H1134V167H1348C1356.28 167 1363 160.284 1363 152V15Z" fill="#7862FF"/>
<path fill-rule="evenodd" clip-rule="evenodd" d="M1203 49C1203 47.8954 1203.9 47 1205 47H1292.5C1293.6 47 1294.5 47.8954 1294.5 49V118.996C1294.5 120.101 1293.6 120.996 1292.5 120.996H1205C1203.9 120.996 1203 120.101 1203 118.996V49ZM1207 51V55.4945H1290.5V51H1207ZM1290.5 59.4945H1235.44V116.996H1290.5V59.4945ZM1231.44 116.996V59.4945H1207V116.996H1231.44Z" fill="white"/>
<path fill-rule="evenodd" clip-rule="evenodd" d="M1209.97 64.8004C1209.97 63.6958 1210.87 62.8004 1211.97 62.8004H1225.97C1227.08 62.8004 1227.97 63.6958 1227.97 64.8004V84.1956C1227.97 85.3001 1227.08 86.1956 1225.97 86.1956H1211.97C1210.87 86.1956 1209.97 85.3001 1209.97 84.1956V64.8004ZM1213.97 66.8004V82.1956H1223.97V66.8004H1213.97ZM1239.58 65.6964C1239.58 64.5918 1240.47 63.6964 1241.58 63.6964H1284.5C1285.61 63.6964 1286.5 64.5918 1286.5 65.6964V111.905C1286.5 113.01 1285.61 113.905 1284.5 113.905H1241.58C1240.47 113.905 1239.58 113.01 1239.58 111.905V65.6964ZM1243.58 67.6964V109.905H1282.5V67.6964H1243.58ZM1209.81 95.9363C1209.81 94.8317 1210.71 93.9363 1211.81 93.9363H1220.73C1221.84 93.9363 1222.73 94.8317 1222.73 95.9363C1222.73 97.0409 1221.84 97.9363 1220.73 97.9363H1211.81C1210.71 97.9363 1209.81 97.0409 1209.81 95.9363ZM1209.81 102.936C1209.81 101.832 1210.71 100.936 1211.81 100.936H1226.35C1227.46 100.936 1228.35 101.832 1228.35 102.936C1228.35 104.041 1227.46 104.936 1226.35 104.936H1211.81C1210.71 104.936 1209.81 104.041 1209.81 102.936ZM1209.81 109.936C1209.81 108.832 1210.71 107.936 1211.81 107.936H1220.73C1221.84 107.936 1222.73 108.832 1222.73 109.936C1222.73 111.041 1221.84 111.936 1220.73 111.936H1211.81C1210.71 111.936 1209.81 111.041 1209.81 109.936Z" fill="white"/>
</svg>
