<svg width="1363" height="167" viewBox="0 0 1363 167" fill="none" xmlns="http://www.w3.org/2000/svg">
<rect width="1363" height="167" rx="15" fill="#F0F0F0"/>
<path d="M0 15C0 6.71573 6.71573 0 15 0H37V167H15C6.71573 167 0 160.284 0 152V15Z" fill="#424241"/>
<path d="M100.906 54.9219L93.3945 52.2383V49.0859L103.602 53.375V55.6367L100.906 54.9219ZM93.3945 57.1719L100.918 54.4297L103.602 53.7852V56.0352L93.3945 60.3242V57.1719ZM118.543 55.918H114.195V53.1758H118.543C119.215 53.1758 119.762 53.0664 120.184 52.8477C120.605 52.6211 120.914 52.3086 121.109 51.9102C121.305 51.5117 121.402 51.0625 121.402 50.5625C121.402 50.0547 121.305 49.582 121.109 49.1445C120.914 48.707 120.605 48.3555 120.184 48.0898C119.762 47.8242 119.215 47.6914 118.543 47.6914H115.414V62H111.898V44.9375H118.543C119.879 44.9375 121.023 45.1797 121.977 45.6641C122.938 46.1406 123.672 46.8008 124.18 47.6445C124.688 48.4883 124.941 49.4531 124.941 50.5391C124.941 51.6406 124.688 52.5938 124.18 53.3984C123.672 54.2031 122.938 54.8242 121.977 55.2617C121.023 55.6992 119.879 55.918 118.543 55.918ZM133.859 59.1406V53.4922C133.859 53.0859 133.793 52.7383 133.66 52.4492C133.527 52.1523 133.32 51.9219 133.039 51.7578C132.766 51.5938 132.41 51.5117 131.973 51.5117C131.598 51.5117 131.273 51.5781 131 51.7109C130.727 51.8359 130.516 52.0195 130.367 52.2617C130.219 52.4961 130.145 52.7734 130.145 53.0938H126.77C126.77 52.5547 126.895 52.043 127.145 51.5586C127.395 51.0742 127.758 50.6484 128.234 50.2812C128.711 49.9062 129.277 49.6133 129.934 49.4023C130.598 49.1914 131.34 49.0859 132.16 49.0859C133.145 49.0859 134.02 49.25 134.785 49.5781C135.551 49.9062 136.152 50.3984 136.59 51.0547C137.035 51.7109 137.258 52.5312 137.258 53.5156V58.9414C137.258 59.6367 137.301 60.207 137.387 60.6523C137.473 61.0898 137.598 61.4727 137.762 61.8008V62H134.352C134.188 61.6562 134.062 61.2266 133.977 60.7109C133.898 60.1875 133.859 59.6641 133.859 59.1406ZM134.305 54.2773L134.328 56.1875H132.441C131.996 56.1875 131.609 56.2383 131.281 56.3398C130.953 56.4414 130.684 56.5859 130.473 56.7734C130.262 56.9531 130.105 57.1641 130.004 57.4062C129.91 57.6484 129.863 57.9141 129.863 58.2031C129.863 58.4922 129.93 58.7539 130.062 58.9883C130.195 59.2148 130.387 59.3945 130.637 59.5273C130.887 59.6523 131.18 59.7148 131.516 59.7148C132.023 59.7148 132.465 59.6133 132.84 59.4102C133.215 59.207 133.504 58.957 133.707 58.6602C133.918 58.3633 134.027 58.082 134.035 57.8164L134.926 59.2461C134.801 59.5664 134.629 59.8984 134.41 60.2422C134.199 60.5859 133.93 60.9102 133.602 61.2148C133.273 61.5117 132.879 61.7578 132.418 61.9531C131.957 62.1406 131.41 62.2344 130.777 62.2344C129.973 62.2344 129.242 62.0742 128.586 61.7539C127.938 61.4258 127.422 60.9766 127.039 60.4062C126.664 59.8281 126.477 59.1719 126.477 58.4375C126.477 57.7734 126.602 57.1836 126.852 56.668C127.102 56.1523 127.469 55.7188 127.953 55.3672C128.445 55.0078 129.059 54.7383 129.793 54.5586C130.527 54.3711 131.379 54.2773 132.348 54.2773H134.305ZM143.234 52.0859V62H139.859V49.3203H143.035L143.234 52.0859ZM147.055 49.2383L146.996 52.3672C146.832 52.3438 146.633 52.3242 146.398 52.3086C146.172 52.2852 145.965 52.2734 145.777 52.2734C145.301 52.2734 144.887 52.3359 144.535 52.4609C144.191 52.5781 143.902 52.7539 143.668 52.9883C143.441 53.2227 143.27 53.5078 143.152 53.8438C143.043 54.1797 142.98 54.5625 142.965 54.9922L142.285 54.7812C142.285 53.9609 142.367 53.207 142.531 52.5195C142.695 51.8242 142.934 51.2188 143.246 50.7031C143.566 50.1875 143.957 49.7891 144.418 49.5078C144.879 49.2266 145.406 49.0859 146 49.0859C146.188 49.0859 146.379 49.1016 146.574 49.1328C146.77 49.1562 146.93 49.1914 147.055 49.2383ZM152.023 43.9883V62H148.648V43.9883H152.023ZM160.016 49.3203L154.508 55.6016L151.555 58.5898L150.324 56.1523L152.668 53.1758L155.961 49.3203H160.016ZM156.512 62L152.762 56.1406L155.094 54.1016L160.402 62H156.512ZM165.031 49.3203V62H161.645V49.3203H165.031ZM161.434 46.0156C161.434 45.5234 161.605 45.1172 161.949 44.7969C162.293 44.4766 162.754 44.3164 163.332 44.3164C163.902 44.3164 164.359 44.4766 164.703 44.7969C165.055 45.1172 165.23 45.5234 165.23 46.0156C165.23 46.5078 165.055 46.9141 164.703 47.2344C164.359 47.5547 163.902 47.7148 163.332 47.7148C162.754 47.7148 162.293 47.5547 161.949 47.2344C161.605 46.9141 161.434 46.5078 161.434 46.0156ZM171.125 52.0273V62H167.75V49.3203H170.914L171.125 52.0273ZM170.633 55.2148H169.719C169.719 54.2773 169.84 53.4336 170.082 52.6836C170.324 51.9258 170.664 51.2812 171.102 50.75C171.539 50.2109 172.059 49.8008 172.66 49.5195C173.27 49.2305 173.949 49.0859 174.699 49.0859C175.293 49.0859 175.836 49.1719 176.328 49.3438C176.82 49.5156 177.242 49.7891 177.594 50.1641C177.953 50.5391 178.227 51.0352 178.414 51.6523C178.609 52.2695 178.707 53.0234 178.707 53.9141V62H175.309V53.9023C175.309 53.3398 175.23 52.9023 175.074 52.5898C174.918 52.2773 174.688 52.0586 174.383 51.9336C174.086 51.8008 173.719 51.7344 173.281 51.7344C172.828 51.7344 172.434 51.8242 172.098 52.0039C171.77 52.1836 171.496 52.4336 171.277 52.7539C171.066 53.0664 170.906 53.4336 170.797 53.8555C170.688 54.2773 170.633 54.7305 170.633 55.2148ZM189.301 49.3203H192.359V61.5781C192.359 62.7344 192.102 63.7148 191.586 64.5195C191.078 65.332 190.367 65.9453 189.453 66.3594C188.539 66.7812 187.477 66.9922 186.266 66.9922C185.734 66.9922 185.172 66.9219 184.578 66.7812C183.992 66.6406 183.43 66.4219 182.891 66.125C182.359 65.8281 181.914 65.4531 181.555 65L183.043 63.0078C183.434 63.4609 183.887 63.8125 184.402 64.0625C184.918 64.3203 185.488 64.4492 186.113 64.4492C186.723 64.4492 187.238 64.3359 187.66 64.1094C188.082 63.8906 188.406 63.5664 188.633 63.1367C188.859 62.7148 188.973 62.2031 188.973 61.6016V52.25L189.301 49.3203ZM180.77 55.8125V55.5664C180.77 54.5977 180.887 53.7188 181.121 52.9297C181.363 52.1328 181.703 51.4492 182.141 50.8789C182.586 50.3086 183.125 49.8672 183.758 49.5547C184.391 49.2422 185.105 49.0859 185.902 49.0859C186.746 49.0859 187.453 49.2422 188.023 49.5547C188.594 49.8672 189.062 50.3125 189.43 50.8906C189.797 51.4609 190.082 52.1367 190.285 52.918C190.496 53.6914 190.66 54.5391 190.777 55.4609V56C190.66 56.8828 190.484 57.7031 190.25 58.4609C190.016 59.2188 189.707 59.8828 189.324 60.4531C188.941 61.0156 188.465 61.4531 187.895 61.7656C187.332 62.0781 186.66 62.2344 185.879 62.2344C185.098 62.2344 184.391 62.0742 183.758 61.7539C183.133 61.4336 182.598 60.9844 182.152 60.4062C181.707 59.8281 181.363 59.1484 181.121 58.3672C180.887 57.5859 180.77 56.7344 180.77 55.8125ZM184.145 55.5664V55.8125C184.145 56.3359 184.195 56.8242 184.297 57.2773C184.398 57.7305 184.555 58.1328 184.766 58.4844C184.984 58.8281 185.254 59.0977 185.574 59.293C185.902 59.4805 186.289 59.5742 186.734 59.5742C187.352 59.5742 187.855 59.4453 188.246 59.1875C188.637 58.9219 188.93 58.5586 189.125 58.0977C189.32 57.6367 189.434 57.1055 189.465 56.5039V54.9688C189.449 54.4766 189.383 54.0352 189.266 53.6445C189.148 53.2461 188.984 52.9062 188.773 52.625C188.562 52.3438 188.289 52.125 187.953 51.9688C187.617 51.8125 187.219 51.7344 186.758 51.7344C186.312 51.7344 185.926 51.8359 185.598 52.0391C185.277 52.2344 185.008 52.5039 184.789 52.8477C184.578 53.1914 184.418 53.5977 184.309 54.0664C184.199 54.5273 184.145 55.0273 184.145 55.5664ZM204.688 44.9375V62H201.172V44.9375H204.688ZM211.484 52.2266V54.9688H203.727V52.2266H211.484ZM212.305 44.9375V47.6914H203.727V44.9375H212.305ZM217.695 49.3203V62H214.309V49.3203H217.695ZM214.098 46.0156C214.098 45.5234 214.27 45.1172 214.613 44.7969C214.957 44.4766 215.418 44.3164 215.996 44.3164C216.566 44.3164 217.023 44.4766 217.367 44.7969C217.719 45.1172 217.895 45.5234 217.895 46.0156C217.895 46.5078 217.719 46.9141 217.367 47.2344C217.023 47.5547 216.566 47.7148 215.996 47.7148C215.418 47.7148 214.957 47.5547 214.613 47.2344C214.27 46.9141 214.098 46.5078 214.098 46.0156ZM223.789 52.0273V62H220.414V49.3203H223.578L223.789 52.0273ZM223.297 55.2148H222.383C222.383 54.2773 222.504 53.4336 222.746 52.6836C222.988 51.9258 223.328 51.2812 223.766 50.75C224.203 50.2109 224.723 49.8008 225.324 49.5195C225.934 49.2305 226.613 49.0859 227.363 49.0859C227.957 49.0859 228.5 49.1719 228.992 49.3438C229.484 49.5156 229.906 49.7891 230.258 50.1641C230.617 50.5391 230.891 51.0352 231.078 51.6523C231.273 52.2695 231.371 53.0234 231.371 53.9141V62H227.973V53.9023C227.973 53.3398 227.895 52.9023 227.738 52.5898C227.582 52.2773 227.352 52.0586 227.047 51.9336C226.75 51.8008 226.383 51.7344 225.945 51.7344C225.492 51.7344 225.098 51.8242 224.762 52.0039C224.434 52.1836 224.16 52.4336 223.941 52.7539C223.73 53.0664 223.57 53.4336 223.461 53.8555C223.352 54.2773 223.297 54.7305 223.297 55.2148ZM241.426 59.2344V44H244.824V62H241.766L241.426 59.2344ZM233.41 55.8125V55.5664C233.41 54.5977 233.52 53.7188 233.738 52.9297C233.957 52.1328 234.277 51.4492 234.699 50.8789C235.121 50.3086 235.641 49.8672 236.258 49.5547C236.875 49.2422 237.578 49.0859 238.367 49.0859C239.109 49.0859 239.758 49.2422 240.312 49.5547C240.875 49.8672 241.352 50.3125 241.742 50.8906C242.141 51.4609 242.461 52.1367 242.703 52.918C242.945 53.6914 243.121 54.5391 243.23 55.4609V56C243.121 56.8828 242.945 57.7031 242.703 58.4609C242.461 59.2188 242.141 59.8828 241.742 60.4531C241.352 61.0156 240.875 61.4531 240.312 61.7656C239.75 62.0781 239.094 62.2344 238.344 62.2344C237.555 62.2344 236.852 62.0742 236.234 61.7539C235.625 61.4336 235.109 60.9844 234.688 60.4062C234.273 59.8281 233.957 59.1484 233.738 58.3672C233.52 57.5859 233.41 56.7344 233.41 55.8125ZM236.785 55.5664V55.8125C236.785 56.3359 236.824 56.8242 236.902 57.2773C236.988 57.7305 237.125 58.1328 237.312 58.4844C237.508 58.8281 237.758 59.0977 238.062 59.293C238.375 59.4805 238.754 59.5742 239.199 59.5742C239.777 59.5742 240.254 59.4453 240.629 59.1875C241.004 58.9219 241.289 58.5586 241.484 58.0977C241.688 57.6367 241.805 57.1055 241.836 56.5039V54.9688C241.812 54.4766 241.742 54.0352 241.625 53.6445C241.516 53.2461 241.352 52.9062 241.133 52.625C240.922 52.3438 240.656 52.125 240.336 51.9688C240.023 51.8125 239.652 51.7344 239.223 51.7344C238.785 51.7344 238.41 51.8359 238.098 52.0391C237.785 52.2344 237.531 52.5039 237.336 52.8477C237.148 53.1914 237.008 53.5977 236.914 54.0664C236.828 54.5273 236.785 55.0273 236.785 55.5664ZM253.297 62.2344C252.312 62.2344 251.43 62.0781 250.648 61.7656C249.867 61.4453 249.203 61.0039 248.656 60.4414C248.117 59.8789 247.703 59.2266 247.414 58.4844C247.125 57.7344 246.98 56.9375 246.98 56.0938V55.625C246.98 54.6641 247.117 53.7852 247.391 52.9883C247.664 52.1914 248.055 51.5 248.562 50.9141C249.078 50.3281 249.703 49.8789 250.438 49.5664C251.172 49.2461 252 49.0859 252.922 49.0859C253.82 49.0859 254.617 49.2344 255.312 49.5312C256.008 49.8281 256.59 50.25 257.059 50.7969C257.535 51.3438 257.895 52 258.137 52.7656C258.379 53.5234 258.5 54.3672 258.5 55.2969V56.7031H248.422V54.4531H255.184V54.1953C255.184 53.7266 255.098 53.3086 254.926 52.9414C254.762 52.5664 254.512 52.2695 254.176 52.0508C253.84 51.832 253.41 51.7227 252.887 51.7227C252.441 51.7227 252.059 51.8203 251.738 52.0156C251.418 52.2109 251.156 52.4844 250.953 52.8359C250.758 53.1875 250.609 53.6016 250.508 54.0781C250.414 54.5469 250.367 55.0625 250.367 55.625V56.0938C250.367 56.6016 250.438 57.0703 250.578 57.5C250.727 57.9297 250.934 58.3008 251.199 58.6133C251.473 58.9258 251.801 59.168 252.184 59.3398C252.574 59.5117 253.016 59.5977 253.508 59.5977C254.117 59.5977 254.684 59.4805 255.207 59.2461C255.738 59.0039 256.195 58.6406 256.578 58.1562L258.219 59.9375C257.953 60.3203 257.59 60.6875 257.129 61.0391C256.676 61.3906 256.129 61.6797 255.488 61.9062C254.848 62.125 254.117 62.2344 253.297 62.2344ZM263.797 52.0859V62H260.422V49.3203H263.598L263.797 52.0859ZM267.617 49.2383L267.559 52.3672C267.395 52.3438 267.195 52.3242 266.961 52.3086C266.734 52.2852 266.527 52.2734 266.34 52.2734C265.863 52.2734 265.449 52.3359 265.098 52.4609C264.754 52.5781 264.465 52.7539 264.23 52.9883C264.004 53.2227 263.832 53.5078 263.715 53.8438C263.605 54.1797 263.543 54.5625 263.527 54.9922L262.848 54.7812C262.848 53.9609 262.93 53.207 263.094 52.5195C263.258 51.8242 263.496 51.2188 263.809 50.7031C264.129 50.1875 264.52 49.7891 264.98 49.5078C265.441 49.2266 265.969 49.0859 266.562 49.0859C266.75 49.0859 266.941 49.1016 267.137 49.1328C267.332 49.1562 267.492 49.1914 267.617 49.2383Z" fill="#888888"/>
<path d="M115.994 98.708V104.641H99.5806V98.708H115.994ZM102.151 86.0078V118H94.439V86.0078H102.151ZM121.18 86.0078V118H113.489V86.0078H121.18ZM124.805 106.354V105.893C124.805 104.15 125.054 102.546 125.552 101.081C126.05 99.6016 126.783 98.3198 127.75 97.2358C128.716 96.1519 129.91 95.3096 131.331 94.709C132.752 94.0938 134.393 93.7861 136.253 93.7861C138.128 93.7861 139.776 94.0938 141.197 94.709C142.632 95.3096 143.833 96.1519 144.8 97.2358C145.767 98.3198 146.5 99.6016 146.998 101.081C147.496 102.546 147.745 104.15 147.745 105.893V106.354C147.745 108.083 147.496 109.687 146.998 111.167C146.5 112.631 145.767 113.913 144.8 115.012C143.833 116.096 142.64 116.938 141.219 117.539C139.798 118.139 138.157 118.439 136.297 118.439C134.437 118.439 132.789 118.139 131.353 117.539C129.917 116.938 128.716 116.096 127.75 115.012C126.783 113.913 126.05 112.631 125.552 111.167C125.054 109.687 124.805 108.083 124.805 106.354ZM132.21 105.893V106.354C132.21 107.248 132.276 108.083 132.408 108.859C132.54 109.636 132.759 110.317 133.067 110.903C133.375 111.474 133.792 111.921 134.319 112.243C134.847 112.565 135.506 112.727 136.297 112.727C137.073 112.727 137.718 112.565 138.23 112.243C138.758 111.921 139.175 111.474 139.483 110.903C139.791 110.317 140.01 109.636 140.142 108.859C140.274 108.083 140.34 107.248 140.34 106.354V105.893C140.34 105.029 140.274 104.216 140.142 103.454C140.01 102.678 139.791 101.997 139.483 101.411C139.175 100.81 138.758 100.341 138.23 100.004C137.703 99.6675 137.044 99.499 136.253 99.499C135.477 99.499 134.825 99.6675 134.297 100.004C133.785 100.341 133.375 100.81 133.067 101.411C132.759 101.997 132.54 102.678 132.408 103.454C132.276 104.216 132.21 105.029 132.21 105.893ZM158.27 110.925L162.664 94.2256H167.3L165.652 102.597L161.302 118H157.588L158.27 110.925ZM156.534 94.2256L159.258 110.793L159.566 118H155.062L149.437 94.2256H156.534ZM171.211 110.441L173.958 94.2256H181.055L175.474 118H170.97L171.211 110.441ZM167.828 94.2256L172.266 110.881L172.947 118H169.19L164.927 102.641L163.345 94.2256H167.828ZM209.466 86.0078V118H201.753V86.0078H209.466ZM219.09 86.0078V91.9624H192.349V86.0078H219.09ZM216.475 106.354V105.893C216.475 104.15 216.724 102.546 217.222 101.081C217.72 99.6016 218.453 98.3198 219.419 97.2358C220.386 96.1519 221.58 95.3096 223.001 94.709C224.422 94.0938 226.062 93.7861 227.923 93.7861C229.798 93.7861 231.446 94.0938 232.867 94.709C234.302 95.3096 235.503 96.1519 236.47 97.2358C237.437 98.3198 238.169 99.6016 238.667 101.081C239.166 102.546 239.415 104.15 239.415 105.893V106.354C239.415 108.083 239.166 109.687 238.667 111.167C238.169 112.631 237.437 113.913 236.47 115.012C235.503 116.096 234.31 116.938 232.889 117.539C231.468 118.139 229.827 118.439 227.967 118.439C226.106 118.439 224.458 118.139 223.023 117.539C221.587 116.938 220.386 116.096 219.419 115.012C218.453 113.913 217.72 112.631 217.222 111.167C216.724 109.687 216.475 108.083 216.475 106.354ZM223.88 105.893V106.354C223.88 107.248 223.946 108.083 224.078 108.859C224.209 109.636 224.429 110.317 224.737 110.903C225.044 111.474 225.462 111.921 225.989 112.243C226.517 112.565 227.176 112.727 227.967 112.727C228.743 112.727 229.388 112.565 229.9 112.243C230.428 111.921 230.845 111.474 231.153 110.903C231.46 110.317 231.68 109.636 231.812 108.859C231.944 108.083 232.01 107.248 232.01 106.354V105.893C232.01 105.029 231.944 104.216 231.812 103.454C231.68 102.678 231.46 101.997 231.153 101.411C230.845 100.81 230.428 100.341 229.9 100.004C229.373 99.6675 228.714 99.499 227.923 99.499C227.146 99.499 226.495 99.6675 225.967 100.004C225.455 100.341 225.044 100.81 224.737 101.411C224.429 101.997 224.209 102.678 224.078 103.454C223.946 104.216 223.88 105.029 223.88 105.893ZM254.268 86.0078H266.858C269.319 86.0078 271.458 86.374 273.274 87.1064C275.091 87.8389 276.49 88.9229 277.471 90.3584C278.467 91.7939 278.965 93.5664 278.965 95.6758C278.965 97.5068 278.68 99.0376 278.108 100.268C277.537 101.499 276.739 102.517 275.713 103.322C274.703 104.113 273.523 104.765 272.176 105.278L269.649 106.706H259.08L259.036 100.751H266.858C267.84 100.751 268.653 100.576 269.297 100.224C269.942 99.8726 270.425 99.3745 270.748 98.73C271.084 98.0708 271.253 97.2871 271.253 96.3789C271.253 95.4561 271.084 94.665 270.748 94.0059C270.411 93.3467 269.913 92.8413 269.253 92.4897C268.609 92.1382 267.811 91.9624 266.858 91.9624H261.98V118H254.268V86.0078ZM271.78 118L264.705 103.85L272.879 103.806L280.042 117.67V118H271.78ZM297.159 112.221V94.2256H304.585V118H297.642L297.159 112.221ZM297.862 107.387L299.795 107.343C299.795 108.94 299.605 110.419 299.224 111.782C298.843 113.129 298.279 114.301 297.532 115.297C296.8 116.293 295.892 117.07 294.808 117.626C293.738 118.168 292.5 118.439 291.094 118.439C289.922 118.439 288.846 118.278 287.864 117.956C286.897 117.619 286.062 117.099 285.359 116.396C284.656 115.678 284.107 114.763 283.711 113.649C283.331 112.521 283.14 111.174 283.14 109.606V94.2256H290.545V109.65C290.545 110.178 290.611 110.632 290.743 111.013C290.875 111.394 291.065 111.716 291.314 111.979C291.563 112.229 291.871 112.419 292.237 112.551C292.618 112.668 293.05 112.727 293.533 112.727C294.646 112.727 295.518 112.492 296.148 112.023C296.778 111.555 297.217 110.917 297.466 110.112C297.73 109.306 297.862 108.398 297.862 107.387ZM315.945 99.3013V118H308.541V94.2256H315.484L315.945 99.3013ZM315.066 105.3L313.331 105.344C313.331 103.527 313.55 101.909 313.99 100.488C314.429 99.0522 315.052 97.8364 315.857 96.8403C316.663 95.8442 317.623 95.0898 318.736 94.5771C319.864 94.0498 321.116 93.7861 322.493 93.7861C323.592 93.7861 324.595 93.9473 325.503 94.2695C326.426 94.5918 327.217 95.1118 327.876 95.8296C328.55 96.5474 329.063 97.4995 329.415 98.686C329.781 99.8579 329.964 101.308 329.964 103.037V118H322.515V103.015C322.515 102.062 322.383 101.337 322.12 100.839C321.856 100.327 321.475 99.9751 320.977 99.7847C320.479 99.5942 319.871 99.499 319.153 99.499C318.392 99.499 317.747 99.6455 317.22 99.9385C316.692 100.231 316.268 100.642 315.945 101.169C315.638 101.682 315.411 102.29 315.264 102.993C315.132 103.696 315.066 104.465 315.066 105.3ZM345.85 107.871H339.544C339.544 106.582 339.632 105.446 339.808 104.465C339.998 103.469 340.32 102.575 340.774 101.784C341.229 100.993 341.844 100.261 342.62 99.5869C343.309 99.0156 343.902 98.4663 344.4 97.939C344.898 97.4116 345.279 96.877 345.542 96.335C345.806 95.793 345.938 95.2144 345.938 94.5991C345.938 93.8374 345.828 93.2148 345.608 92.7314C345.403 92.248 345.088 91.8892 344.664 91.6548C344.253 91.4058 343.733 91.2812 343.104 91.2812C342.591 91.2812 342.107 91.4058 341.653 91.6548C341.214 91.9038 340.855 92.292 340.577 92.8193C340.298 93.332 340.145 94.0132 340.115 94.8628H332.667C332.71 92.6802 333.194 90.9077 334.117 89.5454C335.054 88.1685 336.299 87.165 337.852 86.5352C339.419 85.8906 341.17 85.5684 343.104 85.5684C345.242 85.5684 347.081 85.8979 348.619 86.5571C350.157 87.2163 351.336 88.1978 352.156 89.5015C352.977 90.7905 353.387 92.3799 353.387 94.2695C353.387 95.5293 353.145 96.6279 352.662 97.5654C352.193 98.4883 351.556 99.3525 350.75 100.158C349.959 100.949 349.073 101.799 348.091 102.707C347.242 103.454 346.663 104.216 346.355 104.992C346.048 105.754 345.879 106.713 345.85 107.871ZM338.643 114.55C338.643 113.496 339.024 112.617 339.786 111.914C340.547 111.196 341.536 110.837 342.752 110.837C343.968 110.837 344.957 111.196 345.718 111.914C346.48 112.617 346.861 113.496 346.861 114.55C346.861 115.605 346.48 116.491 345.718 117.209C344.957 117.912 343.968 118.264 342.752 118.264C341.536 118.264 340.547 117.912 339.786 117.209C339.024 116.491 338.643 115.605 338.643 114.55Z" fill="black"/>
<path d="M1363 15C1363 6.71573 1356.28 0 1348 0H1134V167H1348C1356.28 167 1363 160.284 1363 152V15Z" fill="#7862FF"/>
<path d="M1260.77 81.3079C1263.96 81.3079 1267.09 82.2553 1269.74 84.0303C1272.4 85.8053 1274.47 88.3282 1275.69 91.2799C1276.92 94.2316 1277.24 97.4796 1276.61 100.613C1275.99 103.747 1274.45 106.625 1272.19 108.884C1269.93 111.143 1267.05 112.682 1263.92 113.305C1260.79 113.928 1257.54 113.608 1254.59 112.386C1251.64 111.163 1249.11 109.093 1247.34 106.436C1245.56 103.78 1244.62 100.657 1244.62 97.4617C1244.62 93.1774 1246.32 89.0686 1249.35 86.0392C1252.38 83.0098 1256.48 81.3079 1260.77 81.3079ZM1260.77 75.9233C1256.51 75.9233 1252.35 77.1865 1248.8 79.5532C1245.26 81.9198 1242.5 85.2837 1240.87 89.2193C1239.24 93.1549 1238.81 97.4856 1239.64 101.664C1240.48 105.842 1242.53 109.679 1245.54 112.692C1248.55 115.704 1252.39 117.755 1256.57 118.586C1260.75 119.417 1265.08 118.991 1269.01 117.361C1272.95 115.73 1276.31 112.97 1278.68 109.428C1281.04 105.886 1282.31 101.722 1282.31 97.4617C1282.31 91.7493 1280.04 86.271 1276 82.2317C1271.96 78.1925 1266.48 75.9233 1260.77 75.9233Z" fill="white"/>
<path d="M1274.23 49H1220.38C1218.96 49 1217.59 49.5673 1216.58 50.5771C1215.57 51.5869 1215 52.9565 1215 54.3846V108.231C1215 109.659 1215.57 111.028 1216.58 112.038C1217.59 113.048 1218.96 113.615 1220.38 113.615H1231.15V108.231H1220.38V70.5384H1279.62V54.3846C1279.62 52.9565 1279.05 51.5869 1278.04 50.5771C1277.03 49.5673 1275.66 49 1274.23 49ZM1220.38 65.1538V54.3846H1274.23V65.1538H1220.38Z" fill="white"/>
<path d="M1255.38 89.3849V105.539L1268.85 97.4618L1255.38 89.3849Z" fill="white"/>
</svg>
